<svg xmlns="http://www.w3.org/2000/svg" width="328" height="59" viewBox="0 0 328 59" fill="none">
<path fill-rule="evenodd" clip-rule="evenodd" d="M39.3427 13.2049C38.5797 13.4994 37.7505 13.6609 36.8837 13.6609C35.5709 13.6609 34.3446 13.2905 33.3036 12.6486L21.5016 23.2704C23.4231 25.4397 24.5896 28.2931 24.5896 31.419C24.5896 38.2092 19.085 43.7138 12.2948 43.7138C5.50457 43.7138 0 38.2092 0 31.419C0 24.6287 5.50457 19.1242 12.2948 19.1242C14.8713 19.1242 17.2626 19.9167 19.2384 21.2712L31.1527 10.5483C30.4572 9.47842 30.0532 8.20161 30.0532 6.83045C30.0532 3.0581 33.1113 0 36.8837 0C40.656 0 43.7141 3.0581 43.7141 6.83045C43.7141 8.65213 43.001 10.3072 41.8386 11.5319L50.9778 26.9873L48.3955 28.5143L39.3427 13.2049ZM56.9765 44.9818C59.4608 44.9818 61.4746 42.968 61.4746 40.4837C61.4746 37.9995 59.4608 35.9856 56.9765 35.9856C54.4923 35.9856 52.4785 37.9995 52.4785 40.4837C52.4785 42.968 54.4923 44.9818 56.9765 44.9818Z" fill="url(#paint0_linear_1292_14467)"/>
<path d="M64.1741 49.5587C63.1068 50.4766 61.9115 51.181 60.5881 51.6719C59.2647 52.1628 57.8932 52.4083 56.4738 52.4083C55.3852 52.4083 54.3339 52.2642 53.32 51.9761C52.3168 51.6986 51.3723 51.3037 50.4865 50.7914C49.6113 50.2685 48.8109 49.6441 48.0851 48.9184C47.3594 48.1926 46.7351 47.3922 46.2121 46.5171C45.6998 45.6312 45.2996 44.6867 45.0114 43.6835C44.734 42.6696 44.5952 41.6183 44.5952 40.5297C44.5952 39.4411 44.734 38.3899 45.0114 37.376C45.2996 36.3621 45.6998 35.4176 46.2121 34.5424C46.7351 33.6566 47.3594 32.8508 48.0851 32.1251C48.8109 31.3994 49.6113 30.7803 50.4865 30.2681C51.3723 29.7451 52.3168 29.3449 53.32 29.0674C54.3339 28.7792 55.3852 28.6352 56.4738 28.6352C57.8932 28.6352 59.2647 28.8806 60.5881 29.3716C61.9115 29.8518 63.1068 30.5562 64.1741 31.4847L61.7407 35.487C61.0683 34.7612 60.2732 34.2062 59.3554 33.822C58.4376 33.4271 57.477 33.2297 56.4738 33.2297C55.4599 33.2297 54.51 33.4218 53.6242 33.806C52.7384 34.1902 51.9646 34.7132 51.3029 35.3749C50.6412 36.0259 50.1183 36.7997 49.7341 37.6962C49.3498 38.582 49.1577 39.5265 49.1577 40.5297C49.1577 41.533 49.3498 42.4775 49.7341 43.3633C50.1183 44.2385 50.6412 45.0069 51.3029 45.6686C51.9646 46.3303 52.7384 46.8532 53.6242 47.2375C54.51 47.6217 55.4599 47.8138 56.4738 47.8138C57.477 47.8138 58.4376 47.6217 59.3554 47.2375C60.2732 46.8426 61.0683 46.2823 61.7407 45.5565L64.1741 49.5587Z" fill="url(#paint1_linear_1292_14467)"/>
<path d="M70.7537 51.912H66.3833V34.7666H67.4399L68.8807 36.7997C69.5851 36.1593 70.3855 35.6684 71.282 35.3269C72.1785 34.9747 73.107 34.7986 74.0675 34.7986H77.9257V39.153H74.0675C73.6086 39.153 73.1764 39.2384 72.7708 39.4091C72.3653 39.5799 72.0131 39.8147 71.7142 40.1135C71.4154 40.4123 71.1806 40.7645 71.0099 41.1701C70.8391 41.5757 70.7537 42.0079 70.7537 42.4668V51.912Z" fill="url(#paint2_linear_1292_14467)"/>
<path d="M84 58.968V54.5655L86.4334 54.5976C86.8603 54.5976 87.2712 54.5282 87.6661 54.3894C88.0609 54.2507 88.4238 54.0586 88.7547 53.8131C89.0962 53.5677 89.395 53.2742 89.6512 52.9326C89.9073 52.6018 90.0764 51.7146 90.2365 51.3197C89.7562 51.5225 89.2653 51.7253 88.7637 51.928C88.2727 52.1308 87.7765 52.2322 87.2749 52.2322C86.2183 52.2322 85.2257 52.0454 84.2972 51.6719C83.3687 51.2984 82.5522 50.7701 81.8479 50.087C81.1541 49.3933 80.6045 48.5555 80.1989 47.5736C79.8041 46.5811 79.6066 45.4711 79.6066 44.2438V34.7666H83.961V44.2438C83.961 44.8521 84.0464 45.3858 84.2172 45.8447C84.3986 46.2929 84.6387 46.6718 84.9376 46.9813C85.2364 47.2801 85.5833 47.5043 85.9781 47.6537C86.3837 47.8031 86.8159 47.8778 87.2749 47.8778C87.7231 47.8778 88.1447 47.7764 88.5396 47.5736C88.9451 47.3602 89.2973 47.0827 89.5961 46.7412C89.895 46.3997 90.1298 46.0154 90.3005 45.5885C90.4713 45.151 90.5567 44.7027 90.5567 44.2438V34.7666H94.9591V49.7508C94.9484 50.9568 94.7527 52.6125 94.2937 53.6691C93.8348 54.7256 93.2051 55.6488 92.4047 56.4386C91.6149 57.2284 90.6917 57.8527 89.6352 58.3116C88.5786 58.7705 87.4473 59 86.2413 59L84 58.968Z" fill="url(#paint3_linear_1292_14467)"/>
<path d="M102.707 59H98.305V34.7666H99.3616L101.107 36.8317C101.501 36.4582 101.934 36.106 102.403 35.7751C102.873 35.4443 103.358 35.1614 103.86 34.9266C104.372 34.6812 104.901 34.4891 105.445 34.3503C105.989 34.2116 106.539 34.1422 107.094 34.1422C108.3 34.1422 109.431 34.361 110.488 34.7986C111.555 35.2255 112.483 35.8338 113.273 36.6236C114.074 37.4133 114.703 38.3685 115.162 39.4892C115.621 40.5991 115.851 41.8318 115.851 43.1872C115.851 44.596 115.621 45.866 115.162 46.9973C114.703 48.1179 114.074 49.0731 113.273 49.8629C112.483 50.642 111.555 51.2397 110.488 51.6559C109.431 52.0721 108.3 52.2802 107.094 52.2802C106.71 52.2802 106.325 52.2376 105.941 52.1522C105.568 52.0668 105.194 51.9547 104.821 51.816C104.458 51.6666 104.095 51.5011 103.732 51.3197C103.38 51.1383 103.038 50.9515 102.707 50.7594V59ZM111.464 43.1872C111.464 42.4615 111.347 41.8104 111.112 41.2341C110.888 40.6578 110.578 40.1722 110.184 39.7773C109.789 39.3718 109.324 39.0623 108.791 38.8488C108.257 38.6354 107.692 38.5286 107.094 38.5286C106.496 38.5286 105.931 38.6354 105.397 38.8488C104.874 39.0623 104.415 39.3718 104.02 39.7773C103.625 40.1722 103.31 40.6578 103.076 41.2341C102.851 41.8104 102.739 42.4615 102.739 43.1872C102.739 43.8809 102.851 44.5159 103.076 45.0923C103.31 45.6686 103.625 46.1595 104.02 46.5651C104.415 46.9706 104.874 47.2855 105.397 47.5096C105.931 47.7337 106.496 47.8458 107.094 47.8458C107.692 47.8458 108.257 47.7337 108.791 47.5096C109.324 47.2855 109.789 46.9706 110.184 46.5651C110.578 46.1595 110.888 45.6686 111.112 45.0923C111.347 44.5159 111.464 43.8809 111.464 43.1872Z" fill="url(#paint4_linear_1292_14467)"/>
<path d="M126.753 51.912C125.696 51.912 124.704 51.7146 123.775 51.3197C122.847 50.9142 122.03 50.3645 121.326 49.6708C120.632 48.9664 120.082 48.15 119.677 47.2214C119.282 46.2929 119.084 45.3004 119.084 44.2438V39.153H116.955V34.7986H119.084V27.9468H123.439V34.7986H130.067V39.153H123.439V44.2438C123.439 44.7027 123.524 45.135 123.695 45.5405C123.866 45.9354 124.101 46.2823 124.399 46.5811C124.698 46.8799 125.05 47.1201 125.456 47.3015C125.862 47.4722 126.294 47.5576 126.753 47.5576H130.067V51.912H126.753Z" fill="url(#paint5_linear_1292_14467)"/>
<path d="M149.101 43.1872C149.101 44.4679 148.872 45.6632 148.413 46.7732C147.954 47.8725 147.329 48.8277 146.54 49.6388C145.75 50.4392 144.821 51.0742 143.754 51.5438C142.698 52.0028 141.561 52.2322 140.344 52.2322C139.138 52.2322 138.002 52.0028 136.934 51.5438C135.878 51.0742 134.949 50.4392 134.149 49.6388C133.359 48.8277 132.735 47.8725 132.276 46.7732C131.817 45.6632 131.587 44.4679 131.587 43.1872C131.587 41.8852 131.817 40.6792 132.276 39.5692C132.735 38.4593 133.359 37.5041 134.149 36.7036C134.949 35.8925 135.878 35.2575 136.934 34.7986C138.002 34.3396 139.138 34.1102 140.344 34.1102C141.561 34.1102 142.698 34.329 143.754 34.7666C144.821 35.1935 145.75 35.8071 146.54 36.6076C147.329 37.3973 147.954 38.3525 148.413 39.4732C148.872 40.5831 149.101 41.8211 149.101 43.1872ZM144.699 43.1872C144.699 42.4828 144.581 41.8478 144.346 41.2822C144.122 40.7058 143.813 40.2149 143.418 39.8093C143.023 39.3931 142.559 39.0783 142.025 38.8648C141.502 38.6407 140.942 38.5286 140.344 38.5286C139.747 38.5286 139.181 38.6407 138.647 38.8648C138.124 39.0783 137.665 39.3931 137.271 39.8093C136.886 40.2149 136.582 40.7058 136.358 41.2822C136.134 41.8478 136.022 42.4828 136.022 43.1872C136.022 43.8489 136.134 44.4626 136.358 45.0282C136.582 45.5939 136.886 46.0848 137.271 46.501C137.665 46.9173 138.124 47.2481 138.647 47.4936C139.181 47.7284 139.747 47.8458 140.344 47.8458C140.942 47.8458 141.502 47.7337 142.025 47.5096C142.559 47.2855 143.023 46.9706 143.418 46.5651C143.813 46.1595 144.122 45.6686 144.346 45.0923C144.581 44.5159 144.699 43.8809 144.699 43.1872Z" fill="url(#paint6_linear_1292_14467)"/>
<path d="M159.827 35.8391C159.827 34.8893 160.008 33.9981 160.371 33.1657C160.734 32.3332 161.225 31.6075 161.844 30.9885C162.474 30.3588 163.205 29.8625 164.037 29.4996C164.87 29.1368 165.761 28.9553 166.711 28.9553H177.245V33.5499H166.711C166.391 33.5499 166.092 33.6086 165.814 33.726C165.537 33.8434 165.291 34.0088 165.078 34.2223C164.875 34.425 164.715 34.6652 164.598 34.9426C164.48 35.2201 164.422 35.519 164.422 35.8391C164.422 36.1593 164.48 36.4635 164.598 36.7516C164.715 37.0291 164.875 37.2746 165.078 37.4881C165.291 37.6908 165.537 37.8509 165.814 37.9683C166.092 38.0857 166.391 38.1444 166.711 38.1444H171.305C172.255 38.1444 173.146 38.3259 173.979 38.6887C174.822 39.0409 175.553 39.5319 176.172 40.1615C176.802 40.7805 177.293 41.5116 177.645 42.3548C178.008 43.1872 178.189 44.0784 178.189 45.0282C178.189 45.9781 178.008 46.8692 177.645 47.7017C177.293 48.5342 176.802 49.2652 176.172 49.8949C175.553 50.5139 174.822 51.0049 173.979 51.3677C173.146 51.7306 172.255 51.912 171.305 51.912H161.108V47.3175H171.305C171.626 47.3175 171.924 47.2588 172.202 47.1414C172.479 47.024 172.72 46.8639 172.922 46.6611C173.136 46.4477 173.301 46.2022 173.419 45.9247C173.536 45.6472 173.595 45.3484 173.595 45.0282C173.595 44.7081 173.536 44.4092 173.419 44.1317C173.301 43.8542 173.136 43.6141 172.922 43.4113C172.72 43.1979 172.479 43.0325 172.202 42.9151C171.924 42.7977 171.626 42.739 171.305 42.739H166.711C165.761 42.739 164.87 42.5575 164.037 42.1947C163.205 41.8318 162.474 41.3409 161.844 40.7218C161.225 40.0922 160.734 39.3611 160.371 38.5286C160.008 37.6855 159.827 36.789 159.827 35.8391Z" fill="url(#paint7_linear_1292_14467)"/>
<path d="M184.993 59H180.591V34.7666H181.647L183.392 36.8317C183.787 36.4582 184.219 36.106 184.689 35.7751C185.158 35.4443 185.644 35.1614 186.146 34.9266C186.658 34.6812 187.186 34.4891 187.731 34.3503C188.275 34.2116 188.824 34.1422 189.379 34.1422C190.585 34.1422 191.717 34.361 192.773 34.7986C193.841 35.2255 194.769 35.8338 195.559 36.6236C196.359 37.4133 196.989 38.3685 197.448 39.4892C197.907 40.5991 198.136 41.8318 198.136 43.1872C198.136 44.596 197.907 45.866 197.448 46.9973C196.989 48.1179 196.359 49.0731 195.559 49.8629C194.769 50.642 193.841 51.2397 192.773 51.6559C191.717 52.0721 190.585 52.2802 189.379 52.2802C188.995 52.2802 188.611 52.2376 188.227 52.1522C187.853 52.0668 187.48 51.9547 187.106 51.816C186.743 51.6666 186.38 51.5011 186.018 51.3197C185.665 51.1383 185.324 50.9515 184.993 50.7594V59ZM193.75 43.1872C193.75 42.4615 193.632 41.8104 193.398 41.2341C193.174 40.6578 192.864 40.1722 192.469 39.7773C192.074 39.3718 191.61 39.0623 191.076 38.8488C190.543 38.6354 189.977 38.5286 189.379 38.5286C188.782 38.5286 188.216 38.6354 187.682 38.8488C187.16 39.0623 186.701 39.3718 186.306 39.7773C185.911 40.1722 185.596 40.6578 185.361 41.2341C185.137 41.8104 185.025 42.4615 185.025 43.1872C185.025 43.8809 185.137 44.5159 185.361 45.0923C185.596 45.6686 185.911 46.1595 186.306 46.5651C186.701 46.9706 187.16 47.2855 187.682 47.5096C188.216 47.7337 188.782 47.8458 189.379 47.8458C189.977 47.8458 190.543 47.7337 191.076 47.5096C191.61 47.2855 192.074 46.9706 192.469 46.5651C192.864 46.1595 193.174 45.6686 193.398 45.0923C193.632 44.5159 193.75 43.8809 193.75 43.1872Z" fill="url(#paint8_linear_1292_14467)"/>
<path d="M217.171 51.912H216.114L214.417 49.5587C214.001 49.9323 213.558 50.2845 213.089 50.6153C212.63 50.9355 212.144 51.2183 211.632 51.4638C211.119 51.6986 210.591 51.8854 210.047 52.0241C209.513 52.1628 208.969 52.2322 208.414 52.2322C207.208 52.2322 206.071 52.0294 205.004 51.6239C203.948 51.2183 203.019 50.6313 202.219 49.8629C201.429 49.0838 200.804 48.1339 200.346 47.0133C199.887 45.8927 199.657 44.6173 199.657 43.1872C199.657 41.8531 199.887 40.6311 200.346 39.5212C200.804 38.4006 201.429 37.44 202.219 36.6396C203.019 35.8391 203.948 35.2201 205.004 34.7826C206.071 34.3343 207.208 34.1102 208.414 34.1102C208.969 34.1102 209.519 34.1796 210.063 34.3183C210.607 34.457 211.135 34.6492 211.648 34.8946C212.16 35.1401 212.646 35.4283 213.105 35.7591C213.574 36.09 214.012 36.4475 214.417 36.8317L216.114 34.7986H217.171V51.912ZM212.768 43.1872C212.768 42.5895 212.651 42.0132 212.416 41.4583C212.192 40.8926 211.883 40.3963 211.488 39.9694C211.093 39.5319 210.629 39.185 210.095 38.9289C209.572 38.662 209.012 38.5286 208.414 38.5286C207.816 38.5286 207.251 38.63 206.717 38.8328C206.194 39.0356 205.735 39.3344 205.34 39.7293C204.956 40.1242 204.652 40.6151 204.428 41.2021C204.204 41.7784 204.092 42.4401 204.092 43.1872C204.092 43.9343 204.204 44.6013 204.428 45.1883C204.652 45.7646 204.956 46.2502 205.34 46.6451C205.735 47.04 206.194 47.3388 206.717 47.5416C207.251 47.7444 207.816 47.8458 208.414 47.8458C209.012 47.8458 209.572 47.7177 210.095 47.4616C210.629 47.1948 211.093 46.8479 211.488 46.421C211.883 45.9834 212.192 45.4872 212.416 44.9322C212.651 44.3665 212.768 43.7849 212.768 43.1872Z" fill="url(#paint9_linear_1292_14467)"/>
<path d="M235.501 38.1764L232.299 41.3942C232.139 40.946 231.92 40.5457 231.643 40.1936C231.365 39.8307 231.051 39.5265 230.698 39.281C230.357 39.0356 229.983 38.8488 229.578 38.7207C229.172 38.5927 228.756 38.5286 228.329 38.5286C227.731 38.5286 227.166 38.6514 226.632 38.8968C226.109 39.1423 225.65 39.4892 225.255 39.9374C224.871 40.375 224.567 40.8979 224.343 41.5063C224.119 42.1146 224.007 42.787 224.007 43.5234C224.007 44.1211 224.119 44.6814 224.343 45.2043C224.567 45.7273 224.871 46.1862 225.255 46.5811C225.65 46.976 226.109 47.2855 226.632 47.5096C227.166 47.7337 227.731 47.8458 228.329 47.8458C228.756 47.8458 229.167 47.7871 229.562 47.6697C229.957 47.5523 230.325 47.3869 230.666 47.1734C231.019 46.9493 231.328 46.6825 231.595 46.373C231.872 46.0528 232.096 45.7006 232.267 45.3164L235.469 48.5342C235.063 49.1105 234.594 49.6281 234.06 50.087C233.537 50.546 232.966 50.9355 232.347 51.2557C231.739 51.5759 231.093 51.816 230.41 51.9761C229.738 52.1468 229.044 52.2322 228.329 52.2322C227.123 52.2322 225.986 52.0081 224.919 51.5598C223.863 51.1009 222.934 50.4766 222.134 49.6868C221.344 48.897 220.719 47.9739 220.261 46.9173C219.802 45.8607 219.572 44.7294 219.572 43.5234C219.572 42.2107 219.802 40.9833 220.261 39.8414C220.719 38.6994 221.344 37.7068 222.134 36.8637C222.934 36.0099 223.863 35.3375 224.919 34.8466C225.986 34.3557 227.123 34.1102 228.329 34.1102C229.044 34.1102 229.743 34.2009 230.426 34.3823C231.12 34.5638 231.776 34.8306 232.395 35.1828C233.025 35.5243 233.601 35.9459 234.124 36.4475C234.658 36.9491 235.117 37.5254 235.501 38.1764Z" fill="url(#paint10_linear_1292_14467)"/>
<path d="M244.21 47.7177C244.381 47.7711 244.551 47.8084 244.722 47.8298C244.893 47.8405 245.064 47.8458 245.234 47.8458C245.661 47.8458 246.072 47.7871 246.467 47.6697C246.862 47.5523 247.23 47.3869 247.572 47.1734C247.924 46.9493 248.233 46.6825 248.5 46.373C248.778 46.0528 249.002 45.7006 249.173 45.3164L252.374 48.5342C251.969 49.1105 251.499 49.6281 250.966 50.087C250.443 50.546 249.872 50.9355 249.253 51.2557C248.644 51.5759 247.999 51.816 247.316 51.9761C246.643 52.1468 245.949 52.2322 245.234 52.2322C244.028 52.2322 242.892 52.0081 241.825 51.5598C240.768 51.1116 239.839 50.4873 239.039 49.6868C238.249 48.8864 237.625 47.9365 237.166 46.8372C236.707 45.7273 236.478 44.5106 236.478 43.1872C236.478 41.8318 236.707 40.5938 237.166 39.4732C237.625 38.3525 238.249 37.3973 239.039 36.6076C239.839 35.8178 240.768 35.2041 241.825 34.7666C242.892 34.329 244.028 34.1102 245.234 34.1102C245.949 34.1102 246.649 34.1956 247.332 34.3663C248.015 34.5371 248.66 34.7826 249.269 35.1027C249.888 35.4229 250.464 35.8178 250.998 36.2874C251.531 36.7463 252.001 37.2639 252.406 37.8403L244.21 47.7177ZM246.451 38.7047C246.248 38.63 246.046 38.582 245.843 38.5607C245.651 38.5393 245.448 38.5286 245.234 38.5286C244.637 38.5286 244.071 38.6407 243.537 38.8648C243.014 39.0783 242.556 39.3878 242.161 39.7933C241.776 40.1989 241.472 40.6898 241.248 41.2661C241.024 41.8318 240.912 42.4721 240.912 43.1872C240.912 43.3473 240.917 43.5287 240.928 43.7315C240.949 43.9343 240.976 44.1424 241.008 44.3559C241.051 44.5586 241.099 44.7561 241.152 44.9482C241.205 45.1403 241.275 45.3111 241.36 45.4605L246.451 38.7047Z" fill="url(#paint11_linear_1292_14467)"/>
<path d="M287.05 51.912H282.471V35.519C282.471 35.1988 282.407 34.9 282.279 34.6225C282.162 34.345 281.996 34.1049 281.783 33.9021C281.58 33.6886 281.34 33.5232 281.062 33.4058C280.785 33.2884 280.486 33.2297 280.166 33.2297C279.846 33.2297 279.547 33.2884 279.269 33.4058C278.992 33.5232 278.746 33.6886 278.533 33.9021C278.33 34.1049 278.17 34.345 278.053 34.6225C277.935 34.9 277.876 35.1988 277.876 35.519V51.912H273.282V35.519C273.282 35.1988 273.223 34.9 273.106 34.6225C272.988 34.345 272.823 34.1049 272.61 33.9021C272.407 33.6886 272.167 33.5232 271.889 33.4058C271.612 33.2884 271.313 33.2297 270.993 33.2297C270.672 33.2297 270.374 33.2884 270.096 33.4058C269.819 33.5232 269.573 33.6886 269.36 33.9021C269.157 34.1049 268.997 34.345 268.879 34.6225C268.762 34.9 268.703 35.1988 268.703 35.519V51.912H264.109V35.519C264.109 34.5691 264.285 33.6779 264.637 32.8455C265 32.0024 265.491 31.2713 266.11 30.6523C266.74 30.0226 267.471 29.5317 268.303 29.1795C269.146 28.8166 270.043 28.6352 270.993 28.6352C271.846 28.6352 272.668 28.7899 273.458 29.0994C274.248 29.3982 274.958 29.8358 275.587 30.4121C276.217 29.8358 276.921 29.3982 277.7 29.0994C278.49 28.7899 279.312 28.6352 280.166 28.6352C281.116 28.6352 282.007 28.8166 282.839 29.1795C283.682 29.5317 284.413 30.0226 285.032 30.6523C285.662 31.2713 286.153 32.0024 286.505 32.8455C286.868 33.6779 287.05 34.5691 287.05 35.519V51.912Z" fill="url(#paint12_linear_1292_14467)"/>
<path d="M307.109 51.912H306.052L304.355 49.5587C303.939 49.9323 303.496 50.2845 303.026 50.6153C302.568 50.9355 302.082 51.2183 301.57 51.4638C301.057 51.6986 300.529 51.8854 299.985 52.0241C299.451 52.1628 298.907 52.2322 298.352 52.2322C297.146 52.2322 296.009 52.0294 294.942 51.6239C293.885 51.2183 292.957 50.6313 292.156 49.8629C291.367 49.0838 290.742 48.1339 290.283 47.0133C289.824 45.8927 289.595 44.6173 289.595 43.1872C289.595 41.8531 289.824 40.6311 290.283 39.5212C290.742 38.4006 291.367 37.44 292.156 36.6396C292.957 35.8391 293.885 35.2201 294.942 34.7826C296.009 34.3343 297.146 34.1102 298.352 34.1102C298.907 34.1102 299.456 34.1796 300.001 34.3183C300.545 34.457 301.073 34.6492 301.586 34.8946C302.098 35.1401 302.583 35.4283 303.042 35.7591C303.512 36.09 303.95 36.4475 304.355 36.8317L306.052 34.7986H307.109V51.912ZM302.706 43.1872C302.706 42.5895 302.589 42.0132 302.354 41.4583C302.13 40.8926 301.82 40.3963 301.426 39.9694C301.031 39.5319 300.566 39.185 300.033 38.9289C299.51 38.662 298.949 38.5286 298.352 38.5286C297.754 38.5286 297.189 38.63 296.655 38.8328C296.132 39.0356 295.673 39.3344 295.278 39.7293C294.894 40.1242 294.59 40.6151 294.366 41.2021C294.141 41.7784 294.029 42.4401 294.029 43.1872C294.029 43.9343 294.141 44.6013 294.366 45.1883C294.59 45.7646 294.894 46.2502 295.278 46.6451C295.673 47.04 296.132 47.3388 296.655 47.5416C297.189 47.7444 297.754 47.8458 298.352 47.8458C298.949 47.8458 299.51 47.7177 300.033 47.4616C300.566 47.1948 301.031 46.8479 301.426 46.421C301.82 45.9834 302.13 45.4872 302.354 44.9322C302.589 44.3665 302.706 43.7849 302.706 43.1872Z" fill="url(#paint13_linear_1292_14467)"/>
<path d="M314.857 59.0001H310.455V34.7666H311.511L313.256 36.8317C313.651 36.4582 314.083 36.106 314.553 35.7751C315.022 35.4443 315.508 35.1614 316.01 34.9266C316.522 34.6812 317.05 34.4891 317.594 34.3503C318.139 34.2116 318.688 34.1422 319.243 34.1422C320.449 34.1422 321.581 34.361 322.637 34.7986C323.705 35.2255 324.633 35.8338 325.423 36.6236C326.223 37.4133 326.853 38.3685 327.312 39.4892C327.771 40.5991 328 41.8318 328 43.1872C328 44.596 327.771 45.866 327.312 46.9973C326.853 48.1179 326.223 49.0731 325.423 49.8629C324.633 50.642 323.705 51.2397 322.637 51.6559C321.581 52.0721 320.449 52.2802 319.243 52.2802C318.859 52.2802 318.475 52.2376 318.091 52.1522C317.717 52.0668 317.344 51.9547 316.97 51.816C316.607 51.6666 316.244 51.5011 315.882 51.3197C315.529 51.1383 315.188 50.9515 314.857 50.7594V59.0001ZM323.614 43.1872C323.614 42.4615 323.496 41.8104 323.262 41.2341C323.038 40.6578 322.728 40.1722 322.333 39.7773C321.938 39.3718 321.474 39.0623 320.94 38.8488C320.407 38.6354 319.841 38.5286 319.243 38.5286C318.646 38.5286 318.08 38.6354 317.546 38.8488C317.023 39.0623 316.565 39.3718 316.17 39.7773C315.775 40.1722 315.46 40.6578 315.225 41.2341C315.001 41.8104 314.889 42.4615 314.889 43.1872C314.889 43.8809 315.001 44.5159 315.225 45.0923C315.46 45.6686 315.775 46.1595 316.17 46.5651C316.565 46.9706 317.023 47.2855 317.546 47.5096C318.08 47.7337 318.646 47.8458 319.243 47.8458C319.841 47.8458 320.407 47.7337 320.94 47.5096C321.474 47.2855 321.938 46.9706 322.333 46.5651C322.728 46.1595 323.038 45.6686 323.262 45.0923C323.496 44.5159 323.614 43.8809 323.614 43.1872Z" fill="url(#paint14_linear_1292_14467)"/>
<defs>
<linearGradient id="paint0_linear_1292_14467" x1="61.4746" y1="2.00257e-06" x2="5.60748" y2="51.1111" gradientUnits="userSpaceOnUse">
<stop stop-color="#A8F8A0"/>
<stop offset="1" stop-color="#83D9F5"/>
</linearGradient>
<linearGradient id="paint1_linear_1292_14467" x1="328" y1="27.9468" x2="315.655" y2="103.368" gradientUnits="userSpaceOnUse">
<stop stop-color="#A8F8A0"/>
<stop offset="1" stop-color="#83D9F5"/>
</linearGradient>
<linearGradient id="paint2_linear_1292_14467" x1="328" y1="27.9468" x2="315.655" y2="103.368" gradientUnits="userSpaceOnUse">
<stop stop-color="#A8F8A0"/>
<stop offset="1" stop-color="#83D9F5"/>
</linearGradient>
<linearGradient id="paint3_linear_1292_14467" x1="328" y1="27.9468" x2="315.655" y2="103.368" gradientUnits="userSpaceOnUse">
<stop stop-color="#A8F8A0"/>
<stop offset="1" stop-color="#83D9F5"/>
</linearGradient>
<linearGradient id="paint4_linear_1292_14467" x1="328" y1="27.9468" x2="315.655" y2="103.368" gradientUnits="userSpaceOnUse">
<stop stop-color="#A8F8A0"/>
<stop offset="1" stop-color="#83D9F5"/>
</linearGradient>
<linearGradient id="paint5_linear_1292_14467" x1="328" y1="27.9468" x2="315.655" y2="103.368" gradientUnits="userSpaceOnUse">
<stop stop-color="#A8F8A0"/>
<stop offset="1" stop-color="#83D9F5"/>
</linearGradient>
<linearGradient id="paint6_linear_1292_14467" x1="328" y1="27.9468" x2="315.655" y2="103.368" gradientUnits="userSpaceOnUse">
<stop stop-color="#A8F8A0"/>
<stop offset="1" stop-color="#83D9F5"/>
</linearGradient>
<linearGradient id="paint7_linear_1292_14467" x1="328" y1="27.9468" x2="315.655" y2="103.368" gradientUnits="userSpaceOnUse">
<stop stop-color="#A8F8A0"/>
<stop offset="1" stop-color="#83D9F5"/>
</linearGradient>
<linearGradient id="paint8_linear_1292_14467" x1="328" y1="27.9468" x2="315.655" y2="103.368" gradientUnits="userSpaceOnUse">
<stop stop-color="#A8F8A0"/>
<stop offset="1" stop-color="#83D9F5"/>
</linearGradient>
<linearGradient id="paint9_linear_1292_14467" x1="328" y1="27.9468" x2="315.655" y2="103.368" gradientUnits="userSpaceOnUse">
<stop stop-color="#A8F8A0"/>
<stop offset="1" stop-color="#83D9F5"/>
</linearGradient>
<linearGradient id="paint10_linear_1292_14467" x1="328" y1="27.9468" x2="315.655" y2="103.368" gradientUnits="userSpaceOnUse">
<stop stop-color="#A8F8A0"/>
<stop offset="1" stop-color="#83D9F5"/>
</linearGradient>
<linearGradient id="paint11_linear_1292_14467" x1="328" y1="27.9468" x2="315.655" y2="103.368" gradientUnits="userSpaceOnUse">
<stop stop-color="#A8F8A0"/>
<stop offset="1" stop-color="#83D9F5"/>
</linearGradient>
<linearGradient id="paint12_linear_1292_14467" x1="328" y1="27.9468" x2="315.655" y2="103.368" gradientUnits="userSpaceOnUse">
<stop stop-color="#A8F8A0"/>
<stop offset="1" stop-color="#83D9F5"/>
</linearGradient>
<linearGradient id="paint13_linear_1292_14467" x1="328" y1="27.9468" x2="315.655" y2="103.368" gradientUnits="userSpaceOnUse">
<stop stop-color="#A8F8A0"/>
<stop offset="1" stop-color="#83D9F5"/>
</linearGradient>
<linearGradient id="paint14_linear_1292_14467" x1="328" y1="27.9468" x2="315.655" y2="103.368" gradientUnits="userSpaceOnUse">
<stop stop-color="#A8F8A0"/>
<stop offset="1" stop-color="#83D9F5"/>
</linearGradient>
</defs>
</svg>