<svg width="219" height="40" viewBox="0 0 219 40" fill="none" xmlns="http://www.w3.org/2000/svg">
<g opacity="0.7">
<path fill-rule="evenodd" clip-rule="evenodd" d="M26.2404 9.30691C25.7315 9.50341 25.1784 9.61115 24.6001 9.61115C23.7244 9.61115 22.9065 9.36409 22.2121 8.93587L14.3402 16.0206C15.6219 17.4675 16.4001 19.3707 16.4001 21.4556C16.4001 25.9844 12.7288 29.6557 8.20004 29.6557C3.67128 29.6557 0 25.9844 0 21.4556C0 16.9269 3.67128 13.2556 8.20004 13.2556C9.91855 13.2556 11.5136 13.7843 12.8314 14.6878L20.7782 7.53571C20.3141 6.82205 20.0445 5.97029 20.0445 5.05558C20.0445 2.5396 22.0841 0.5 24.6001 0.5C27.1161 0.5 29.1557 2.5396 29.1557 5.05558C29.1557 6.27077 28.6799 7.37484 27.9044 8.19164L34 18.5L32.2785 19.518L26.2404 9.30691ZM38 30.5C39.6569 30.5 41 29.1569 41 27.5C41 25.8431 39.6569 24.5 38 24.5C36.3431 24.5 35 25.8431 35 27.5C35 29.1569 36.3431 30.5 38 30.5Z" fill="white"/>
<path d="M42.8011 33.5528C42.0892 34.165 41.292 34.6347 40.4094 34.9622C39.5267 35.2896 38.6121 35.4533 37.6654 35.4533C36.9393 35.4533 36.2382 35.3572 35.562 35.165C34.8929 34.98 34.2629 34.7166 33.6721 34.3749C33.0884 34.0262 32.5546 33.6097 32.0705 33.1257C31.5865 32.6417 31.1701 32.1078 30.8213 31.5241C30.4796 30.9333 30.2127 30.3034 30.0205 29.6343C29.8355 28.9581 29.7429 28.2569 29.7429 27.5309C29.7429 26.8049 29.8355 26.1037 30.0205 25.4275C30.2127 24.7513 30.4796 24.1213 30.8213 23.5376C31.1701 22.9468 31.5865 22.4094 32.0705 21.9254C32.5546 21.4414 33.0884 21.0285 33.6721 20.6869C34.2629 20.3381 34.8929 20.0711 35.562 19.8861C36.2382 19.6939 36.9393 19.5978 37.6654 19.5978C38.6121 19.5978 39.5267 19.7615 40.4094 20.0889C41.292 20.4093 42.0892 20.879 42.8011 21.4983L41.1781 24.1676C40.7297 23.6836 40.1994 23.3134 39.5872 23.0572C38.9751 22.7938 38.3345 22.6621 37.6654 22.6621C36.9891 22.6621 36.3556 22.7903 35.7648 23.0465C35.174 23.3028 34.658 23.6515 34.2166 24.0929C33.7753 24.5271 33.4265 25.0431 33.1703 25.641C32.914 26.2318 32.7859 26.8618 32.7859 27.5309C32.7859 28.2 32.914 28.8299 33.1703 29.4207C33.4265 30.0044 33.7753 30.5169 34.2166 30.9583C34.658 31.3996 35.174 31.7484 35.7648 32.0046C36.3556 32.2609 36.9891 32.389 37.6654 32.389C38.3345 32.389 38.9751 32.2609 39.5872 32.0046C40.1994 31.7412 40.7297 31.3675 41.1781 30.8835L42.8011 33.5528Z" fill="#F2F2F2"/>
<path d="M47.1894 35.1223H44.2745V23.6871H44.9792L45.9401 25.0431C46.4099 24.616 46.9438 24.2886 47.5417 24.0608C48.1396 23.8259 48.7589 23.7085 49.3995 23.7085H51.9727V26.6127H49.3995C49.0934 26.6127 48.8052 26.6696 48.5347 26.7835C48.2642 26.8974 48.0293 27.054 47.83 27.2533C47.6307 27.4526 47.4741 27.6875 47.3602 27.958C47.2463 28.2285 47.1894 28.5168 47.1894 28.8228V35.1223Z" fill="#F2F2F2"/>
<path d="M55.998 39.4786V36.5424L57.6209 36.5637C57.9056 36.5637 58.1797 36.5175 58.443 36.4249C58.7064 36.3324 58.9484 36.2043 59.1691 36.0406C59.3969 35.8769 59.5962 35.6811 59.767 35.4533C59.9378 35.2327 60.0766 34.9907 60.1834 34.7273C59.8631 34.8625 59.5357 34.9978 59.2011 35.133C58.8737 35.2683 58.5427 35.3359 58.2082 35.3359C57.5035 35.3359 56.8415 35.2113 56.2222 34.9622C55.6029 34.713 55.0584 34.3607 54.5886 33.9051C54.1259 33.4425 53.7593 32.8837 53.4889 32.2288C53.2255 31.5669 53.0938 30.8266 53.0938 30.008V23.6871H55.998V30.008C55.998 30.4137 56.0549 30.7696 56.1688 31.0757C56.2898 31.3747 56.45 31.6274 56.6493 31.8338C56.8486 32.0331 57.0799 32.1826 57.3433 32.2822C57.6138 32.3819 57.9021 32.4317 58.2082 32.4317C58.5071 32.4317 58.7883 32.3641 59.0516 32.2288C59.3221 32.0865 59.557 31.9014 59.7563 31.6736C59.9556 31.4458 60.1122 31.1896 60.2261 30.9049C60.34 30.613 60.397 30.3141 60.397 30.008V23.6871H63.3332V33.6809C63.3261 34.4853 63.1695 35.2398 62.8634 35.9445C62.5573 36.6492 62.1373 37.2649 61.6035 37.7916C61.0767 38.3184 60.461 38.7348 59.7563 39.0408C59.0516 39.3469 58.2971 39.5 57.4928 39.5L55.998 39.4786Z" fill="#F2F2F2"/>
<path d="M68.5009 39.4786H65.5647V23.6871H66.2694L67.4332 25.0645C67.6966 24.8153 67.9848 24.5804 68.298 24.3598C68.6112 24.1391 68.9351 23.9505 69.2697 23.7939C69.6113 23.6302 69.9637 23.5021 70.3267 23.4095C70.6897 23.317 71.0563 23.2707 71.4264 23.2707C72.2308 23.2707 72.9853 23.4166 73.69 23.7085C74.4018 23.9932 75.0211 24.3989 75.5478 24.9257C76.0817 25.4524 76.5016 26.0895 76.8077 26.8369C77.1138 27.5772 77.2668 28.3993 77.2668 29.3033C77.2668 30.2429 77.1138 31.0899 76.8077 31.8445C76.5016 32.5919 76.0817 33.2289 75.5478 33.7557C75.0211 34.2753 74.4018 34.6739 73.69 34.9515C72.9853 35.2291 72.2308 35.3679 71.4264 35.3679C71.1702 35.3679 70.9139 35.3394 70.6577 35.2825C70.4086 35.2255 70.1594 35.1508 69.9103 35.0583C69.6683 34.9586 69.4263 34.8483 69.1842 34.7273C68.9493 34.6063 68.7216 34.4817 68.5009 34.3536V39.4786ZM74.3413 29.3033C74.3413 28.8193 74.263 28.3851 74.1064 28.0007C73.9569 27.6163 73.7505 27.2924 73.4871 27.0291C73.2238 26.7586 72.9141 26.5522 72.5582 26.4098C72.2023 26.2674 71.8251 26.1963 71.4264 26.1963C71.0278 26.1963 70.6506 26.2674 70.2947 26.4098C69.9459 26.5522 69.6398 26.7586 69.3764 27.0291C69.1131 27.2924 68.9031 27.6163 68.7465 28.0007C68.597 28.3851 68.5223 28.8193 68.5223 29.3033C68.5223 29.766 68.597 30.1895 68.7465 30.5739C68.9031 30.9583 69.1131 31.2857 69.3764 31.5562C69.6398 31.8267 69.9459 32.0366 70.2947 32.1861C70.6506 32.3356 71.0278 32.4103 71.4264 32.4103C71.8251 32.4103 72.2023 32.3356 72.5582 32.1861C72.9141 32.0366 73.2238 31.8267 73.4871 31.5562C73.7505 31.2857 73.9569 30.9583 74.1064 30.5739C74.263 30.1895 74.3413 29.766 74.3413 29.3033Z" fill="#F2F2F2"/>
<path d="M84.538 35.1223C83.8333 35.1223 83.1713 34.9907 82.552 34.7273C81.9327 34.4568 81.3882 34.0902 80.9184 33.6275C80.4557 33.1577 80.0891 32.6132 79.8187 31.9939C79.5553 31.3747 79.4236 30.7127 79.4236 30.008V26.6127H78.0036V23.7085H79.4236V19.1387H82.3278V23.7085H86.7481V26.6127H82.3278V30.008C82.3278 30.3141 82.3847 30.6024 82.4986 30.8728C82.6125 31.1362 82.7691 31.3675 82.9684 31.5669C83.1677 31.7662 83.4026 31.9263 83.6731 32.0473C83.9436 32.1612 84.2319 32.2182 84.538 32.2182H86.7481V35.1223H84.538Z" fill="#F2F2F2"/>
<path d="M99.4432 29.3033C99.4432 30.1575 99.2902 30.9547 98.9841 31.695C98.678 32.4281 98.2616 33.0652 97.7349 33.6062C97.2082 34.14 96.5889 34.5636 95.8771 34.8768C95.1724 35.1828 94.4143 35.3359 93.6028 35.3359C92.7985 35.3359 92.0404 35.1828 91.3286 34.8768C90.6239 34.5636 90.0046 34.14 89.4708 33.6062C88.944 33.0652 88.5276 32.4281 88.2216 31.695C87.9155 30.9547 87.7624 30.1575 87.7624 29.3033C87.7624 28.4349 87.9155 27.6306 88.2216 26.8903C88.5276 26.15 88.944 25.5129 89.4708 24.9791C90.0046 24.4381 90.6239 24.0146 91.3286 23.7085C92.0404 23.4024 92.7985 23.2494 93.6028 23.2494C94.4143 23.2494 95.1724 23.3953 95.8771 23.6871C96.5889 23.9719 97.2082 24.3811 97.7349 24.915C98.2616 25.4417 98.678 26.0788 98.9841 26.8262C99.2902 27.5665 99.4432 28.3922 99.4432 29.3033ZM96.507 29.3033C96.507 28.8335 96.4287 28.41 96.2721 28.0327C96.1226 27.6483 95.9162 27.3209 95.6528 27.0504C95.3895 26.7728 95.0798 26.5628 94.7239 26.4205C94.3752 26.271 94.0014 26.1963 93.6028 26.1963C93.2042 26.1963 92.827 26.271 92.4711 26.4205C92.1223 26.5628 91.8162 26.7728 91.5528 27.0504C91.2966 27.3209 91.0937 27.6483 90.9442 28.0327C90.7948 28.41 90.72 28.8335 90.72 29.3033C90.72 29.7446 90.7948 30.1539 90.9442 30.5312C91.0937 30.9084 91.2966 31.2359 91.5528 31.5135C91.8162 31.7911 92.1223 32.0117 92.4711 32.1754C92.827 32.332 93.2042 32.4103 93.6028 32.4103C94.0014 32.4103 94.3752 32.3356 94.7239 32.1861C95.0798 32.0366 95.3895 31.8267 95.6528 31.5562C95.9162 31.2857 96.1226 30.9583 96.2721 30.5739C96.4287 30.1895 96.507 29.766 96.507 29.3033Z" fill="#F2F2F2"/>
<path d="M106.597 24.4025C106.597 23.769 106.718 23.1746 106.96 22.6194C107.202 22.0642 107.529 21.5802 107.942 21.1673C108.362 20.7474 108.85 20.4164 109.405 20.1744C109.96 19.9323 110.555 19.8113 111.188 19.8113H118.214V22.8757H111.188C110.975 22.8757 110.775 22.9148 110.59 22.9931C110.405 23.0714 110.241 23.1817 110.099 23.3241C109.964 23.4594 109.857 23.6195 109.779 23.8046C109.7 23.9896 109.661 24.189 109.661 24.4025C109.661 24.616 109.7 24.8189 109.779 25.0111C109.857 25.1962 109.964 25.3599 110.099 25.5022C110.241 25.6375 110.405 25.7443 110.59 25.8226C110.775 25.9009 110.975 25.94 111.188 25.94H114.252C114.886 25.94 115.48 26.061 116.035 26.303C116.598 26.5379 117.085 26.8654 117.498 27.2853C117.918 27.6982 118.246 28.1858 118.481 28.7481C118.723 29.3033 118.844 29.8977 118.844 30.5312C118.844 31.1647 118.723 31.759 118.481 32.3143C118.246 32.8695 117.918 33.3571 117.498 33.777C117.085 34.1899 116.598 34.5173 116.035 34.7593C115.48 35.0013 114.886 35.1223 114.252 35.1223H107.451V32.058H114.252C114.466 32.058 114.665 32.0189 114.85 31.9406C115.035 31.8623 115.196 31.7555 115.331 31.6202C115.473 31.4779 115.583 31.3142 115.662 31.1291C115.74 30.944 115.779 30.7447 115.779 30.5312C115.779 30.3176 115.74 30.1183 115.662 29.9333C115.583 29.7482 115.473 29.588 115.331 29.4528C115.196 29.3104 115.035 29.2001 114.85 29.1218C114.665 29.0435 114.466 29.0043 114.252 29.0043H111.188C110.555 29.0043 109.96 28.8833 109.405 28.6413C108.85 28.3993 108.362 28.0719 107.942 27.659C107.529 27.2391 107.202 26.7515 106.96 26.1963C106.718 25.6339 106.597 25.036 106.597 24.4025Z" fill="#F2F2F2"/>
<path d="M123.381 39.4786H120.445V23.6871H121.15L122.314 25.0645C122.577 24.8153 122.865 24.5804 123.178 24.3598C123.492 24.1391 123.816 23.9505 124.15 23.7939C124.492 23.6302 124.844 23.5021 125.207 23.4095C125.57 23.317 125.937 23.2707 126.307 23.2707C127.111 23.2707 127.866 23.4166 128.57 23.7085C129.282 23.9932 129.902 24.3989 130.428 24.9257C130.962 25.4524 131.382 26.0895 131.688 26.8369C131.994 27.5772 132.147 28.3993 132.147 29.3033C132.147 30.2429 131.994 31.0899 131.688 31.8445C131.382 32.5919 130.962 33.2289 130.428 33.7557C129.902 34.2753 129.282 34.6739 128.57 34.9515C127.866 35.2291 127.111 35.3679 126.307 35.3679C126.051 35.3679 125.794 35.3394 125.538 35.2825C125.289 35.2255 125.04 35.1508 124.791 35.0583C124.549 34.9586 124.307 34.8483 124.065 34.7273C123.83 34.6063 123.602 34.4817 123.381 34.3536V39.4786ZM129.222 29.3033C129.222 28.8193 129.143 28.3851 128.987 28.0007C128.837 27.6163 128.631 27.2924 128.368 27.0291C128.104 26.7586 127.795 26.5522 127.439 26.4098C127.083 26.2674 126.706 26.1963 126.307 26.1963C125.908 26.1963 125.531 26.2674 125.175 26.4098C124.826 26.5522 124.52 26.7586 124.257 27.0291C123.994 27.2924 123.784 27.6163 123.627 28.0007C123.477 28.3851 123.403 28.8193 123.403 29.3033C123.403 29.766 123.477 30.1895 123.627 30.5739C123.784 30.9583 123.994 31.2857 124.257 31.5562C124.52 31.8267 124.826 32.0366 125.175 32.1861C125.531 32.3356 125.908 32.4103 126.307 32.4103C126.706 32.4103 127.083 32.3356 127.439 32.1861C127.795 32.0366 128.104 31.8267 128.368 31.5562C128.631 31.2857 128.837 30.9583 128.987 30.5739C129.143 30.1895 129.222 29.766 129.222 29.3033Z" fill="#F2F2F2"/>
<path d="M144.842 35.1223H144.138L143.006 33.5528C142.728 33.8019 142.433 34.0368 142.12 34.2575C141.814 34.471 141.49 34.6597 141.148 34.8234C140.806 34.98 140.454 35.1045 140.091 35.1971C139.735 35.2896 139.372 35.3359 139.002 35.3359C138.198 35.3359 137.44 35.2006 136.728 34.9301C136.023 34.6597 135.404 34.2682 134.87 33.7557C134.343 33.236 133.927 32.6025 133.621 31.8551C133.315 31.1077 133.162 30.2571 133.162 29.3033C133.162 28.4135 133.315 27.5985 133.621 26.8582C133.927 26.1108 134.343 25.4702 134.87 24.9364C135.404 24.4025 136.023 23.9896 136.728 23.6978C137.44 23.3988 138.198 23.2494 139.002 23.2494C139.372 23.2494 139.739 23.2956 140.102 23.3882C140.465 23.4807 140.817 23.6088 141.159 23.7725C141.5 23.9363 141.824 24.1285 142.13 24.3491C142.444 24.5698 142.735 24.8082 143.006 25.0645L144.138 23.7085H144.842V35.1223ZM141.906 29.3033C141.906 28.9047 141.828 28.5203 141.671 28.1502C141.522 27.7729 141.315 27.4419 141.052 27.1572C140.789 26.8654 140.479 26.634 140.123 26.4632C139.774 26.2852 139.401 26.1963 139.002 26.1963C138.603 26.1963 138.226 26.2639 137.87 26.3991C137.521 26.5344 137.215 26.7337 136.952 26.997C136.696 27.2604 136.493 27.5878 136.343 27.9793C136.194 28.3637 136.119 28.805 136.119 29.3033C136.119 29.8016 136.194 30.2464 136.343 30.6379C136.493 31.0223 136.696 31.3462 136.952 31.6096C137.215 31.8729 137.521 32.0722 137.87 32.2075C138.226 32.3427 138.603 32.4103 139.002 32.4103C139.401 32.4103 139.774 32.3249 140.123 32.1541C140.479 31.9761 140.789 31.7448 141.052 31.4601C141.315 31.1682 141.522 30.8372 141.671 30.4671C141.828 30.0898 141.906 29.7019 141.906 29.3033Z" fill="#F2F2F2"/>
<path d="M157.068 25.9614L154.932 28.1075C154.826 27.8085 154.68 27.5416 154.495 27.3067C154.309 27.0647 154.099 26.8618 153.865 26.6981C153.637 26.5344 153.388 26.4098 153.117 26.3244C152.847 26.239 152.569 26.1963 152.284 26.1963C151.886 26.1963 151.508 26.2781 151.153 26.4418C150.804 26.6055 150.498 26.8369 150.234 27.1358C149.978 27.4277 149.775 27.7765 149.626 28.1822C149.476 28.5879 149.402 29.0364 149.402 29.5275C149.402 29.9261 149.476 30.2998 149.626 30.6486C149.775 30.9974 149.978 31.3035 150.234 31.5669C150.498 31.8302 150.804 32.0366 151.153 32.1861C151.508 32.3356 151.886 32.4103 152.284 32.4103C152.569 32.4103 152.843 32.3712 153.106 32.2929C153.37 32.2146 153.615 32.1043 153.843 31.9619C154.078 31.8124 154.285 31.6345 154.462 31.428C154.648 31.2145 154.797 30.9796 154.911 30.7234L157.046 32.8695C156.776 33.2538 156.463 33.5991 156.107 33.9051C155.758 34.2112 155.377 34.471 154.964 34.6846C154.559 34.8981 154.128 35.0583 153.672 35.165C153.224 35.2789 152.761 35.3359 152.284 35.3359C151.48 35.3359 150.722 35.1864 150.01 34.8874C149.305 34.5814 148.686 34.165 148.152 33.6382C147.626 33.1115 147.209 32.4958 146.903 31.7911C146.597 31.0864 146.444 30.3319 146.444 29.5275C146.444 28.652 146.597 27.8334 146.903 27.0718C147.209 26.3101 147.626 25.6482 148.152 25.0858C148.686 24.5164 149.305 24.0679 150.01 23.7405C150.722 23.4131 151.48 23.2494 152.284 23.2494C152.761 23.2494 153.228 23.3099 153.683 23.4309C154.146 23.5519 154.583 23.7298 154.996 23.9647C155.416 24.1925 155.801 24.4737 156.149 24.8082C156.505 25.1428 156.811 25.5272 157.068 25.9614Z" fill="#F2F2F2"/>
<path d="M162.876 32.3249C162.99 32.3605 163.104 32.3854 163.218 32.3997C163.332 32.4068 163.446 32.4103 163.559 32.4103C163.844 32.4103 164.118 32.3712 164.382 32.2929C164.645 32.2146 164.89 32.1043 165.118 31.9619C165.353 31.8124 165.56 31.6345 165.738 31.428C165.923 31.2145 166.072 30.9796 166.186 30.7234L168.321 32.8695C168.051 33.2538 167.738 33.5991 167.382 33.9051C167.033 34.2112 166.652 34.471 166.239 34.6846C165.834 34.8981 165.403 35.0583 164.947 35.165C164.499 35.2789 164.036 35.3359 163.559 35.3359C162.755 35.3359 161.997 35.1864 161.285 34.8874C160.58 34.5885 159.961 34.1721 159.427 33.6382C158.901 33.1044 158.484 32.4708 158.178 31.7377C157.872 30.9974 157.719 30.1859 157.719 29.3033C157.719 28.3993 157.872 27.5736 158.178 26.8262C158.484 26.0788 158.901 25.4417 159.427 24.915C159.961 24.3883 160.58 23.979 161.285 23.6871C161.997 23.3953 162.755 23.2494 163.559 23.2494C164.036 23.2494 164.503 23.3063 164.958 23.4202C165.414 23.5341 165.844 23.6978 166.25 23.9113C166.663 24.1249 167.047 24.3883 167.403 24.7015C167.759 25.0075 168.072 25.3528 168.343 25.7371L162.876 32.3249ZM164.371 26.3137C164.236 26.2639 164.1 26.2318 163.965 26.2176C163.837 26.2034 163.702 26.1963 163.559 26.1963C163.161 26.1963 162.784 26.271 162.428 26.4205C162.079 26.5628 161.773 26.7693 161.509 27.0397C161.253 27.3102 161.05 27.6377 160.901 28.022C160.751 28.3993 160.677 28.8264 160.677 29.3033C160.677 29.4101 160.68 29.5311 160.687 29.6663C160.701 29.8016 160.719 29.9404 160.741 30.0827C160.769 30.218 160.801 30.3497 160.837 30.4778C160.872 30.6059 160.919 30.7198 160.976 30.8195L164.371 26.3137Z" fill="#F2F2F2"/>
<path d="M191.448 35.1223H188.394V24.189C188.394 23.9754 188.352 23.7761 188.266 23.591C188.188 23.406 188.078 23.2458 187.935 23.1106C187.8 22.9682 187.64 22.8579 187.455 22.7796C187.27 22.7013 187.07 22.6621 186.857 22.6621C186.643 22.6621 186.444 22.7013 186.259 22.7796C186.074 22.8579 185.91 22.9682 185.768 23.1106C185.633 23.2458 185.526 23.406 185.448 23.591C185.369 23.7761 185.33 23.9754 185.33 24.189V35.1223H182.266V24.189C182.266 23.9754 182.227 23.7761 182.148 23.591C182.07 23.406 181.96 23.2458 181.817 23.1106C181.682 22.9682 181.522 22.8579 181.337 22.7796C181.152 22.7013 180.952 22.6621 180.739 22.6621C180.525 22.6621 180.326 22.7013 180.141 22.7796C179.956 22.8579 179.792 22.9682 179.65 23.1106C179.515 23.2458 179.408 23.406 179.33 23.591C179.251 23.7761 179.212 23.9754 179.212 24.189V35.1223H176.148V24.189C176.148 23.5554 176.265 22.9611 176.5 22.4059C176.742 21.8435 177.07 21.356 177.482 20.9431C177.902 20.5231 178.39 20.1957 178.945 19.9608C179.507 19.7188 180.105 19.5978 180.739 19.5978C181.308 19.5978 181.856 19.701 182.383 19.9074C182.91 20.1067 183.383 20.3986 183.803 20.783C184.223 20.3986 184.693 20.1067 185.213 19.9074C185.739 19.701 186.287 19.5978 186.857 19.5978C187.49 19.5978 188.085 19.7188 188.64 19.9608C189.202 20.1957 189.69 20.5231 190.103 20.9431C190.523 21.356 190.85 21.8435 191.085 22.4059C191.327 22.9611 191.448 23.5554 191.448 24.189V35.1223Z" fill="#F2F2F2"/>
<path d="M204.827 35.1223H204.122L202.99 33.5528C202.712 33.8019 202.417 34.0368 202.104 34.2575C201.798 34.471 201.474 34.6597 201.132 34.8234C200.791 34.98 200.438 35.1045 200.075 35.1971C199.719 35.2896 199.356 35.3359 198.986 35.3359C198.182 35.3359 197.424 35.2006 196.712 34.9301C196.007 34.6597 195.388 34.2682 194.854 33.7557C194.327 33.236 193.911 32.6025 193.605 31.8551C193.299 31.1077 193.146 30.2571 193.146 29.3033C193.146 28.4135 193.299 27.5985 193.605 26.8582C193.911 26.1108 194.327 25.4702 194.854 24.9364C195.388 24.4025 196.007 23.9896 196.712 23.6978C197.424 23.3988 198.182 23.2494 198.986 23.2494C199.356 23.2494 199.723 23.2956 200.086 23.3882C200.449 23.4807 200.801 23.6088 201.143 23.7725C201.485 23.9363 201.808 24.1285 202.115 24.3491C202.428 24.5698 202.72 24.8082 202.99 25.0645L204.122 23.7085H204.827V35.1223ZM201.89 29.3033C201.89 28.9047 201.812 28.5203 201.655 28.1502C201.506 27.7729 201.299 27.4419 201.036 27.1572C200.773 26.8654 200.463 26.634 200.107 26.4632C199.758 26.2852 199.385 26.1963 198.986 26.1963C198.588 26.1963 198.21 26.2639 197.854 26.3991C197.506 26.5344 197.199 26.7337 196.936 26.997C196.68 27.2604 196.477 27.5878 196.328 27.9793C196.178 28.3637 196.103 28.805 196.103 29.3033C196.103 29.8016 196.178 30.2464 196.328 30.6379C196.477 31.0223 196.68 31.3462 196.936 31.6096C197.199 31.8729 197.506 32.0722 197.854 32.2075C198.21 32.3427 198.588 32.4103 198.986 32.4103C199.385 32.4103 199.758 32.3249 200.107 32.1541C200.463 31.9761 200.773 31.7448 201.036 31.4601C201.299 31.1682 201.506 30.8372 201.655 30.4671C201.812 30.0898 201.89 29.7019 201.89 29.3033Z" fill="#F2F2F2"/>
<path d="M209.994 39.4786H207.058V23.6871H207.763L208.927 25.0645C209.19 24.8153 209.478 24.5804 209.791 24.3598C210.105 24.1391 210.428 23.9505 210.763 23.7939C211.105 23.6302 211.457 23.5021 211.82 23.4095C212.183 23.317 212.55 23.2707 212.92 23.2707C213.724 23.2707 214.479 23.4166 215.183 23.7085C215.895 23.9932 216.514 24.3989 217.041 24.9257C217.575 25.4524 217.995 26.0895 218.301 26.8369C218.607 27.5772 218.76 28.3993 218.76 29.3033C218.76 30.2429 218.607 31.0899 218.301 31.8445C217.995 32.5919 217.575 33.2289 217.041 33.7557C216.514 34.2753 215.895 34.6739 215.183 34.9515C214.479 35.2291 213.724 35.3679 212.92 35.3679C212.664 35.3679 212.407 35.3394 212.151 35.2825C211.902 35.2255 211.653 35.1508 211.404 35.0583C211.162 34.9586 210.92 34.8483 210.678 34.7273C210.443 34.6063 210.215 34.4817 209.994 34.3536V39.4786ZM215.835 29.3033C215.835 28.8193 215.756 28.3851 215.6 28.0007C215.45 27.6163 215.244 27.2924 214.98 27.0291C214.717 26.7586 214.407 26.5522 214.052 26.4098C213.696 26.2674 213.318 26.1963 212.92 26.1963C212.521 26.1963 212.144 26.2674 211.788 26.4098C211.439 26.5522 211.133 26.7586 210.87 27.0291C210.606 27.2924 210.396 27.6163 210.24 28.0007C210.09 28.3851 210.016 28.8193 210.016 29.3033C210.016 29.766 210.09 30.1895 210.24 30.5739C210.396 30.9583 210.606 31.2857 210.87 31.5562C211.133 31.8267 211.439 32.0366 211.788 32.1861C212.144 32.3356 212.521 32.4103 212.92 32.4103C213.318 32.4103 213.696 32.3356 214.052 32.1861C214.407 32.0366 214.717 31.8267 214.98 31.5562C215.244 31.2857 215.45 30.9583 215.6 30.5739C215.756 30.1895 215.835 29.766 215.835 29.3033Z" fill="#F2F2F2"/>
</g>
</svg>
