<svg width="138" height="127" viewBox="0 0 138 127" fill="none" xmlns="http://www.w3.org/2000/svg">
<path fill-rule="evenodd" clip-rule="evenodd" d="M37.3683 11.8431C36.4894 12.3136 35.4858 12.5803 34.42 12.5803C33.2148 12.5803 32.0889 12.2392 31.1332 11.6481L20.2969 21.4307C22.0611 23.4285 23.1322 26.0564 23.1322 28.9351C23.1322 35.1882 18.0786 40.2574 11.8447 40.2574C5.61074 40.2574 0.557129 35.1882 0.557129 28.9351C0.557129 22.682 5.61074 17.6129 11.8447 17.6129C14.4875 17.6129 16.9182 18.524 18.8416 20.0501L29.6113 10.3276C28.6986 9.23511 28.1492 7.82699 28.1492 6.29014C28.1492 2.81619 30.9567 0 34.42 0C37.8833 0 40.6909 2.81619 40.6909 6.29014C40.6909 7.96782 40.0361 9.49211 38.9689 10.6199L47.3596 24.8533L45.6395 25.8736L37.3683 11.8431ZM52.8657 41.4223C55.1464 41.4223 56.9953 39.5677 56.9953 37.28C56.9953 34.9923 55.1464 33.1378 52.8657 33.1378C50.585 33.1378 48.7361 34.9923 48.7361 37.28C48.7361 39.5677 50.585 41.4223 52.8657 41.4223Z" fill="url(#paint0_linear_2864_15818)"/>
<path d="M59.4737 45.638C58.4939 46.4832 57.3965 47.1319 56.1815 47.584C54.9665 48.0361 53.7074 48.2621 52.4043 48.2621C51.4048 48.2621 50.4397 48.1295 49.5089 47.8641C48.5879 47.6086 47.7207 47.2449 46.9075 46.7732C46.104 46.2916 45.3691 45.7166 44.7029 45.0483C44.0366 44.38 43.4634 43.6428 42.9833 42.8369C42.513 42.0212 42.1455 41.1513 41.881 40.2275C41.6262 39.2938 41.4988 38.3257 41.4988 37.3232C41.4988 36.3207 41.6262 35.3526 41.881 34.4189C42.1455 33.4852 42.513 32.6154 42.9833 31.8095C43.4634 30.9938 44.0366 30.2517 44.7029 29.5834C45.3691 28.9151 46.104 28.345 46.9075 27.8733C47.7207 27.3917 48.5879 27.0231 49.5089 26.7676C50.4397 26.5022 51.4048 26.3695 52.4043 26.3695C53.7074 26.3695 54.9665 26.5956 56.1815 27.0477C57.3965 27.49 58.4939 28.1386 59.4737 28.9937L57.2397 32.6793C56.6224 32.011 55.8924 31.4999 55.0498 31.1461C54.2071 30.7824 53.3253 30.6006 52.4043 30.6006C51.4734 30.6006 50.6014 30.7775 49.7881 31.1314C48.9749 31.4852 48.2645 31.9668 47.657 32.5761C47.0495 33.1756 46.5694 33.8882 46.2167 34.7138C45.8639 35.5295 45.6876 36.3993 45.6876 37.3232C45.6876 38.2471 45.8639 39.1169 46.2167 39.9326C46.5694 40.7386 47.0495 41.4462 47.657 42.0556C48.2645 42.6649 48.9749 43.1465 49.7881 43.5003C50.6014 43.8541 51.4734 44.031 52.4043 44.031C53.3253 44.031 54.2071 43.8541 55.0498 43.5003C55.8924 43.1367 56.6224 42.6207 57.2397 41.9524L59.4737 45.638Z" fill="url(#paint1_linear_2864_15818)"/>
<path d="M65.5143 47.8051H61.5019V32.0159H62.4719L63.7947 33.8882C64.4414 33.2985 65.1762 32.8464 65.9993 32.5319C66.8223 32.2076 67.6748 32.0454 68.5566 32.0454H72.0987V36.0554H68.5566C68.1353 36.0554 67.7385 36.134 67.3661 36.2912C66.9938 36.4485 66.6705 36.6647 66.3961 36.9399C66.1218 37.2151 65.9062 37.5394 65.7494 37.9129C65.5927 38.2864 65.5143 38.6844 65.5143 39.107V47.8051Z" fill="url(#paint2_linear_2864_15818)"/>
<path d="M77.6396 53.8201V49.7659L79.8736 49.7954C80.2655 49.7954 80.6427 49.7315 81.0053 49.6037C81.3678 49.4759 81.7009 49.299 82.0047 49.073C82.3182 48.8469 82.5926 48.5767 82.8277 48.2621C83.0629 47.9575 83.254 47.6233 83.4009 47.2597C82.96 47.4464 82.5093 47.6331 82.0488 47.8199C81.5981 48.0066 81.1424 48.1 80.6819 48.1C79.7119 48.1 78.8007 47.928 77.9482 47.584C77.0958 47.24 76.3462 46.7535 75.6995 46.1245C75.0626 45.4856 74.558 44.7141 74.1857 43.8099C73.8232 42.8959 73.6419 41.8737 73.6419 40.7435V32.0159H77.6396V40.7435C77.6396 41.3037 77.718 41.7951 77.8747 42.2177C78.0413 42.6305 78.2618 42.9794 78.5361 43.2644C78.8105 43.5396 79.1289 43.746 79.4914 43.8836C79.8638 44.0212 80.2606 44.09 80.6819 44.09C81.0935 44.09 81.4805 43.9966 81.843 43.8099C82.2153 43.6133 82.5387 43.3578 82.813 43.0433C83.0874 42.7288 83.3029 42.375 83.4597 41.9818C83.6165 41.5789 83.6949 41.1661 83.6949 40.7435V32.0159H87.7366V45.8149C87.7268 46.9255 87.5113 47.9673 87.09 48.9403C86.6686 49.9133 86.0905 50.7635 85.3557 51.4908C84.6306 52.2181 83.7831 52.793 82.813 53.2156C81.843 53.6382 80.8044 53.8496 79.6972 53.8496L77.6396 53.8201Z" fill="url(#paint3_linear_2864_15818)"/>
<path d="M94.8502 53.8201H90.8084V32.0159H91.7784L93.3804 33.9177C93.743 33.5737 94.1398 33.2494 94.5709 32.9447C95.002 32.64 95.4478 32.3796 95.9084 32.1633C96.3787 31.9373 96.8637 31.7604 97.3634 31.6326C97.8631 31.5048 98.3677 31.4409 98.8772 31.4409C99.9844 31.4409 101.023 31.6424 101.993 32.0454C102.973 32.4385 103.825 32.9987 104.55 33.726C105.285 34.4533 105.863 35.333 106.285 36.3649C106.706 37.3871 106.917 38.5223 106.917 39.7705C106.917 41.0678 106.706 42.2374 106.285 43.2792C105.863 44.3112 105.285 45.1908 104.55 45.9181C103.825 46.6356 102.973 47.1859 101.993 47.5693C101.023 47.9526 99.9844 48.1442 98.8772 48.1442C98.5245 48.1442 98.1717 48.1049 97.819 48.0263C97.4761 47.9476 97.1331 47.8444 96.7902 47.7167C96.4571 47.5791 96.1239 47.4267 95.7908 47.2597C95.4674 47.0926 95.1539 46.9206 94.8502 46.7437V53.8201ZM102.89 39.7705C102.89 39.1021 102.782 38.5026 102.566 37.9719C102.36 37.4411 102.076 36.994 101.714 36.6303C101.351 36.2568 100.925 35.9718 100.435 35.7752C99.9452 35.5787 99.4259 35.4804 98.8772 35.4804C98.3285 35.4804 97.8092 35.5787 97.3193 35.7752C96.8392 35.9718 96.4179 36.2568 96.0553 36.6303C95.6928 36.994 95.4038 37.4411 95.1882 37.9719C94.9824 38.5026 94.8795 39.1021 94.8795 39.7705C94.8795 40.4093 94.9824 40.9941 95.1882 41.5248C95.4038 42.0556 95.6928 42.5077 96.0553 42.8811C96.4179 43.2546 96.8392 43.5445 97.3193 43.7509C97.8092 43.9573 98.3285 44.0605 98.8772 44.0605C99.4259 44.0605 99.9452 43.9573 100.435 43.7509C100.925 43.5445 101.351 43.2546 101.714 42.8811C102.076 42.5077 102.36 42.0556 102.566 41.5248C102.782 40.9941 102.89 40.4093 102.89 39.7705Z" fill="url(#paint4_linear_2864_15818)"/>
<path d="M116.926 47.8051C115.956 47.8051 115.044 47.6233 114.192 47.2597C113.339 46.8862 112.59 46.38 111.943 45.7412C111.306 45.0925 110.802 44.3406 110.429 43.4856C110.067 42.6305 109.886 41.7165 109.886 40.7435V36.0554H107.931V32.0454H109.886V25.7356H113.883V32.0454H119.968V36.0554H113.883V40.7435C113.883 41.1661 113.962 41.5641 114.118 41.9376C114.275 42.3013 114.491 42.6207 114.765 42.8959C115.039 43.1711 115.363 43.3922 115.735 43.5593C116.107 43.7165 116.504 43.7952 116.926 43.7952H119.968V47.8051H116.926Z" fill="url(#paint5_linear_2864_15818)"/>
<path d="M137.443 39.7705C137.443 40.9499 137.232 42.0506 136.811 43.0728C136.39 44.0851 135.817 44.9647 135.091 45.7117C134.366 46.4488 133.514 47.0336 132.534 47.4661C131.564 47.8887 130.521 48.1 129.404 48.1C128.296 48.1 127.253 47.8887 126.273 47.4661C125.303 47.0336 124.451 46.4488 123.716 45.7117C122.991 44.9647 122.417 44.0851 121.996 43.0728C121.575 42.0506 121.364 40.9499 121.364 39.7705C121.364 38.5714 121.575 37.4608 121.996 36.4387C122.417 35.4165 122.991 34.5369 123.716 33.7997C124.451 33.0528 125.303 32.468 126.273 32.0454C127.253 31.6228 128.296 31.4115 129.404 31.4115C130.521 31.4115 131.564 31.6129 132.534 32.0159C133.514 32.409 134.366 32.9742 135.091 33.7113C135.817 34.4386 136.39 35.3182 136.811 36.3502C137.232 37.3723 137.443 38.5124 137.443 39.7705ZM133.401 39.7705C133.401 39.1218 133.293 38.537 133.078 38.0161C132.872 37.4854 132.588 37.0333 132.225 36.6598C131.863 36.2765 131.437 35.9866 130.947 35.79C130.467 35.5836 129.952 35.4804 129.404 35.4804C128.855 35.4804 128.336 35.5836 127.846 35.79C127.366 35.9866 126.944 36.2765 126.582 36.6598C126.229 37.0333 125.95 37.4854 125.744 38.0161C125.538 38.537 125.435 39.1218 125.435 39.7705C125.435 40.3798 125.538 40.945 125.744 41.4659C125.95 41.9868 126.229 42.4389 126.582 42.8222C126.944 43.2055 127.366 43.5101 127.846 43.7362C128.336 43.9524 128.855 44.0605 129.404 44.0605C129.952 44.0605 130.467 43.9573 130.947 43.7509C131.437 43.5445 131.863 43.2546 132.225 42.8811C132.588 42.5077 132.872 42.0556 133.078 41.5248C133.293 40.9941 133.401 40.4093 133.401 39.7705Z" fill="url(#paint6_linear_2864_15818)"/>
<path d="M41.2979 68.9033C41.2979 68.0286 41.4644 67.2079 41.7976 66.4413C42.1307 65.6747 42.5814 65.0064 43.1497 64.4363C43.7278 63.8564 44.399 63.3994 45.1632 63.0653C45.9275 62.7311 46.7457 62.564 47.6177 62.564H57.2885V66.7951H47.6177C47.3238 66.7951 47.0494 66.8492 46.7947 66.9573C46.5399 67.0654 46.3145 67.2177 46.1186 67.4143C45.9324 67.601 45.7854 67.8222 45.6777 68.0777C45.5699 68.3333 45.516 68.6084 45.516 68.9033C45.516 69.1981 45.5699 69.4783 45.6777 69.7436C45.7854 69.9992 45.9324 70.2252 46.1186 70.4218C46.3145 70.6085 46.5399 70.7559 46.7947 70.864C47.0494 70.9722 47.3238 71.0262 47.6177 71.0262H51.8358C52.7079 71.0262 53.526 71.1933 54.2903 71.5275C55.0644 71.8518 55.7355 72.3039 56.3038 72.8838C56.8819 73.4538 57.3326 74.1271 57.656 74.9035C57.9891 75.6701 58.1557 76.4908 58.1557 77.3655C58.1557 78.2402 57.9891 79.0609 57.656 79.8275C57.3326 80.5941 56.8819 81.2673 56.3038 81.8472C55.7355 82.4173 55.0644 82.8694 54.2903 83.2035C53.526 83.5377 52.7079 83.7048 51.8358 83.7048H42.4736V79.4737H51.8358C52.1298 79.4737 52.4041 79.4196 52.6589 79.3115C52.9136 79.2034 53.1341 79.056 53.3203 78.8692C53.5162 78.6727 53.6681 78.4466 53.7759 78.1911C53.8837 77.9355 53.9376 77.6603 53.9376 77.3655C53.9376 77.0706 53.8837 76.7955 53.7759 76.5399C53.6681 76.2844 53.5162 76.0632 53.3203 75.8765C53.1341 75.6799 52.9136 75.5276 52.6589 75.4195C52.4041 75.3114 52.1298 75.2573 51.8358 75.2573H47.6177C46.7457 75.2573 45.9275 75.0902 45.1632 74.7561C44.399 74.4219 43.7278 73.9698 43.1497 73.3998C42.5814 72.8199 42.1307 72.1466 41.7976 71.38C41.4644 70.6036 41.2979 69.778 41.2979 68.9033Z" fill="url(#paint7_linear_2864_15818)"/>
<path d="M64.4021 89.7197H60.3603V67.9156H61.3303L62.9323 69.8173C63.2949 69.4733 63.6917 69.149 64.1228 68.8443C64.5539 68.5396 64.9997 68.2792 65.4603 68.063C65.9306 67.8369 66.4156 67.66 66.9153 67.5322C67.415 67.4045 67.9196 67.3406 68.4291 67.3406C69.5363 67.3406 70.5749 67.5421 71.545 67.945C72.5248 68.3382 73.3772 68.8984 74.1023 69.6257C74.8372 70.353 75.4153 71.2326 75.8366 72.2646C76.2579 73.2867 76.4686 74.4219 76.4686 75.6701C76.4686 76.9674 76.2579 78.137 75.8366 79.1788C75.4153 80.2108 74.8372 81.0904 74.1023 81.8177C73.3772 82.5352 72.5248 83.0856 71.545 83.4689C70.5749 83.8522 69.5363 84.0439 68.4291 84.0439C68.0764 84.0439 67.7237 84.0045 67.3709 83.9259C67.028 83.8473 66.685 83.7441 66.3421 83.6163C66.009 83.4787 65.6758 83.3264 65.3427 83.1593C65.0193 82.9922 64.7058 82.8202 64.4021 82.6433V89.7197ZM72.4415 75.6701C72.4415 75.0018 72.3337 74.4023 72.1182 73.8715C71.9124 73.3408 71.6282 72.8936 71.2657 72.53C70.9032 72.1565 70.477 71.8715 69.987 71.6749C69.4971 71.4783 68.9778 71.38 68.4291 71.38C67.8804 71.38 67.3611 71.4783 66.8712 71.6749C66.3911 71.8715 65.9698 72.1565 65.6072 72.53C65.2447 72.8936 64.9557 73.3408 64.7401 73.8715C64.5343 74.4023 64.4314 75.0018 64.4314 75.6701C64.4314 76.3089 64.5343 76.8937 64.7401 77.4245C64.9557 77.9552 65.2447 78.4073 65.6072 78.7808C65.9698 79.1543 66.3911 79.4442 66.8712 79.6506C67.3611 79.857 67.8804 79.9602 68.4291 79.9602C68.9778 79.9602 69.4971 79.857 69.987 79.6506C70.477 79.4442 70.9032 79.1543 71.2657 78.7808C71.6282 78.4073 71.9124 77.9552 72.1182 77.4245C72.3337 76.8937 72.4415 76.3089 72.4415 75.6701Z" fill="url(#paint8_linear_2864_15818)"/>
<path d="M93.9437 83.7048H92.9737L91.4158 81.5376C91.0336 81.8816 90.627 82.206 90.1959 82.5106C89.7745 82.8055 89.3287 83.0659 88.8584 83.292C88.3881 83.5082 87.9031 83.6802 87.4034 83.808C86.9135 83.9357 86.4138 83.9996 85.9043 83.9996C84.7971 83.9996 83.7535 83.8129 82.7737 83.4394C81.8037 83.0659 80.9512 82.5254 80.2164 81.8177C79.4913 81.1003 78.9181 80.2255 78.4968 79.1936C78.0755 78.1616 77.8648 76.9871 77.8648 75.6701C77.8648 74.4416 78.0755 73.3162 78.4968 72.2941C78.9181 71.2621 79.4913 70.3775 80.2164 69.6404C80.9512 68.9033 81.8037 68.3333 82.7737 67.9303C83.7535 67.5175 84.7971 67.3111 85.9043 67.3111C86.4138 67.3111 86.9184 67.375 87.4181 67.5028C87.9178 67.6305 88.4028 67.8074 88.8731 68.0335C89.3434 68.2595 89.7892 68.5249 90.2106 68.8296C90.6417 69.1343 91.0434 69.4635 91.4158 69.8173L92.9737 67.945H93.9437V83.7048ZM89.9019 75.6701C89.9019 75.1197 89.7941 74.589 89.5786 74.0779C89.3728 73.557 89.0887 73.1 88.7261 72.7069C88.3636 72.3039 87.9374 71.9845 87.4475 71.7486C86.9674 71.5029 86.4529 71.38 85.9043 71.38C85.3555 71.38 84.8362 71.4734 84.3463 71.6601C83.8662 71.8469 83.4449 72.1221 83.0824 72.4857C82.7296 72.8494 82.4504 73.3015 82.2446 73.842C82.0388 74.3728 81.936 74.9821 81.936 75.6701C81.936 76.3581 82.0388 76.9724 82.2446 77.5129C82.4504 78.0437 82.7296 78.4908 83.0824 78.8545C83.4449 79.2181 83.8662 79.4933 84.3463 79.6801C84.8362 79.8668 85.3555 79.9602 85.9043 79.9602C86.4529 79.9602 86.9674 79.8422 87.4475 79.6064C87.9374 79.3606 88.3636 79.0412 88.7261 78.6481C89.0887 78.2451 89.3728 77.7881 89.5786 77.277C89.7941 76.7561 89.9019 76.2205 89.9019 75.6701Z" fill="url(#paint9_linear_2864_15818)"/>
<path d="M110.772 71.0557L107.833 74.0189C107.686 73.6062 107.485 73.2376 107.23 72.9133C106.975 72.5791 106.686 72.299 106.363 72.0729C106.049 71.8469 105.706 71.6749 105.334 71.5569C104.962 71.439 104.58 71.38 104.188 71.38C103.639 71.38 103.12 71.4931 102.63 71.7191C102.15 71.9452 101.728 72.2646 101.366 72.6774C101.013 73.0803 100.734 73.5619 100.528 74.1221C100.322 74.6824 100.219 75.3015 100.219 75.9797C100.219 76.5301 100.322 77.0461 100.528 77.5277C100.734 78.0093 101.013 78.4319 101.366 78.7955C101.728 79.1592 102.15 79.4442 102.63 79.6506C103.12 79.857 103.639 79.9602 104.188 79.9602C104.58 79.9602 104.957 79.9061 105.319 79.798C105.682 79.6899 106.02 79.5376 106.334 79.341C106.657 79.1346 106.941 78.8889 107.186 78.6039C107.441 78.309 107.647 77.9847 107.803 77.6309L110.743 80.5941C110.37 81.1248 109.939 81.6015 109.449 82.0241C108.969 82.4467 108.445 82.8055 107.877 83.1003C107.318 83.3952 106.725 83.6163 106.098 83.7637C105.481 83.921 104.844 83.9996 104.188 83.9996C103.081 83.9996 102.037 83.7932 101.057 83.3804C100.087 82.9578 99.2347 82.3829 98.4999 81.6556C97.7748 80.9283 97.2016 80.0781 96.7803 79.1051C96.359 78.1321 96.1483 77.0903 96.1483 75.9797C96.1483 74.7708 96.359 73.6406 96.7803 72.5889C97.2016 71.5373 97.7748 70.6233 98.4999 69.8468C99.2347 69.0606 100.087 68.4414 101.057 67.9893C102.037 67.5372 103.081 67.3111 104.188 67.3111C104.844 67.3111 105.486 67.3946 106.113 67.5617C106.75 67.7288 107.353 67.9745 107.921 68.2989C108.499 68.6134 109.028 69.0016 109.508 69.4635C109.998 69.9254 110.419 70.4562 110.772 71.0557Z" fill="url(#paint10_linear_2864_15818)"/>
<path d="M118.767 79.8422C118.924 79.8914 119.081 79.9258 119.238 79.9454C119.395 79.9553 119.551 79.9602 119.708 79.9602C120.1 79.9602 120.477 79.9061 120.84 79.798C121.202 79.6899 121.54 79.5376 121.854 79.341C122.177 79.1346 122.461 78.8889 122.706 78.6039C122.961 78.309 123.167 77.9847 123.324 77.6309L126.263 80.5941C125.891 81.1248 125.46 81.6015 124.97 82.0241C124.49 82.4467 123.965 82.8055 123.397 83.1003C122.839 83.3952 122.246 83.6163 121.619 83.7637C121.001 83.921 120.365 83.9996 119.708 83.9996C118.601 83.9996 117.557 83.7932 116.578 83.3804C115.608 82.9676 114.755 82.3927 114.02 81.6556C113.295 80.9184 112.722 80.0437 112.301 79.0314C111.879 78.0093 111.669 76.8888 111.669 75.6701C111.669 74.4219 111.879 73.2818 112.301 72.2498C112.722 71.2179 113.295 70.3382 114.02 69.6109C114.755 68.8836 115.608 68.3185 116.578 67.9156C117.557 67.5126 118.601 67.3111 119.708 67.3111C120.365 67.3111 121.006 67.3897 121.633 67.547C122.261 67.7042 122.853 67.9303 123.412 68.2251C123.98 68.52 124.509 68.8836 124.999 69.3161C125.489 69.7387 125.92 70.2154 126.293 70.7461L118.767 79.8422ZM120.825 71.5422C120.639 71.4734 120.453 71.4292 120.267 71.4095C120.09 71.3899 119.904 71.38 119.708 71.38C119.159 71.38 118.64 71.4832 118.15 71.6896C117.67 71.8862 117.249 72.1712 116.886 72.5447C116.534 72.9182 116.254 73.3703 116.048 73.901C115.843 74.4219 115.74 75.0116 115.74 75.6701C115.74 75.8175 115.745 75.9846 115.755 76.1713C115.774 76.3581 115.799 76.5497 115.828 76.7463C115.867 76.9331 115.911 77.1149 115.96 77.2918C116.009 77.4687 116.073 77.6259 116.151 77.7635L120.825 71.5422Z" fill="url(#paint11_linear_2864_15818)"/>
<path d="M63.1174 120.985H58.9139V105.889C58.9139 105.594 58.8551 105.319 58.7376 105.063C58.6298 104.808 58.4779 104.587 58.2819 104.4C58.0958 104.203 57.8753 104.051 57.6206 103.943C57.3658 103.835 57.0915 103.781 56.7975 103.781C56.5036 103.781 56.2292 103.835 55.9745 103.943C55.7197 104.051 55.4943 104.203 55.2984 104.4C55.1122 104.587 54.9652 104.808 54.8575 105.063C54.7497 105.319 54.6958 105.594 54.6958 105.889V120.985H50.4776V105.889C50.4776 105.594 50.4238 105.319 50.316 105.063C50.2082 104.808 50.0563 104.587 49.8604 104.4C49.6742 104.203 49.4537 104.051 49.199 103.943C48.9442 103.835 48.6699 103.781 48.3759 103.781C48.082 103.781 47.8076 103.835 47.5529 103.943C47.2981 104.051 47.0728 104.203 46.8768 104.4C46.6906 104.587 46.5437 104.808 46.4359 105.063C46.3281 105.319 46.2742 105.594 46.2742 105.889V120.985H42.0561V105.889C42.0561 105.014 42.2178 104.193 42.5411 103.427C42.8742 102.65 43.3249 101.977 43.8932 101.407C44.4713 100.827 45.1425 100.375 45.9068 100.051C46.6808 99.7167 47.5039 99.5496 48.3759 99.5496C49.1598 99.5496 49.9143 99.6921 50.6393 99.9771C51.3644 100.252 52.016 100.655 52.5941 101.186C53.1722 100.655 53.8188 100.252 54.5341 99.9771C55.2592 99.6921 56.0137 99.5496 56.7975 99.5496C57.6696 99.5496 58.4877 99.7167 59.252 100.051C60.026 100.375 60.6972 100.827 61.2655 101.407C61.8436 101.977 62.2943 102.65 62.6176 103.427C62.9508 104.193 63.1174 105.014 63.1174 105.889V120.985Z" fill="url(#paint12_linear_2864_15818)"/>
<path d="M81.5331 120.985H80.5631L79.0052 118.818C78.6231 119.162 78.2164 119.486 77.7853 119.791C77.364 120.086 76.9181 120.346 76.4478 120.572C75.9775 120.789 75.4925 120.961 74.9928 121.088C74.5029 121.216 74.0032 121.28 73.4937 121.28C72.3865 121.28 71.343 121.093 70.3632 120.72C69.3931 120.346 68.5407 119.806 67.8058 119.098C67.0807 118.381 66.5075 117.506 66.0862 116.474C65.6649 115.442 65.4542 114.268 65.4542 112.951C65.4542 111.722 65.6649 110.597 66.0862 109.574C66.5075 108.542 67.0807 107.658 67.8058 106.921C68.5407 106.184 69.3931 105.614 70.3632 105.211C71.343 104.798 72.3865 104.592 73.4937 104.592C74.0032 104.592 74.5078 104.655 75.0075 104.783C75.5072 104.911 75.9922 105.088 76.4625 105.314C76.9328 105.54 77.3787 105.805 77.8 106.11C78.2311 106.415 78.6329 106.744 79.0052 107.098L80.5631 105.225H81.5331V120.985ZM77.4914 112.951C77.4914 112.4 77.3836 111.869 77.168 111.358C76.9623 110.837 76.6781 110.38 76.3156 109.987C75.953 109.584 75.5268 109.265 75.0369 109.029C74.5568 108.783 74.0424 108.66 73.4937 108.66C72.945 108.66 72.4257 108.754 71.9357 108.941C71.4556 109.127 71.0343 109.402 70.6718 109.766C70.319 110.13 70.0398 110.582 69.834 111.122C69.6283 111.653 69.5254 112.263 69.5254 112.951C69.5254 113.638 69.6283 114.253 69.834 114.793C70.0398 115.324 70.319 115.771 70.6718 116.135C71.0343 116.499 71.4556 116.774 71.9357 116.96C72.4257 117.147 72.945 117.241 73.4937 117.241C74.0424 117.241 74.5568 117.123 75.0369 116.887C75.5268 116.641 75.953 116.322 76.3156 115.928C76.6781 115.526 76.9623 115.069 77.168 114.557C77.3836 114.037 77.4914 113.501 77.4914 112.951Z" fill="url(#paint13_linear_2864_15818)"/>
<path d="M88.6466 127H84.6049V105.196H85.5749L87.1769 107.098C87.5394 106.754 87.9363 106.429 88.3674 106.125C88.7985 105.82 89.2443 105.56 89.7048 105.343C90.1752 105.117 90.6602 104.94 91.1599 104.813C91.6596 104.685 92.1642 104.621 92.6737 104.621C93.7809 104.621 94.8195 104.822 95.7895 105.225C96.7694 105.619 97.6218 106.179 98.3469 106.906C99.0817 107.633 99.6598 108.513 100.081 109.545C100.502 110.567 100.713 111.702 100.713 112.951C100.713 114.248 100.502 115.417 100.081 116.459C99.6598 117.491 99.0817 118.371 98.3469 119.098C97.6218 119.816 96.7694 120.366 95.7895 120.749C94.8195 121.133 93.7809 121.324 92.6737 121.324C92.321 121.324 91.9682 121.285 91.6155 121.206C91.2726 121.128 90.9296 121.024 90.5867 120.897C90.2535 120.759 89.9204 120.607 89.5873 120.44C89.2639 120.273 88.9504 120.101 88.6466 119.924V127ZM96.6861 112.951C96.6861 112.282 96.5783 111.683 96.3627 111.152C96.157 110.621 95.8728 110.174 95.5103 109.81C95.1478 109.437 94.7215 109.152 94.2316 108.955C93.7417 108.759 93.2224 108.66 92.6737 108.66C92.125 108.66 91.6057 108.759 91.1158 108.955C90.6357 109.152 90.2143 109.437 89.8518 109.81C89.4893 110.174 89.2002 110.621 88.9847 111.152C88.7789 111.683 88.676 112.282 88.676 112.951C88.676 113.589 88.7789 114.174 88.9847 114.705C89.2002 115.236 89.4893 115.688 89.8518 116.061C90.2143 116.435 90.6357 116.725 91.1158 116.931C91.6057 117.137 92.125 117.241 92.6737 117.241C93.2224 117.241 93.7417 117.137 94.2316 116.931C94.7215 116.725 95.1478 116.435 95.5103 116.061C95.8728 115.688 96.157 115.236 96.3627 114.705C96.5783 114.174 96.6861 113.589 96.6861 112.951Z" fill="url(#paint14_linear_2864_15818)"/>
<defs>
<linearGradient id="paint0_linear_2864_15818" x1="56.9953" y1="1.8441e-06" x2="5.56313" y2="46.9108" gradientUnits="userSpaceOnUse">
<stop stop-color="#A8F8A0"/>
<stop offset="1" stop-color="#83D9F5"/>
</linearGradient>
<linearGradient id="paint1_linear_2864_15818" x1="137.443" y1="25.7356" x2="23.1188" y2="98.3977" gradientUnits="userSpaceOnUse">
<stop stop-color="#A8F8A0"/>
<stop offset="1" stop-color="#83D9F5"/>
</linearGradient>
<linearGradient id="paint2_linear_2864_15818" x1="137.443" y1="25.7356" x2="23.1188" y2="98.3977" gradientUnits="userSpaceOnUse">
<stop stop-color="#A8F8A0"/>
<stop offset="1" stop-color="#83D9F5"/>
</linearGradient>
<linearGradient id="paint3_linear_2864_15818" x1="137.443" y1="25.7356" x2="23.1188" y2="98.3977" gradientUnits="userSpaceOnUse">
<stop stop-color="#A8F8A0"/>
<stop offset="1" stop-color="#83D9F5"/>
</linearGradient>
<linearGradient id="paint4_linear_2864_15818" x1="137.443" y1="25.7356" x2="23.1188" y2="98.3977" gradientUnits="userSpaceOnUse">
<stop stop-color="#A8F8A0"/>
<stop offset="1" stop-color="#83D9F5"/>
</linearGradient>
<linearGradient id="paint5_linear_2864_15818" x1="137.443" y1="25.7356" x2="23.1188" y2="98.3977" gradientUnits="userSpaceOnUse">
<stop stop-color="#A8F8A0"/>
<stop offset="1" stop-color="#83D9F5"/>
</linearGradient>
<linearGradient id="paint6_linear_2864_15818" x1="137.443" y1="25.7356" x2="23.1188" y2="98.3977" gradientUnits="userSpaceOnUse">
<stop stop-color="#A8F8A0"/>
<stop offset="1" stop-color="#83D9F5"/>
</linearGradient>
<linearGradient id="paint7_linear_2864_15818" x1="137.443" y1="25.7356" x2="23.1188" y2="98.3977" gradientUnits="userSpaceOnUse">
<stop stop-color="#A8F8A0"/>
<stop offset="1" stop-color="#83D9F5"/>
</linearGradient>
<linearGradient id="paint8_linear_2864_15818" x1="137.443" y1="25.7356" x2="23.1188" y2="98.3977" gradientUnits="userSpaceOnUse">
<stop stop-color="#A8F8A0"/>
<stop offset="1" stop-color="#83D9F5"/>
</linearGradient>
<linearGradient id="paint9_linear_2864_15818" x1="137.443" y1="25.7356" x2="23.1188" y2="98.3977" gradientUnits="userSpaceOnUse">
<stop stop-color="#A8F8A0"/>
<stop offset="1" stop-color="#83D9F5"/>
</linearGradient>
<linearGradient id="paint10_linear_2864_15818" x1="137.443" y1="25.7356" x2="23.1188" y2="98.3977" gradientUnits="userSpaceOnUse">
<stop stop-color="#A8F8A0"/>
<stop offset="1" stop-color="#83D9F5"/>
</linearGradient>
<linearGradient id="paint11_linear_2864_15818" x1="137.443" y1="25.7356" x2="23.1188" y2="98.3977" gradientUnits="userSpaceOnUse">
<stop stop-color="#A8F8A0"/>
<stop offset="1" stop-color="#83D9F5"/>
</linearGradient>
<linearGradient id="paint12_linear_2864_15818" x1="137.443" y1="25.7356" x2="23.1188" y2="98.3977" gradientUnits="userSpaceOnUse">
<stop stop-color="#A8F8A0"/>
<stop offset="1" stop-color="#83D9F5"/>
</linearGradient>
<linearGradient id="paint13_linear_2864_15818" x1="137.443" y1="25.7356" x2="23.1188" y2="98.3977" gradientUnits="userSpaceOnUse">
<stop stop-color="#A8F8A0"/>
<stop offset="1" stop-color="#83D9F5"/>
</linearGradient>
<linearGradient id="paint14_linear_2864_15818" x1="137.443" y1="25.7356" x2="23.1188" y2="98.3977" gradientUnits="userSpaceOnUse">
<stop stop-color="#A8F8A0"/>
<stop offset="1" stop-color="#83D9F5"/>
</linearGradient>
</defs>
</svg>
