<svg width="20" height="20" viewBox="0 0 20 20" fill="none" xmlns="http://www.w3.org/2000/svg">
<path d="M5.58027 2.08L4.15027 0.65C1.75027 2.48 0.170273 5.3 0.0302734 8.5H2.03027C2.18027 5.85 3.54027 3.53 5.58027 2.08ZM17.9703 8.5H19.9703C19.8203 5.3 18.2403 2.48 15.8503 0.65L14.4303 2.08C16.4503 3.53 17.8203 5.85 17.9703 8.5ZM16.0003 9C16.0003 5.93 14.3603 3.36 11.5003 2.68V2C11.5003 1.17 10.8303 0.5 10.0003 0.5C9.17027 0.5 8.50027 1.17 8.50027 2V2.68C5.63027 3.36 4.00027 5.92 4.00027 9V14L2.00027 16V17H18.0003V16L16.0003 14V9ZM10.0003 20C10.1403 20 10.2703 19.99 10.4003 19.96C11.0503 19.82 11.5803 19.38 11.8403 18.78C11.9403 18.54 11.9903 18.28 11.9903 18H7.99027C8.00027 19.1 8.89027 20 10.0003 20Z" fill="#BDBDBD"/>
</svg>
