<svg width="11" height="18" viewBox="0 0 11 18" fill="none" xmlns="http://www.w3.org/2000/svg">
<path d="M5.48 7.9C3.21 7.31 2.48 6.7 2.48 5.75C2.48 4.66 3.49 3.9 5.18 3.9C6.47238 3.9 7.17434 4.34808 7.48492 5.07201C7.69531 5.56243 8.09951 6 8.63315 6H8.84847C9.41671 6 9.88319 5.51984 9.72471 4.97415C9.34905 3.68068 8.34425 2.59611 6.68 2.19V1C6.68 0.447716 6.23228 0 5.68 0H4.68C4.12772 0 3.68 0.447715 3.68 1V2.16C1.74 2.58 0.18 3.84 0.18 5.77C0.18 8.08 2.09 9.23 4.88 9.9C7.38 10.5 7.88 11.38 7.88 12.31C7.88 13 7.39 14.1 5.18 14.1C3.66625 14.1 2.82747 13.6032 2.44542 12.8715C2.20644 12.4139 1.80521 12 1.28889 12H1.05629C0.48251 12 0.0115795 12.4909 0.187733 13.037C0.687265 14.5855 2.08729 15.4899 3.68 15.83V17C3.68 17.5523 4.12772 18 4.68 18H5.68C6.23228 18 6.68 17.5523 6.68 17V15.85C8.63 15.48 10.18 14.35 10.18 12.3C10.18 9.46 7.75 8.49 5.48 7.9Z" fill="#B2B2B2"/>
</svg>
