<svg xmlns="http://www.w3.org/2000/svg" width="22" height="18" viewBox="0 2 22 18" fill="none">
<path d="M16.701 17.904C14.9422 19.0196 12.9017 19.6103 10.819 19.607C5.427 19.607 0.941 15.727 0 10.607C0.43003 8.27772 1.60163 6.1499 3.34 4.541L0.211 1.415L1.626 0L21.425 19.8L20.01 21.214L16.7 17.904H16.701ZM4.754 5.957C3.395 7.19259 2.44832 8.81578 2.042 10.607C2.35429 11.9735 2.98126 13.2481 3.873 14.3296C4.76474 15.411 5.89663 16.2694 7.17855 16.8363C8.46048 17.4032 9.85705 17.6631 11.2571 17.5951C12.6571 17.5272 14.022 17.1334 15.243 16.445L13.215 14.417C12.3517 14.9608 11.3292 15.1951 10.3152 15.0814C9.30128 14.9678 8.35604 14.5129 7.63457 13.7914C6.9131 13.07 6.45823 12.1247 6.34456 11.1108C6.2309 10.0968 6.46518 9.07431 7.009 8.211L4.754 5.957ZM11.733 12.935L8.491 9.693C8.31306 10.1459 8.27119 10.641 8.37051 11.1173C8.46982 11.5937 8.70602 12.0308 9.05012 12.3749C9.39422 12.719 9.83127 12.9552 10.3077 13.0545C10.784 13.1538 11.2791 13.1119 11.732 12.934L11.733 12.935ZM19.626 15.199L18.195 13.769C18.8635 12.8163 19.3394 11.7422 19.596 10.607C19.3242 9.41673 18.8133 8.29415 18.0941 7.30749C17.375 6.32084 16.4628 5.49073 15.4129 4.8676C14.363 4.24448 13.1973 3.84137 11.9867 3.68276C10.7762 3.52416 9.54601 3.61338 8.371 3.945L6.793 2.367C8.04 1.877 9.399 1.607 10.819 1.607C16.211 1.607 20.697 5.487 21.638 10.607C21.3316 12.2727 20.6429 13.8446 19.626 15.199V15.199ZM10.542 6.115C11.1785 6.07566 11.8161 6.17207 12.4125 6.39782C13.009 6.62357 13.5506 6.97351 14.0015 7.42445C14.4525 7.87539 14.8024 8.41703 15.0282 9.01346C15.2539 9.60989 15.3503 10.2475 15.311 10.884L10.541 6.115H10.542Z" fill="#B2B2B2"/>
</svg>