<svg width="280" height="40" viewBox="0 0 280 40" fill="none" xmlns="http://www.w3.org/2000/svg">
<rect width="280" height="40" rx="4" fill="white"/>
<path d="M22.0078 19.6797C22.0078 20.7786 21.8333 21.7266 21.4844 22.5234C21.1354 23.3151 20.6458 23.9349 20.0156 24.3828L22.0469 25.9766L21.0234 26.9219L18.625 25.0156C18.25 25.1094 17.8542 25.1562 17.4375 25.1562C16.5417 25.1562 15.7474 24.9375 15.0547 24.5C14.362 24.0573 13.8229 23.4297 13.4375 22.6172C13.0573 21.7995 12.862 20.8542 12.8516 19.7812V18.9609C12.8516 17.8672 13.0417 16.901 13.4219 16.0625C13.8021 15.224 14.3385 14.5833 15.0312 14.1406C15.7292 13.6927 16.526 13.4688 17.4219 13.4688C18.3385 13.4688 19.1432 13.6901 19.8359 14.1328C20.5339 14.5755 21.0703 15.2135 21.4453 16.0469C21.8203 16.875 22.0078 17.8438 22.0078 18.9531V19.6797ZM20.5078 18.9453C20.5078 17.6068 20.2396 16.5755 19.7031 15.8516C19.1719 15.1224 18.4115 14.7578 17.4219 14.7578C16.4792 14.7578 15.7344 15.1198 15.1875 15.8438C14.6458 16.5625 14.3672 17.5625 14.3516 18.8438V19.6797C14.3516 20.9818 14.6224 22.0078 15.1641 22.7578C15.7109 23.5078 16.4688 23.8828 17.4375 23.8828C18.4062 23.8828 19.1562 23.5312 19.6875 22.8281C20.2188 22.1198 20.4922 21.1068 20.5078 19.7891V18.9453ZM31.5781 23.0078L33.2031 16.5469H34.6484L32.1875 25H31.0156L28.9609 18.5938L26.9609 25H25.7891L23.3359 16.5469H24.7734L26.4375 22.875L28.4062 16.5469H29.5703L31.5781 23.0078ZM39.6328 25.1562C38.487 25.1562 37.5547 24.7812 36.8359 24.0312C36.1172 23.276 35.7578 22.2682 35.7578 21.0078V20.7422C35.7578 19.9036 35.9167 19.1562 36.2344 18.5C36.5573 17.8385 37.0052 17.3229 37.5781 16.9531C38.1562 16.5781 38.7812 16.3906 39.4531 16.3906C40.5521 16.3906 41.4062 16.7526 42.0156 17.4766C42.625 18.2005 42.9297 19.237 42.9297 20.5859V21.1875H37.2031C37.224 22.0208 37.4661 22.6953 37.9297 23.2109C38.3984 23.7214 38.9922 23.9766 39.7109 23.9766C40.2214 23.9766 40.6536 23.8724 41.0078 23.6641C41.362 23.4557 41.6719 23.1797 41.9375 22.8359L42.8203 23.5234C42.112 24.612 41.0495 25.1562 39.6328 25.1562ZM39.4531 17.5781C38.8698 17.5781 38.3802 17.7917 37.9844 18.2188C37.5885 18.6406 37.3438 19.2344 37.25 20H41.4844V19.8906C41.4427 19.1562 41.2448 18.5885 40.8906 18.1875C40.5365 17.7812 40.0573 17.5781 39.4531 17.5781ZM48.6953 17.8438C48.4766 17.8073 48.2396 17.7891 47.9844 17.7891C47.0365 17.7891 46.3932 18.1927 46.0547 19V25H44.6094V16.5469H46.0156L46.0391 17.5234C46.513 16.7682 47.1849 16.3906 48.0547 16.3906C48.3359 16.3906 48.5495 16.4271 48.6953 16.5V17.8438ZM52.3828 14.5V16.5469H53.9609V17.6641H52.3828V22.9062C52.3828 23.2448 52.4531 23.5 52.5938 23.6719C52.7344 23.8385 52.974 23.9219 53.3125 23.9219C53.4792 23.9219 53.7083 23.8906 54 23.8281V25C53.6198 25.1042 53.25 25.1562 52.8906 25.1562C52.2448 25.1562 51.7578 24.9609 51.4297 24.5703C51.1016 24.1797 50.9375 23.625 50.9375 22.9062V17.6641H49.3984V16.5469H50.9375V14.5H52.3828ZM58.4219 22.8828L60.3906 16.5469H61.9375L58.5391 26.3047C58.013 27.7109 57.1771 28.4141 56.0312 28.4141L55.7578 28.3906L55.2188 28.2891V27.1172L55.6094 27.1484C56.099 27.1484 56.4792 27.0495 56.75 26.8516C57.026 26.6536 57.2526 26.2917 57.4297 25.7656L57.75 24.9062L54.7344 16.5469H56.3125L58.4219 22.8828ZM62.7734 20.7031C62.7734 19.375 63.0781 18.3255 63.6875 17.5547C64.2969 16.7786 65.1146 16.3906 66.1406 16.3906C67.1406 16.3906 67.9297 16.7266 68.5078 17.3984L68.5703 16.5469H69.8984V28.25H68.4531V24.2188C67.8698 24.8438 67.0938 25.1562 66.125 25.1562C65.1042 25.1562 64.2891 24.7604 63.6797 23.9688C63.0755 23.1719 62.7734 22.1172 62.7734 20.8047V20.7031ZM64.2188 20.8672C64.2188 21.8359 64.4219 22.5964 64.8281 23.1484C65.2396 23.7005 65.7917 23.9766 66.4844 23.9766C67.3438 23.9766 68 23.5964 68.4531 22.8359V18.6953C67.9948 17.9505 67.3438 17.5781 66.5 17.5781C65.8021 17.5781 65.2474 17.8568 64.8359 18.4141C64.4245 18.9661 64.2188 19.7839 64.2188 20.8672ZM71.8672 20.7031C71.8672 19.375 72.1719 18.3255 72.7812 17.5547C73.3906 16.7786 74.2083 16.3906 75.2344 16.3906C76.2344 16.3906 77.0234 16.7266 77.6016 17.3984L77.6641 16.5469H78.9922V28.25H77.5469V24.2188C76.9635 24.8438 76.1875 25.1562 75.2188 25.1562C74.1979 25.1562 73.3828 24.7604 72.7734 23.9688C72.1693 23.1719 71.8672 22.1172 71.8672 20.8047V20.7031ZM73.3125 20.8672C73.3125 21.8359 73.5156 22.5964 73.9219 23.1484C74.3333 23.7005 74.8854 23.9766 75.5781 23.9766C76.4375 23.9766 77.0938 23.5964 77.5469 22.8359V18.6953C77.0885 17.9505 76.4375 17.5781 75.5938 17.5781C74.8958 17.5781 74.3411 17.8568 73.9297 18.4141C73.5182 18.9661 73.3125 19.7839 73.3125 20.8672Z" fill="#1D1C1C"/>
<path d="M260 11C265.392 11 269.878 14.88 270.819 20C269.879 25.12 265.392 29 260 29C254.608 29 250.122 25.12 249.181 20C250.121 14.88 254.608 11 260 11ZM260 27C262.039 26.9996 264.018 26.3068 265.613 25.0352C267.207 23.7635 268.323 21.9883 268.777 20C268.321 18.0133 267.205 16.24 265.611 14.97C264.016 13.7 262.038 13.0085 260 13.0085C257.962 13.0085 255.984 13.7 254.389 14.97C252.795 16.24 251.679 18.0133 251.223 20C251.677 21.9883 252.793 23.7635 254.387 25.0352C255.982 26.3068 257.961 26.9996 260 27ZM260 24.5C258.807 24.5 257.662 24.0259 256.818 23.182C255.974 22.3381 255.5 21.1935 255.5 20C255.5 18.8065 255.974 17.6619 256.818 16.818C257.662 15.9741 258.807 15.5 260 15.5C261.193 15.5 262.338 15.9741 263.182 16.818C264.026 17.6619 264.5 18.8065 264.5 20C264.5 21.1935 264.026 22.3381 263.182 23.182C262.338 24.0259 261.193 24.5 260 24.5ZM260 22.5C260.663 22.5 261.299 22.2366 261.768 21.7678C262.237 21.2989 262.5 20.663 262.5 20C262.5 19.337 262.237 18.7011 261.768 18.2322C261.299 17.7634 260.663 17.5 260 17.5C259.337 17.5 258.701 17.7634 258.232 18.2322C257.763 18.7011 257.5 19.337 257.5 20C257.5 20.663 257.763 21.2989 258.232 21.7678C258.701 22.2366 259.337 22.5 260 22.5Z" fill="#B2B2B2"/>
</svg>
