<svg width="24" height="24" viewBox="0 0 24 24" fill="none" xmlns="http://www.w3.org/2000/svg">
<path d="M3.5 18C3.5 18.55 3.95 19 4.5 19H9.5V17H4.5C3.95 17 3.5 17.45 3.5 18ZM3.5 6C3.5 6.55 3.95 7 4.5 7H13.5V5H4.5C3.95 5 3.5 5.45 3.5 6ZM13.5 20V19H20.5C21.05 19 21.5 18.55 21.5 18C21.5 17.45 21.05 17 20.5 17H13.5V16C13.5 15.45 13.05 15 12.5 15C11.95 15 11.5 15.45 11.5 16V20C11.5 20.55 11.95 21 12.5 21C13.05 21 13.5 20.55 13.5 20ZM7.5 10V11H4.5C3.95 11 3.5 11.45 3.5 12C3.5 12.55 3.95 13 4.5 13H7.5V14C7.5 14.55 7.95 15 8.5 15C9.05 15 9.5 14.55 9.5 14V10C9.5 9.45 9.05 9 8.5 9C7.95 9 7.5 9.45 7.5 10ZM21.5 12C21.5 11.45 21.05 11 20.5 11H11.5V13H20.5C21.05 13 21.5 12.55 21.5 12ZM16.5 9C17.05 9 17.5 8.55 17.5 8V7H20.5C21.05 7 21.5 6.55 21.5 6C21.5 5.45 21.05 5 20.5 5H17.5V4C17.5 3.45 17.05 3 16.5 3C15.95 3 15.5 3.45 15.5 4V8C15.5 8.55 15.95 9 16.5 9Z" fill="#B2B2B2"/>
</svg>
