<svg xmlns="http://www.w3.org/2000/svg" width="19" height="17" viewBox="0 0 19 17" fill="none">
<path fill-rule="evenodd" clip-rule="evenodd" d="M0.318226 7.33878C0.309675 7.34676 0.301229 7.35492 0.292894 7.36325C0.043888 7.61226 -0.0463474 7.95991 0.0221883 8.28041C0.0610567 8.46282 0.151342 8.63647 0.293045 8.77817C0.299756 8.78489 0.306538 8.79148 0.31339 8.79796L7.36396 15.8485C7.75449 16.2391 8.38765 16.2391 8.77817 15.8485C9.1687 15.458 9.1687 14.8248 8.77817 14.4343L3.41456 9.0707H17.5856C18.1379 9.0707 18.5856 8.62299 18.5856 8.0707C18.5856 7.51842 18.1379 7.0707 17.5856 7.0707H3.41473L8.77833 1.70711C9.16885 1.31658 9.16885 0.683418 8.77833 0.292893C8.3878 -0.0976309 7.75464 -0.0976312 7.36411 0.292893L0.318226 7.33878Z" />
</svg>