<svg width="16" height="16" viewBox="0 0 16 16" fill="#242424" xmlns="http://www.w3.org/2000/svg">
<circle cx="8" cy="8" r="7.25" stroke="white" stroke-width="1.5"/>
<path d="M8.21875 10.5H6.76562C6.77083 10 6.83854 9.88802 6.92188 9.57031C7.01042 9.2474 7.15365 8.95312 7.35156 8.6875C7.54948 8.42188 7.8125 8.11979 8.14062 7.78125C8.38021 7.53646 8.59896 7.30729 8.79688 7.09375C9 6.875 9.16406 6.64062 9.28906 6.39062C9.41406 6.13542 9.47656 5.83073 9.47656 5.47656C9.47656 5.11719 9.41146 4.80729 9.28125 4.54688C9.15625 4.28646 8.96875 4.08594 8.71875 3.94531C8.47396 3.80469 8.16927 3.73438 7.80469 3.73438C7.5026 3.73438 7.21615 3.78906 6.94531 3.89844C6.67448 4.00781 6.45573 4.17708 6.28906 4.40625C6.1224 4.63021 6.03646 4.92448 6.03125 5.28906H4.58594C4.59635 4.70052 4.74219 4.19531 5.02344 3.77344C5.3099 3.35156 5.69531 3.02865 6.17969 2.80469C6.66406 2.58073 7.20573 2.46875 7.80469 2.46875C8.46615 2.46875 9.02865 2.58854 9.49219 2.82812C9.96094 3.06771 10.3177 3.41146 10.5625 3.85938C10.8073 4.30208 10.9297 4.82812 10.9297 5.4375C10.9297 5.90625 10.8333 6.33854 10.6406 6.73438C10.4531 7.125 10.2109 7.49219 9.91406 7.83594C9.61719 8.17969 9.30208 8.50781 8.96875 8.82031C8.68229 9.08594 8.48958 9.38542 8.39062 9.71875C8.29167 10.0521 8.21875 10.1146 8.21875 10.5ZM6.72656 12.2734C6.72656 12.0391 6.79948 11.8411 6.94531 11.6797C7.09115 11.5182 7.30208 11.4375 7.57812 11.4375C7.85938 11.4375 8.07292 11.5182 8.21875 11.6797C8.36458 11.8411 8.4375 12.0391 8.4375 12.2734C8.4375 12.4974 8.36458 12.6901 8.21875 12.8516C8.07292 13.013 7.85938 13.0938 7.57812 13.0938C7.30208 13.0938 7.09115 13.013 6.94531 12.8516C6.79948 12.6901 6.72656 12.4974 6.72656 12.2734Z" fill="white"/>
</svg>
