<svg width="18" height="18" viewBox="0 0 18 18" fill="none" xmlns="http://www.w3.org/2000/svg">
<path d="M14 9C14 11.7614 11.7614 14 9 14C6.23858 14 4 11.7614 4 9C4 6.23858 6.23858 4 9 4C11.7614 4 14 6.23858 14 9Z" fill="url(#paint0_linear_814:13314)"/>
<path fill-rule="evenodd" clip-rule="evenodd" d="M0 9C0 4.032 4.032 0 9 0C13.968 0 18 4.032 18 9C18 13.968 13.968 18 9 18C4.032 18 0 13.968 0 9ZM1.8 9C1.8 12.978 5.022 16.2 9 16.2C12.978 16.2 16.2 12.978 16.2 9C16.2 5.022 12.978 1.8 9 1.8C5.022 1.8 1.8 5.022 1.8 9Z" fill="url(#paint1_linear_814:13314)"/>
<defs>
<linearGradient id="paint0_linear_814:13314" x1="18" y1="8.01351e-07" x2="-2.75068" y2="13.891" gradientUnits="userSpaceOnUse">
<stop stop-color="#A8F8A0"/>
<stop offset="1" stop-color="#83D9F5"/>
</linearGradient>
<linearGradient id="paint1_linear_814:13314" x1="18" y1="8.01351e-07" x2="-2.75068" y2="13.891" gradientUnits="userSpaceOnUse">
<stop stop-color="#A8F8A0"/>
<stop offset="1" stop-color="#83D9F5"/>
</linearGradient>
</defs>
</svg>
