<svg width="128" height="128" viewBox="0 0 128 128" fill="none" xmlns="http://www.w3.org/2000/svg">
<rect width="128" height="128" rx="10" fill="url(#paint0_linear_2252_24998)"/>
<path fill-rule="evenodd" clip-rule="evenodd" d="M80.9747 38.9414C83.0567 36.8255 84.3405 33.9271 84.3405 30.7298C84.3405 24.2516 79.0699 19 72.5684 19C66.0669 19 60.7963 24.2516 60.7963 30.7298C60.7963 32.6002 61.2357 34.3684 62.0172 35.9374L41.4689 55.0805C38.2027 53.0302 34.3352 51.8441 30.1897 51.8441C18.487 51.8441 9 61.297 9 72.9578C9 84.6185 18.487 94.0715 30.1897 94.0715C41.8924 94.0715 51.3794 84.6185 51.3794 72.9578C51.3794 67.4233 49.2423 62.3861 45.7454 58.621L65.5636 40.158C67.521 41.6043 69.9444 42.4597 72.5684 42.4597C73.8719 42.4597 75.126 42.2486 76.298 41.8588L94.152 71.8202C93.3058 72.4449 92.5064 73.1373 91.754 73.8973C90.5104 75.1533 89.4406 76.5478 88.5445 78.0808C87.6667 79.5953 86.9809 81.2299 86.4872 82.9846C86.0117 84.7393 85.7739 86.5586 85.7739 88.4425C85.7739 90.3265 86.0117 92.1458 86.4872 93.9005C86.9809 95.6367 87.6667 97.2713 88.5445 98.8043C89.4406 100.319 90.5104 101.704 91.754 102.96C92.9975 104.216 94.3691 105.297 95.8686 106.202C97.3865 107.088 99.005 107.772 100.724 108.252C102.461 108.75 104.263 109 106.128 109C108.56 109 110.91 108.575 113.178 107.725C115.445 106.876 117.494 105.657 119.322 104.068L115.153 97.142C114.001 98.398 112.638 99.3676 111.066 100.051C109.493 100.716 107.847 101.048 106.128 101.048C104.391 101.048 102.763 100.716 101.245 100.051C99.7273 99.3861 98.4015 98.4811 97.2676 97.3359C96.1338 96.1908 95.2377 94.8609 94.5794 93.3464C93.921 91.8133 93.5919 90.1787 93.5919 88.4425C93.5919 86.7064 93.921 85.0717 94.5794 83.5387C95.2377 81.9872 96.1338 80.6481 97.2676 79.5215C98.4015 78.3763 99.7273 77.4713 101.245 76.8063C102.763 76.1414 104.391 75.809 106.128 75.809C107.847 75.809 109.493 76.1507 111.066 76.834C112.638 77.499 114.001 78.4594 115.153 79.7154L119.322 72.7891C117.494 71.1822 115.445 69.9632 113.178 69.132C110.91 68.2824 108.56 67.8576 106.128 67.8576C104.263 67.8576 102.461 68.1069 100.724 68.6056C100.134 68.7703 99.5567 68.96 98.9907 69.1747L80.9747 38.9414ZM106.389 96.2439C110.671 96.2439 114.142 92.7855 114.142 88.5194C114.142 84.2532 110.671 80.7949 106.389 80.7949C102.108 80.7949 98.6371 84.2532 98.6371 88.5194C98.6371 92.7855 102.108 96.2439 106.389 96.2439Z" fill="#1D1C1C"/>
<defs>
<linearGradient id="paint0_linear_2252_24998" x1="128" y1="5.6985e-06" x2="-19.5604" y2="98.7801" gradientUnits="userSpaceOnUse">
<stop stop-color="#A8F8A0"/>
<stop offset="1" stop-color="#83D9F5"/>
</linearGradient>
</defs>
</svg>
