<svg width="24" height="24" viewBox="0 0 24 24" fill="none" xmlns="http://www.w3.org/2000/svg">
<path d="M17.5447 7.01094C16.5249 6.54302 15.4313 6.19828 14.2879 6.00083C14.2671 5.99702 14.2463 6.00654 14.2356 6.02559C14.0949 6.27573 13.9392 6.60206 13.8301 6.85856C12.6003 6.67445 11.3768 6.67445 10.1722 6.85856C10.0631 6.59636 9.90166 6.27573 9.76038 6.02559C9.74966 6.00718 9.72886 5.99765 9.70803 6.00083C8.56527 6.19765 7.47171 6.54239 6.45129 7.01094C6.44246 7.01475 6.43488 7.02111 6.42986 7.02935C4.35559 10.1283 3.78737 13.151 4.06612 16.1363C4.06738 16.1509 4.07558 16.1648 4.08693 16.1737C5.45547 17.1787 6.78114 17.7889 8.08219 18.1933C8.10301 18.1997 8.12507 18.192 8.13832 18.1749C8.44608 17.7546 8.72043 17.3114 8.95565 16.8454C8.96953 16.8181 8.95628 16.7857 8.92791 16.775C8.49275 16.6099 8.0784 16.4086 7.67982 16.1801C7.64829 16.1617 7.64577 16.1166 7.67477 16.095C7.75865 16.0321 7.84255 15.9667 7.92264 15.9007C7.93713 15.8886 7.95732 15.8861 7.97435 15.8937C10.5929 17.0892 13.4277 17.0892 16.0153 15.8937C16.0323 15.8855 16.0525 15.888 16.0677 15.9001C16.1478 15.9661 16.2316 16.0321 16.3161 16.095C16.3451 16.1166 16.3433 16.1617 16.3117 16.1801C15.9131 16.4131 15.4988 16.6099 15.063 16.7743C15.0346 16.7851 15.022 16.8181 15.0359 16.8454C15.2762 17.3108 15.5505 17.754 15.8526 18.1743C15.8652 18.192 15.8879 18.1997 15.9087 18.1933C17.2161 17.7889 18.5417 17.1787 19.9103 16.1737C19.9223 16.1648 19.9298 16.1515 19.9311 16.1369C20.2647 12.6856 19.3723 9.68765 17.5655 7.02998C17.5611 7.02111 17.5535 7.01475 17.5447 7.01094ZM9.34668 14.3185C8.55833 14.3185 7.90875 13.5948 7.90875 12.7059C7.90875 11.8171 8.54574 11.0933 9.34668 11.0933C10.1539 11.0933 10.7972 11.8234 10.7846 12.7059C10.7846 13.5948 10.1476 14.3185 9.34668 14.3185ZM14.6632 14.3185C13.8748 14.3185 13.2253 13.5948 13.2253 12.7059C13.2253 11.8171 13.8622 11.0933 14.6632 11.0933C15.4704 11.0933 16.1137 11.8234 16.1011 12.7059C16.1011 13.5948 15.4704 14.3185 14.6632 14.3185Z" fill="white"/>
</svg>
