<svg width="16" height="14" viewBox="0 0 16 14" fill="none" xmlns="http://www.w3.org/2000/svg">
<path d="M14.3554 3.57183C14.3655 3.71395 14.3655 3.85611 14.3655 3.99823C14.3655 8.33325 11.066 13.3282 5.03555 13.3282C3.17767 13.3282 1.45179 12.7901 0 11.8561C0.26397 11.8866 0.517752 11.8967 0.791878 11.8967C2.32485 11.8967 3.73605 11.379 4.86296 10.4957C3.42133 10.4653 2.2132 9.5211 1.79694 8.22159C2.00001 8.25203 2.20304 8.27234 2.41626 8.27234C2.71067 8.27234 3.00511 8.23172 3.2792 8.16069C1.77666 7.85609 0.649721 6.53631 0.649721 4.94239V4.9018C1.08625 5.14546 1.59391 5.29774 2.13195 5.31802C1.24869 4.72917 0.670034 3.72411 0.670034 2.58704C0.670034 1.97791 0.832441 1.41954 1.11672 0.932223C2.73095 2.92207 5.15736 4.22155 7.87816 4.3637C7.82741 4.12005 7.79694 3.86627 7.79694 3.61245C7.79694 1.80532 9.25888 0.333252 11.0761 0.333252C12.0203 0.333252 12.8731 0.729191 13.4721 1.36879C14.2132 1.22666 14.9238 0.952536 15.5533 0.576909C15.3096 1.33835 14.7919 1.97795 14.1117 2.38401C14.7716 2.31298 15.4112 2.1302 16 1.87641C15.5534 2.52614 14.995 3.10479 14.3554 3.57183Z" fill="#E5E5E5"/>
</svg>
