<svg width="24" height="24" viewBox="0 0 24 24" fill="none" xmlns="http://www.w3.org/2000/svg">
<path d="M18.3554 8.57183C18.3655 8.71395 18.3655 8.85611 18.3655 8.99823C18.3655 13.3333 15.066 18.3282 9.03555 18.3282C7.17767 18.3282 5.45179 17.7901 4 16.8561C4.26397 16.8866 4.51775 16.8967 4.79188 16.8967C6.32485 16.8967 7.73605 16.379 8.86296 15.4957C7.42133 15.4653 6.2132 14.5211 5.79694 13.2216C6.00001 13.252 6.20304 13.2723 6.41626 13.2723C6.71067 13.2723 7.00511 13.2317 7.2792 13.1607C5.77666 12.8561 4.64972 11.5363 4.64972 9.94239V9.9018C5.08625 10.1455 5.59391 10.2977 6.13195 10.318C5.24869 9.72917 4.67003 8.72411 4.67003 7.58704C4.67003 6.97791 4.83244 6.41954 5.11672 5.93222C6.73095 7.92207 9.15736 9.22155 11.8782 9.3637C11.8274 9.12005 11.7969 8.86627 11.7969 8.61245C11.7969 6.80532 13.2589 5.33325 15.0761 5.33325C16.0203 5.33325 16.8731 5.72919 17.4721 6.36879C18.2132 6.22666 18.9238 5.95254 19.5533 5.57691C19.3096 6.33835 18.7919 6.97795 18.1117 7.38401C18.7716 7.31298 19.4112 7.1302 20 6.87641C19.5534 7.52614 18.995 8.10479 18.3554 8.57183Z" fill="#E5E5E5"/>
</svg>
