<svg width="21" height="28" viewBox="0 0 21 28" fill="none" xmlns="http://www.w3.org/2000/svg">
<path d="M16.6565 13.3041C18.1007 12.5655 19.0198 11.2525 18.8065 9.06971C18.5274 6.08268 16.0743 5.08153 12.8247 4.80257V0.666687H10.2972V4.68768C9.64068 4.68768 8.96776 4.70408 8.2949 4.72049V0.666687H5.7674V4.80257C4.83813 4.83065 3.75584 4.81695 0.696045 4.80257V7.49414C2.69157 7.45882 3.7386 7.33059 3.97849 8.61013V19.9346C3.82615 20.9498 3.0137 20.8036 1.20479 20.7716L0.696097 23.775C5.30448 23.775 5.76745 23.7914 5.76745 23.7914V27.3334H8.29495V23.8406C8.98422 23.8571 9.65714 23.8571 10.2972 23.8571V27.3334H12.8247V23.7914C17.0591 23.5616 19.8897 22.4949 20.2672 18.5067C20.5626 15.3064 19.0526 13.8785 16.6565 13.3041ZM8.34417 7.67466C9.77203 7.67466 14.2361 7.23158 14.2361 10.2022C14.2361 13.0415 9.77209 12.7132 8.34417 12.7132V7.67466ZM8.34417 20.788V15.2407C10.051 15.2407 15.2779 14.7648 15.2779 18.0144C15.2778 21.1491 10.051 20.788 8.34417 20.788Z" fill="#242424"/>
</svg>
