<svg width="24" height="24" viewBox="0 0 24 24" fill="none" xmlns="http://www.w3.org/2000/svg">
<path fill-rule="evenodd" clip-rule="evenodd" d="M4.32191 18.1276C3.89355 18.556 3.89361 19.2504 4.32204 19.6788C4.75047 20.1071 5.44502 20.1071 5.87337 19.6787L12.0001 13.5513L18.1274 19.6781C18.5558 20.1064 19.2504 20.1064 19.6787 19.6781C20.1071 19.2498 20.1071 18.5552 19.6787 18.1269L13.5513 12L19.6783 5.87242C20.1065 5.44402 20.1065 4.74953 19.6781 4.32121C19.2497 3.89288 18.5551 3.89294 18.1268 4.32134L11.9999 10.4488L5.87262 4.32186C5.44424 3.89351 4.74968 3.89351 4.3213 4.32186C3.8929 4.75023 3.8929 5.44472 4.3213 5.87309L10.4488 12.0001L4.32191 18.1276Z" fill="#FF8484"/>
</svg>
