<svg width="29" height="32" viewBox="0 0 29 32" fill="none" xmlns="http://www.w3.org/2000/svg">
<path d="M24.8867 0H3.44666C1.63866 0 0.166656 1.472 0.166656 3.296V24.928C0.166656 26.752 1.63866 28.224 3.44666 28.224H21.5907L20.7427 25.264L22.7907 27.168L24.7267 28.96L28.1667 32V3.296C28.1667 1.472 26.6947 0 24.8867 0ZM18.7107 20.896C18.7107 20.896 18.1347 20.208 17.6547 19.6C19.7507 19.008 20.5507 17.696 20.5507 17.696C19.8947 18.128 19.2707 18.432 18.7107 18.64C17.9107 18.976 17.1427 19.2 16.3907 19.328C14.8547 19.616 13.4467 19.536 12.2467 19.312C11.3347 19.136 10.5507 18.88 9.89466 18.624C9.52666 18.48 9.12666 18.304 8.72666 18.08C8.67866 18.048 8.63066 18.032 8.58266 18C8.55066 17.984 8.53466 17.968 8.51866 17.952C8.23066 17.792 8.07066 17.68 8.07066 17.68C8.07066 17.68 8.83866 18.96 10.8707 19.568C10.3907 20.176 9.79866 20.896 9.79866 20.896C6.26266 20.784 4.91866 18.464 4.91866 18.464C4.91866 13.312 7.22266 9.136 7.22266 9.136C9.52666 7.408 11.7187 7.456 11.7187 7.456L11.8787 7.648C8.99866 8.48 7.67066 9.744 7.67066 9.744C7.67066 9.744 8.02266 9.552 8.61466 9.28C10.3267 8.528 11.6867 8.32 12.2467 8.272C12.3427 8.256 12.4227 8.24 12.5187 8.24C13.4947 8.112 14.5987 8.08 15.7507 8.208C17.2707 8.384 18.9027 8.832 20.5667 9.744C20.5667 9.744 19.3027 8.544 16.5827 7.712L16.8067 7.456C16.8067 7.456 18.9987 7.408 21.3027 9.136C21.3027 9.136 23.6067 13.312 23.6067 18.464C23.6067 18.464 22.2467 20.784 18.7107 20.896ZM11.2707 13.424C10.3587 13.424 9.63866 14.224 9.63866 15.2C9.63866 16.176 10.3747 16.976 11.2707 16.976C12.1827 16.976 12.9027 16.176 12.9027 15.2C12.9187 14.224 12.1827 13.424 11.2707 13.424ZM17.1107 13.424C16.1987 13.424 15.4787 14.224 15.4787 15.2C15.4787 16.176 16.2147 16.976 17.1107 16.976C18.0227 16.976 18.7427 16.176 18.7427 15.2C18.7427 14.224 18.0227 13.424 17.1107 13.424Z" fill="#1D1C1C"/>
</svg>
