<svg xmlns="http://www.w3.org/2000/svg" width="24" height="24" viewBox="0 0 24 24" >
<path fill-rule="evenodd" clip-rule="evenodd" d="M5.68302 7.09051C6.09203 6.56518 6.56518 6.09203 7.09051 5.68302L8.21805 5.90351C9.04678 6.06557 9.89197 5.71547 10.3634 5.01488L11.0052 4.06104C11.3305 4.0208 11.6624 4 12 4C12.3376 4 12.6695 4.0208 12.9948 4.06104L13.6366 5.01488C14.108 5.71548 14.9532 6.06556 15.782 5.90351L16.9095 5.68302C17.4348 6.09203 17.908 6.56518 18.317 7.09051L18.0965 8.21805C17.9344 9.04682 18.2846 9.89199 18.9851 10.3634L19.939 11.0052C19.9792 11.3305 20 11.6624 20 12C20 12.3376 19.9792 12.6695 19.939 12.9948L18.9851 13.6366C18.2846 14.108 17.9344 14.9532 18.0965 15.782L18.317 16.9095C17.908 17.4348 17.4348 17.908 16.9095 18.317L15.782 18.0965C14.9532 17.9344 14.108 18.2846 13.6366 18.9851L12.9948 19.939C12.6695 19.9792 12.3376 20 12 20C11.6624 20 11.3305 19.9792 11.0052 19.939L10.3634 18.9851C9.89199 18.2846 9.04682 17.9344 8.21805 18.0965L7.09051 18.317C6.56518 17.908 6.09203 17.4348 5.68302 16.9095L5.90351 15.782C6.06556 14.9532 5.71548 14.108 5.01488 13.6366L4.06104 12.9948C4.0208 12.6695 4 12.3376 4 12C4 11.6624 4.0208 11.3305 4.06104 11.0052L5.01488 10.3634C5.71548 9.89196 6.06556 9.04678 5.90351 8.21805L5.68302 7.09051ZM6.67832 3.56453C6.65316 3.55961 6.62706 3.56453 6.60548 3.57837C5.39175 4.35745 4.35745 5.39175 3.57837 6.60548C3.56453 6.62706 3.55961 6.65316 3.56453 6.67832L3.94068 8.60188C3.9484 8.64134 3.93173 8.68159 3.89837 8.70404L2.27117 9.79893C2.2499 9.81324 2.23492 9.83516 2.22946 9.86021C2.07918 10.5496 2 11.2656 2 12C2 12.7344 2.07918 13.4504 2.22946 14.1398C2.23492 14.1648 2.2499 14.1868 2.27117 14.2011L3.89837 15.296C3.93173 15.3184 3.9484 15.3587 3.94068 15.3981L3.56453 17.3217C3.55961 17.3468 3.56453 17.3729 3.57837 17.3945C4.35745 18.6083 5.39175 19.6425 6.60549 20.4216C6.62706 20.4355 6.65316 20.4404 6.67832 20.4355L8.60188 20.0593C8.64134 20.0516 8.68159 20.0683 8.70404 20.1016L9.79893 21.7288C9.81324 21.7501 9.83516 21.7651 9.86021 21.7705C10.5496 21.9208 11.2656 22 12 22C12.7344 22 13.4504 21.9208 14.1398 21.7705C14.1648 21.7651 14.1868 21.7501 14.2011 21.7288L15.296 20.1016C15.3184 20.0683 15.3587 20.0516 15.3981 20.0593L17.3217 20.4355C17.3468 20.4404 17.3729 20.4355 17.3945 20.4216C18.6083 19.6425 19.6425 18.6083 20.4216 17.3945C20.4355 17.3729 20.4404 17.3468 20.4355 17.3217L20.0593 15.3981C20.0516 15.3587 20.0683 15.3184 20.1016 15.296L21.7288 14.2011C21.7501 14.1868 21.7651 14.1648 21.7705 14.1398C21.9208 13.4504 22 12.7344 22 12C22 11.2656 21.9208 10.5496 21.7705 9.86021C21.7651 9.83516 21.7501 9.81324 21.7288 9.79893L20.1016 8.70404C20.0683 8.68159 20.0516 8.64134 20.0593 8.60188L20.4355 6.67832C20.4404 6.65316 20.4355 6.62706 20.4216 6.60549C19.6425 5.39175 18.6083 4.35745 17.3945 3.57837C17.3729 3.56453 17.3468 3.55961 17.3217 3.56453L15.3981 3.94068C15.3587 3.9484 15.3184 3.93173 15.296 3.89837L14.2011 2.27117C14.1868 2.2499 14.1648 2.23492 14.1398 2.22946C13.4504 2.07918 12.7344 2 12 2C11.2656 2 10.5496 2.07918 9.86021 2.22946C9.83516 2.23492 9.81324 2.2499 9.79893 2.27117L8.70404 3.89837C8.68159 3.93173 8.64134 3.9484 8.60188 3.94068L6.67832 3.56453ZM13.9997 11.9998C13.9997 13.1044 13.1043 13.9998 11.9997 13.9998C10.8951 13.9998 9.99969 13.1044 9.99969 11.9998C9.99969 10.8952 10.8951 9.99982 11.9997 9.99982C13.1043 9.99982 13.9997 10.8952 13.9997 11.9998ZM15.9997 11.9998C15.9997 14.2089 14.2088 15.9998 11.9997 15.9998C9.79055 15.9998 7.99969 14.2089 7.99969 11.9998C7.99969 9.79068 9.79055 7.99982 11.9997 7.99982C14.2088 7.99982 15.9997 9.79068 15.9997 11.9998Z" />
</svg>