<svg width="27" height="26" viewBox="0 0 27 26" fill="none" xmlns="http://www.w3.org/2000/svg">
<path d="M9.08604 20.9353C9.08604 21.0428 8.96239 21.1288 8.80647 21.1288C8.62905 21.145 8.5054 21.059 8.5054 20.9353C8.5054 20.8278 8.62905 20.7418 8.78497 20.7418C8.94626 20.7256 9.08604 20.8116 9.08604 20.9353ZM7.414 20.6934C7.37636 20.8009 7.48389 20.9245 7.64518 20.9568C7.78497 21.0106 7.94626 20.9568 7.97852 20.8493C8.01077 20.7418 7.90862 20.6181 7.74733 20.5697C7.60755 20.5321 7.45163 20.5858 7.414 20.6934ZM9.79034 20.602C9.63443 20.6396 9.5269 20.7418 9.54303 20.8654C9.55916 20.9729 9.69895 21.0428 9.86024 21.0052C10.0161 20.9676 10.1237 20.8654 10.1075 20.7579C10.0914 20.6557 9.94626 20.5858 9.79034 20.602ZM13.328 -0.000183105C5.87099 -0.000183105 0.166687 5.66111 0.166687 13.1181C0.166687 19.0805 3.91938 24.1826 9.27959 25.9783C9.96776 26.102 10.2097 25.6772 10.2097 25.3278C10.2097 24.9944 10.1936 23.1557 10.1936 22.0267C10.1936 22.0267 6.43013 22.8332 5.63981 20.4245C5.63981 20.4245 5.0269 18.86 4.14518 18.4568C4.14518 18.4568 2.914 17.6127 4.2312 17.6288C4.2312 17.6288 5.56991 17.7364 6.30647 19.0159C7.48389 21.0912 9.45701 20.4944 10.2258 20.1396C10.3495 19.2794 10.6989 18.6826 11.086 18.3278C8.08067 17.9944 5.04841 17.559 5.04841 12.3869C5.04841 10.9084 5.45701 10.1665 6.31722 9.22025C6.17744 8.87078 5.72045 7.42992 6.45701 5.56971C7.58067 5.22025 10.1667 7.02132 10.1667 7.02132C11.242 6.72025 12.3979 6.56433 13.543 6.56433C14.6882 6.56433 15.8441 6.72025 16.9194 7.02132C16.9194 7.02132 19.5054 5.21487 20.6291 5.56971C21.3656 7.4353 20.9086 8.87078 20.7688 9.22025C21.6291 10.1719 22.1559 10.9138 22.1559 12.3869C22.1559 17.5751 18.9893 17.9891 15.9839 18.3278C16.4785 18.7525 16.8979 19.559 16.8979 20.8224C16.8979 22.6342 16.8817 24.8762 16.8817 25.317C16.8817 25.6665 17.1291 26.0912 17.8118 25.9676C23.1882 24.1826 26.8334 19.0805 26.8334 13.1181C26.8334 5.66111 20.785 -0.000183105 13.328 -0.000183105ZM5.39249 18.5428C5.3226 18.5966 5.33873 18.7202 5.43013 18.8224C5.51615 18.9084 5.63981 18.9461 5.7097 18.8762C5.77959 18.8224 5.76346 18.6987 5.67206 18.5966C5.58604 18.5106 5.46239 18.4729 5.39249 18.5428ZM4.81185 18.1073C4.77421 18.1772 4.82798 18.2633 4.9355 18.317C5.02153 18.3708 5.12905 18.3547 5.16669 18.2794C5.20432 18.2095 5.15056 18.1235 5.04303 18.0697C4.9355 18.0375 4.84948 18.0536 4.81185 18.1073ZM6.55378 20.0213C6.46776 20.0912 6.50002 20.2525 6.62368 20.3547C6.74733 20.4783 6.90325 20.4944 6.97314 20.4084C7.04303 20.3385 7.01077 20.1772 6.90325 20.0751C6.78497 19.9514 6.62368 19.9353 6.55378 20.0213ZM5.94088 19.231C5.85486 19.2848 5.85486 19.4245 5.94088 19.5482C6.0269 19.6719 6.17206 19.7256 6.24196 19.6719C6.32798 19.602 6.32798 19.4622 6.24196 19.3385C6.16669 19.2149 6.0269 19.1611 5.94088 19.231Z" fill="#242424"/>
</svg>
