<svg width="79" height="51" viewBox="0 0 79 51" fill="none" xmlns="http://www.w3.org/2000/svg">
<path d="M76.6049 -8.94198C76.8655 -7.77047 77.0349 -4.95886 75.6276 -3.08445C75.6276 -0.741444 75.2367 1.60156 72.5002 5.31132C69.7638 9.02109 67.4183 19.1141 51.7817 21.5171C37.5523 23.7039 27.8706 18.9138 24.8084 16.2454C22.7235 14.5532 18.5538 10.8564 18.5538 9.60683C16.8435 8.98558 15.6279 7.49947 15.2022 6.52443C15.6265 8.71112 16.6816 15.5702 16.2083 16.8311C17.381 17.4169 17.381 18.7836 17.381 20.3456C17.8371 20.9314 18.8665 22.3372 19.3356 23.2744C19.922 24.4459 23.8311 26.2031 23.8311 27.3747C23.8311 28.5462 23.6357 30.1082 20.5083 28.7414C18.0065 27.648 17.2507 26.9842 17.1855 26.7889C17.1855 27.4397 17.811 28.2728 17.9674 28.7414C18.1629 29.3272 22.7488 34.0562 20.1174 36.3562C18.5538 37.723 16.078 33.883 14.6446 31.2797C14.9704 33.9481 14.9964 39.7926 14.0582 40.2612C12.8855 40.847 11.1263 40.6517 10.9309 38.6992C10.7745 37.1372 10.6051 33.6227 10.54 32.0607C10.0839 34.5339 8.9763 39.5583 8.19447 39.8707C7.21718 40.2612 5.45805 39.8707 5.45805 38.1135C5.45805 36.7076 6.6308 33.102 7.21718 31.4749C6.30504 32.8417 4.24621 35.5752 3.30801 35.5752C2.13526 35.5752 1.35343 33.6227 2.91709 31.4749C4.16803 29.7567 5.13229 27.3747 5.45805 26.3984C5.19744 25.0967 4.7544 22.22 5.06714 21.1266C3.69895 19.7599 4.48076 18.5884 4.48076 18.3931C4.48076 18.1979 2.72164 11.3641 1.54889 5.89707C0.37614 0.430055 0.962513 -6.20847 4.48076 -8.55148C7.99901 -10.8945 19.1401 -7.57523 23.8311 -3.08446C22.8538 -6.40372 23.4402 -13.8233 23.6357 -16.9473C24.4222 -29.5188 49.2521 -26.4412 56.8636 -22.8048C60.3818 -21.1239 63.5092 -17.533 63.1183 -13.8232C62.7273 -10.1135 61.3591 -5.58367 61.3591 -3.08446C61.3591 -0.585245 62.2713 -2.82412 62.7273 -4.25596C62.597 -4.84171 62.6491 -6.59897 63.9001 -8.94198C65.4637 -11.8707 64.291 -11.8707 64.6819 -13.8232C65.0728 -15.7758 64.6819 -17.7283 67.4183 -21.6333C70.1547 -25.5383 77.7776 -20.8523 77.7776 -20.2665C77.7776 -19.7979 78.5595 -16.3615 77.1912 -12.066C77.3216 -11.1548 77.3868 -9.25438 76.6049 -8.94198Z" fill="white" stroke="black"/>
<path d="M25.5041 33.8179C25.5041 24.6308 33.3918 17.1359 43.1818 17.1359C52.9717 17.1359 60.8594 24.6308 60.8594 33.8179C60.8594 43.005 52.9717 50.5 43.1818 50.5C33.3918 50.5 25.5041 43.005 25.5041 33.8179Z" fill="white" stroke="black"/>
<path d="M16.9902 17.6123C14.8179 19.3747 9.36737 20.7363 4.28545 19.9553" stroke="#41AACC" stroke-width="4"/>
<ellipse rx="0.812753" ry="3.55203" transform="matrix(0.669403 0.742899 0.743606 -0.668618 31.9822 21.4671)" fill="#242424"/>
<path d="M33.9951 19.1742C34.386 20.1504 30.5304 23.6193 29.695 22.6887C30.4777 19.3694 17.7728 23.2745 21.8772 13.9024C23.4413 15.0739 23.7671 15.6049 25.0049 16.4407C24.8097 17.0847 25.5909 17.0264 25.7859 16.8312C29.9121 16.4133 31.0632 17.0264 33.9951 19.1742Z" fill="white" stroke="black"/>
<path d="M29.1914 19.3691C29.8657 18.6119 30.2511 17.7499 30.2129 16.9347" stroke="black"/>
<path d="M26.9629 19.3691C27.9161 18.2637 28.0803 17.4967 28.045 16.769" stroke="black"/>
<path d="M24.6172 19.3691C25.5704 18.2637 25.7346 17.4967 25.6993 16.769" stroke="black"/>
<path d="M30.2818 21.7123C32.041 20.7361 33.1624 19.4494 33.1271 18.7217" stroke="black"/>
<path d="M29.0231 31.0845C29.0231 24.5397 35.7063 19.0885 43.1824 19.0885C50.6586 19.0885 57.3418 24.5397 57.3418 31.0845C57.3418 37.6293 50.6586 43.0806 43.1824 43.0806C35.7063 43.0806 29.0231 37.6293 29.0231 31.0845Z" fill="#1D1C1C" stroke="black"/>
<path fill-rule="evenodd" clip-rule="evenodd" d="M54.2011 28.1651C53.7745 28.2317 53.4827 28.6311 53.5493 29.0573C54.4573 34.862 50.8503 37.4599 49.2112 37.9512C48.7976 38.0751 48.5629 38.5105 48.687 38.9236C48.8111 39.3368 49.2469 39.5712 49.6605 39.4473C51.9304 38.767 56.1409 35.5074 55.0942 28.8162C55.0276 28.39 54.6277 28.0985 54.2011 28.1651Z" fill="white"/>
<path fill-rule="evenodd" clip-rule="evenodd" d="M50.6194 22.683C50.3662 23.0324 50.4445 23.5207 50.7942 23.7736C50.8475 23.8122 50.9025 23.8514 50.9586 23.8915C51.7261 24.4397 52.7219 25.1511 52.9661 26.534C53.0411 26.9587 53.4466 27.2424 53.8718 27.1674C54.2971 27.0925 54.581 26.6874 54.506 26.2626C54.1455 24.221 52.6366 23.1601 51.8825 22.6299C51.8198 22.5858 51.7623 22.5454 51.7112 22.5084C51.3614 22.2554 50.8726 22.3336 50.6194 22.683Z" fill="white"/>
<path d="M59.5996 33.6225C58.9481 37.5926 54.7522 45.4938 43.1811 45.3376C31.61 45.1814 27.6748 38.1133 27.1535 34.5988C26.502 34.1432 25.199 32.8415 25.199 31.2795C25.199 29.327 25.9808 26.7887 27.1535 26.7887" stroke="black"/>
<path d="M25.5229 30.1047C25.6947 29.2037 26.0093 28.4427 26.3579 27.9407C26.5326 27.6891 26.7021 27.5224 26.8471 27.4291C26.9891 27.3377 27.0801 27.3323 27.1325 27.3423C27.1849 27.3523 27.2676 27.3907 27.366 27.5278C27.4665 27.6679 27.5628 27.8852 27.6326 28.1833C27.772 28.7782 27.7844 29.6014 27.6126 30.5024C27.4407 31.4035 27.1262 32.1645 26.7776 32.6665C26.6029 32.918 26.4334 33.0848 26.2884 33.1781C26.1464 33.2695 26.0554 33.2748 26.0029 33.2649C25.9505 33.2549 25.8679 33.2165 25.7694 33.0794C25.669 32.9393 25.5727 32.722 25.5028 32.4239C25.3634 31.829 25.351 31.0058 25.5229 30.1047Z" fill="white" stroke="black"/>
<path d="M60.8404 30.1047C60.6686 29.2037 60.354 28.4427 60.0054 27.9407C59.8307 27.6891 59.6612 27.5224 59.5162 27.4291C59.3742 27.3377 59.2832 27.3323 59.2308 27.3423C59.1783 27.3523 59.0957 27.3907 58.9973 27.5278C58.8968 27.6679 58.8005 27.8852 58.7307 28.1833C58.5913 28.7782 58.5789 29.6014 58.7507 30.5024C58.9225 31.4035 59.2371 32.1645 59.5857 32.6665C59.7604 32.918 59.9299 33.0848 60.0749 33.1781C60.2169 33.2695 60.3079 33.2748 60.3603 33.2649C60.4128 33.2549 60.4954 33.2165 60.5938 33.0794C60.6943 32.9393 60.7906 32.722 60.8604 32.4239C60.9999 31.829 61.0123 31.0058 60.8404 30.1047Z" fill="white" stroke="black"/>
</svg>
