<svg xmlns="http://www.w3.org/2000/svg" width="24" height="24" viewBox="0 0 24 24" fill="none">
<path fill-rule="evenodd" clip-rule="evenodd" d="M14.935 1.15563C15.5928 1.45911 16.0518 2.18756 15.8932 3.04406L15.8919 3.05123L14.7563 8.94483H17.3181C18.7267 8.94483 19.4757 10.5727 18.6666 11.6532L11.125 22.2928C10.5998 23.0201 9.72857 23.1507 9.06502 22.8446C8.40728 22.5411 7.94829 21.8127 8.10684 20.9562L8.10817 20.949L9.24371 15.0554H6.68195C5.23349 15.0554 4.55339 13.3996 5.3286 12.3327L12.8751 1.70738C13.4003 0.98009 14.2715 0.849477 14.935 1.15563ZM13.662 4.05329L7.26843 13.0554H11.6658L10.3387 19.9437L16.7173 10.9448H12.3342L13.662 4.05329Z" />
</svg>