<svg width="18" height="18" viewBox="0 0 18 18" fill="none" xmlns="http://www.w3.org/2000/svg">
<path fill-rule="evenodd" clip-rule="evenodd" d="M9.71861 4.25199C9.32562 4.65796 8.67458 4.65796 8.2816 4.25199L7.59697 3.54472C6.31301 2.21834 4.23133 2.21834 2.94738 3.54474C1.66347 4.87114 1.66345 7.02153 2.94732 8.34794L4.3504 9.79745L8.9998 14.601L15.0365 8.36475L15.0527 8.34815C16.3367 7.02173 16.3367 4.87124 15.0527 3.54483C13.7688 2.21845 11.6872 2.21843 10.4032 3.54477L9.71861 4.25199ZM9.71831 16.7577C9.32533 17.1637 8.67428 17.1637 8.28129 16.7577L1.54398 9.79766C-0.514814 7.67064 -0.514595 4.22212 1.54425 2.0952C3.60313 -0.031734 6.94122 -0.031734 9.0001 2.0952C11.059 -0.031642 14.397 -0.0316107 16.4559 2.0953C18.5147 4.22224 18.5147 7.67074 16.4559 9.79766L16.4302 9.824L9.71831 16.7577Z" />
</svg>
