<svg xmlns="http://www.w3.org/2000/svg" width="24" height="24" viewBox="0 0 24 24" fill="none">
<path fill-rule="evenodd" clip-rule="evenodd" d="M12.7186 6.75199C12.3256 7.15796 11.6746 7.15796 11.2816 6.75199L10.597 6.04472C9.31301 4.71834 7.23133 4.71834 5.94738 6.04474C4.66347 7.37114 4.66345 9.52153 5.94732 10.8479L7.3504 12.2975L11.9998 17.101L18.0365 10.8647L18.0527 10.8481C19.3367 9.52173 19.3367 7.37124 18.0527 6.04483C16.7688 4.71845 14.6872 4.71843 13.4032 6.04477L12.7186 6.75199ZM12.7183 19.2577C12.3253 19.6637 11.6743 19.6637 11.2813 19.2577L4.54398 12.2977C2.48519 10.1706 2.4854 6.72212 4.54425 4.5952C6.60313 2.46827 9.94122 2.46827 12.0001 4.5952C14.059 2.46836 17.397 2.46839 19.4559 4.5953C21.5147 6.72224 21.5147 10.1707 19.4559 12.2977L19.4302 12.324L12.7183 19.2577Z"/>
</svg>