<svg width="16" height="16" viewBox="0 0 16 16" fill="none" xmlns="http://www.w3.org/2000/svg">
<path d="M11.3333 4.66675H9.33331C8.96665 4.66675 8.66665 4.96675 8.66665 5.33341C8.66665 5.70008 8.96665 6.00008 9.33331 6.00008H11.3333C12.4333 6.00008 13.3333 6.90008 13.3333 8.00008C13.3333 9.10008 12.4333 10.0001 11.3333 10.0001H9.33331C8.96665 10.0001 8.66665 10.3001 8.66665 10.6667C8.66665 11.0334 8.96665 11.3334 9.33331 11.3334H11.3333C13.1733 11.3334 14.6666 9.84008 14.6666 8.00008C14.6666 6.16008 13.1733 4.66675 11.3333 4.66675ZM5.33331 8.00008C5.33331 8.36675 5.63331 8.66675 5.99998 8.66675H9.99998C10.3666 8.66675 10.6666 8.36675 10.6666 8.00008C10.6666 7.63341 10.3666 7.33341 9.99998 7.33341H5.99998C5.63331 7.33341 5.33331 7.63341 5.33331 8.00008ZM6.66665 10.0001H4.66665C3.56665 10.0001 2.66665 9.10008 2.66665 8.00008C2.66665 6.90008 3.56665 6.00008 4.66665 6.00008H6.66665C7.03331 6.00008 7.33331 5.70008 7.33331 5.33341C7.33331 4.96675 7.03331 4.66675 6.66665 4.66675H4.66665C2.82665 4.66675 1.33331 6.16008 1.33331 8.00008C1.33331 9.84008 2.82665 11.3334 4.66665 11.3334H6.66665C7.03331 11.3334 7.33331 11.0334 7.33331 10.6667C7.33331 10.3001 7.03331 10.0001 6.66665 10.0001Z" fill="black" fill-opacity="0.54"/>
</svg>
