<svg width="24" height="24" viewBox="0 0 24 24" xmlns="http://www.w3.org/2000/svg">
<path fill-rule="evenodd" clip-rule="evenodd" d="M16.7368 11.4738H17.7895V13.579H16.7368C16.1547 13.579 15.6842 13.1085 15.6842 12.5264C15.6842 11.9443 16.1547 11.4738 16.7368 11.4738ZM14.6316 12.5264C14.6316 13.1085 14.1611 13.579 13.5789 13.579H9.36842V11.4738H13.5789C14.1611 11.4738 14.6316 11.9443 14.6316 12.5264ZM16.7368 7.26331H17.7895V9.36855H16.7368C16.1547 9.36855 15.6842 8.89803 15.6842 8.31593C15.6842 7.73383 16.1547 7.26331 16.7368 7.26331ZM14.6316 8.31593C14.6316 8.89803 14.1611 9.36855 13.5789 9.36855H9.36842V7.26331H13.5789C14.1611 7.26331 14.6316 7.73383 14.6316 8.31593ZM17.7895 19.8948C16.6284 19.8948 15.6842 18.9506 15.6842 17.7895V16.7369C15.6842 16.1548 15.2137 15.6843 14.6316 15.6843H7.26316V4.10524C11.4737 4.10524 16.7368 4.10524 19.8947 4.10524V17.7895C19.8947 18.9506 18.9505 19.8948 17.7895 19.8948ZM6.21053 19.8948C5.04947 19.8948 4.10526 18.9506 4.10526 17.7895H13.5789C13.5789 18.5558 13.7842 19.2748 14.1442 19.8948H6.21053ZM22 2H5.15789C5.15789 2 5.15789 14.0593 5.15789 15.6843H3.05263C2.47053 15.6843 2 16.1548 2 16.7369V17.7895C2 20.1116 3.88842 22 6.21053 22H17.7895C20.1116 22 22 20.1116 22 17.7895C22 14.1097 22 2 22 2Z" />
</svg>
