<svg width="33" height="32" viewBox="0 0 33 32" fill="none" xmlns="http://www.w3.org/2000/svg">
<path fill-rule="evenodd" clip-rule="evenodd" d="M0.5 0H32.5V32H0.5V0ZM7.86536 9.99974C8.06242 10.1774 8.16305 10.4382 8.13634 10.7021V20.2036C8.19481 20.5464 8.08676 20.8965 7.84529 21.1468L5.58716 23.8858V24.247H11.9902V23.8858L9.73209 21.1468C9.48885 20.8969 9.37411 20.5491 9.42097 20.2036V11.9863L15.0412 24.247H15.6936L20.521 11.9863V21.7588C20.521 22.0197 20.521 22.0698 20.3503 22.2404L18.6141 23.926V24.2872H27.0444V23.926L25.3684 22.2805C25.2205 22.1677 25.1471 21.9824 25.1777 21.7989V9.70877C25.1471 9.52531 25.2205 9.33995 25.3684 9.22717L27.0846 7.58171V7.22051H21.1432L16.9079 17.7856L12.0906 7.22051H5.85813V7.58171L7.86536 9.99974Z" fill="#1D1C1C"/>
</svg>
