<svg width="180" height="204" viewBox="0 0 180 204" fill="none" xmlns="http://www.w3.org/2000/svg">
<circle cx="90" cy="90" r="90" fill="url(#paint0_linear_2134_25045)"/>
<mask id="mask0_2134_25045" style="mask-type:alpha" maskUnits="userSpaceOnUse" x="0" y="0" width="180" height="180">
<circle cx="90" cy="90" r="90" fill="url(#paint1_linear_2134_25045)"/>
</mask>
<g mask="url(#mask0_2134_25045)">
<path fill-rule="evenodd" clip-rule="evenodd" d="M98.9775 161.627L123.021 175.405L126.823 203.651H101.965L98.2076 185.671L96.2781 185.028L95.214 203.651H60.7209L61.5391 181.559L98.9775 161.627ZM62.0622 181.886L61.2759 203.116H94.7088L95.784 184.3L98.6683 185.261L102.399 203.116H126.212L122.526 175.738L98.968 162.238L62.0622 181.886Z" fill="#242424"/>
<path fill-rule="evenodd" clip-rule="evenodd" d="M40.9414 115.133C40.2996 119.84 42.4568 124.939 43.6157 126.9L52.7082 144.283C63.4288 148.455 81.3445 156.108 93.1579 162.952L61.5 168.5L60.9984 203.384H94.9614L96.0311 184.664L98.4379 185.466L102.182 203.384H126.518L122.808 175.827L123.576 175.572V149.631C123.576 141.074 122.506 133.051 120.902 126.365C120.544 124.877 120.201 123.574 119.899 122.434C118.848 118.45 118.317 116.44 119.565 115.401C120.848 114.331 122.863 116.381 123.576 118.075L141.155 133.524C141.181 133.549 141.204 133.57 141.226 133.586L141.155 133.524C140.764 133.135 139.957 131.653 139.354 128.237C138.712 124.6 142.474 118.699 144.435 116.203C142.207 113.529 137.642 107.86 137.215 106.576C136.787 105.292 134.897 104.08 134.005 103.634L132.401 99.3554L130.262 98.2857V94.8092C128.568 90.7086 124.86 81.5449 123.576 77.6939C122.292 73.843 120.545 70.7409 119.832 69.6712L102.182 64.0553C94.9614 63.253 79.9321 61.6484 77.5788 61.6484C75.2254 61.6484 57.7002 72.3454 49.2317 77.6939C46.7357 88.2127 41.5832 110.427 40.9414 115.133Z" fill="#242424"/>
<path fill-rule="evenodd" clip-rule="evenodd" d="M49.4667 77.8617C46.9593 88.4322 41.8438 110.495 41.2064 115.169C40.8923 117.473 41.2624 119.885 41.8604 121.973C42.4582 124.059 43.2782 125.803 43.8459 126.764L43.8495 126.77L52.8987 144.07C61.1501 147.284 73.6066 152.536 84.2841 157.896C89.6423 160.586 94.5595 163.306 98.2741 165.813C100.131 167.066 101.694 168.27 102.863 169.394C104.026 170.512 104.825 171.576 105.113 172.554C106.164 176.127 107.985 177.788 109.795 178.449C111.621 179.115 113.487 178.782 114.642 178.269L114.654 178.263L123.309 175.379V149.631C123.309 141.095 122.241 133.093 120.642 126.428C120.289 124.957 119.946 123.659 119.645 122.517C119.267 121.084 118.954 119.898 118.767 118.928C118.434 117.195 118.462 115.972 119.393 115.195C119.782 114.872 120.231 114.785 120.68 114.866C121.119 114.945 121.553 115.181 121.949 115.491C122.724 116.099 123.419 117.044 123.798 117.914L140.154 132.288C140.131 132.231 140.108 132.172 140.085 132.112C139.751 131.246 139.394 130.005 139.091 128.284C138.921 127.321 139.045 126.228 139.343 125.105C139.642 123.979 140.121 122.805 140.679 121.674C141.745 119.512 143.109 117.484 144.092 116.209C142.977 114.867 141.354 112.869 139.938 111.031C139.2 110.074 138.517 109.157 137.99 108.398C137.727 108.018 137.501 107.676 137.327 107.386C137.156 107.101 137.024 106.85 136.961 106.66C136.772 106.094 136.243 105.51 135.615 104.998C134.995 104.493 134.317 104.089 133.886 103.873L133.792 103.826L132.187 99.5475L129.994 98.4508V94.862C128.292 90.7405 124.604 81.6247 123.322 77.7784C122.077 74.0416 120.392 71.0163 119.661 69.8972L102.126 64.318C98.5157 63.9169 92.9692 63.317 88.0282 62.8169C83.065 62.3146 78.7381 61.9157 77.5788 61.9157C77.4728 61.9157 77.2975 61.9477 77.0441 62.0254C76.7961 62.1015 76.492 62.2153 76.136 62.3649C75.4244 62.6639 74.5207 63.0991 73.4702 63.6409C71.37 64.7242 68.6987 66.2258 65.8331 67.8964C60.1442 71.2129 53.7011 75.1887 49.4667 77.8617ZM140.973 133.719C141.003 133.749 141.034 133.776 141.066 133.8L141.403 133.385L141.339 133.329C141.182 133.17 140.902 132.745 140.584 131.919C140.265 131.093 139.917 129.886 139.617 128.191C139.466 127.334 139.572 126.326 139.86 125.242C140.147 124.161 140.611 123.021 141.158 121.91C142.254 119.688 143.674 117.605 144.645 116.368L144.779 116.198L144.641 116.032C143.528 114.696 141.832 112.613 140.361 110.705C139.626 109.75 138.949 108.842 138.43 108.093C138.17 107.719 137.951 107.387 137.786 107.111C137.617 106.83 137.512 106.622 137.468 106.491C137.229 105.774 136.599 105.11 135.953 104.583C135.341 104.085 134.68 103.682 134.219 103.443L132.614 99.163L130.529 98.1203V94.7559L130.509 94.7069C128.814 90.6037 125.11 81.4494 123.83 77.6092C122.538 73.7345 120.78 70.6111 120.054 69.5227L120.002 69.4446L102.238 63.7922L102.211 63.7893C98.6006 63.3881 93.0373 62.7863 88.0821 62.2848C83.1372 61.7843 78.7729 61.3809 77.5788 61.3809C77.3907 61.3809 77.1533 61.4325 76.8872 61.5141C76.6159 61.5973 76.2938 61.7185 75.9288 61.8718C75.1985 62.1787 74.2808 62.621 73.225 63.1656C71.1127 64.2551 68.4322 65.7621 65.5637 67.4343C59.8261 70.7792 53.3248 74.7924 49.0889 77.4677L48.9967 77.5259L48.9715 77.632C46.4778 88.1413 41.3206 110.374 40.6765 115.097C40.3488 117.5 40.7364 119.991 41.3462 122.12C41.9551 124.245 42.791 126.029 43.3819 127.03L52.5178 144.495L52.6113 144.532C60.8519 147.739 73.3458 153.004 84.0442 158.374C89.3941 161.06 94.2881 163.768 97.975 166.256C99.8188 167.5 101.354 168.685 102.492 169.779C103.637 170.88 104.352 171.865 104.6 172.705C105.688 176.406 107.611 178.221 109.612 178.951C111.59 179.674 113.596 179.316 114.848 178.763L123.843 175.764V149.631C123.843 141.052 122.771 133.008 121.162 126.303C120.8 124.797 120.455 123.49 120.154 122.35C119.782 120.94 119.477 119.786 119.292 118.827C118.957 117.083 119.063 116.167 119.736 115.606C119.989 115.395 120.273 115.336 120.585 115.392C120.908 115.45 121.262 115.632 121.619 115.912C122.334 116.472 122.989 117.37 123.329 118.179L123.353 118.235L140.973 133.719Z" fill="#242424"/>
<path d="M77.3113 76.8914C74.958 70.4732 75.0828 64.055 75.4393 61.6482L78.1137 59.5088L98.438 64.055L96.0311 119.679C90.7718 108.091 79.6646 83.3096 77.3113 76.8914Z" fill="white"/>
<path fill-rule="evenodd" clip-rule="evenodd" d="M78.0468 59.2202L98.7148 63.8433L96.2983 119.691L95.7876 119.79C90.5308 108.208 79.4179 83.4141 77.0602 76.9839C74.6888 70.5166 74.8128 64.0522 75.1747 61.6094L75.1901 61.5054L78.0468 59.2202ZM78.1805 59.7982L75.689 61.7913C75.3495 64.2398 75.2602 70.5212 77.5623 76.7998C79.8445 83.024 90.3888 106.582 95.8123 118.55L98.1611 64.2675L78.1805 59.7982Z" fill="white"/>
<path fill-rule="evenodd" clip-rule="evenodd" d="M99.2401 33.0341L102.182 39.4523L101.647 43.9985C102.36 44.6225 103.626 45.9501 104.054 47.6616C104.482 49.3731 104.499 53.1801 104.321 54.6955L104.856 55.7652L104.321 56.3001L104.589 57.3698L103.251 58.4395C103.786 59.5983 104.482 62.3974 102.984 63.2531C101.533 64.082 99.2799 64.4292 95.9746 63.9213C94.5983 67.1287 91.1768 71.8181 88.2755 72.3456C80.5202 71.2759 75.7065 61.1137 75.974 60.8463C76.1879 60.6324 78.0242 57.3698 78.9157 55.7652L79.718 52.8237C79.718 52.8236 79.718 52.8236 79.718 52.8235C79.504 51.112 81.0551 45.5139 81.8574 42.9288L84.7991 31.1621L95.7635 31.697L99.2401 33.0341Z" fill="#FFE5C6"/>
<path fill-rule="evenodd" clip-rule="evenodd" d="M84.5929 30.8843L95.8195 31.4319L99.4378 32.8236L102.456 39.409L101.929 43.8913C102.671 44.5625 103.886 45.8893 104.313 47.5967C104.535 48.483 104.646 49.8878 104.682 51.245C104.717 52.5603 104.681 53.8606 104.596 54.6467L105.181 55.818L104.617 56.3821L104.89 57.4714L103.579 58.5202C103.834 59.1353 104.097 60.0529 104.147 60.9449C104.202 61.918 104.006 62.977 103.117 63.4853C101.623 64.3388 99.3633 64.6838 96.1376 64.216C95.4279 65.8086 94.2536 67.7162 92.9009 69.3113C92.1971 70.1413 91.4402 70.8924 90.6697 71.4715C89.9013 72.049 89.105 72.4666 88.3234 72.6087L88.2814 72.6163L88.239 72.6105C84.2584 72.0614 81.0605 69.1872 78.9064 66.4609C77.8257 65.0931 76.9981 63.7505 76.4565 62.7309C76.1859 62.2214 75.9849 61.7891 75.8591 61.4719C75.7967 61.3144 75.7501 61.1787 75.7235 61.0729C75.7106 61.0213 75.6996 60.9663 75.6967 60.9145C75.6953 60.8889 75.6952 60.8539 75.7025 60.8158C75.7091 60.7813 75.7272 60.7149 75.7849 60.6572C75.7841 60.658 75.7837 60.6584 75.7837 60.6584C75.7835 60.6582 75.7927 60.6476 75.814 60.6174C75.8362 60.5859 75.865 60.5427 75.9002 60.4879C75.9704 60.3785 76.0616 60.23 76.1691 60.0504C76.3839 59.6916 76.6604 59.2153 76.9587 58.6943C77.5482 57.6649 78.2206 56.4654 78.6662 55.6636L79.4465 52.8027C79.3989 52.3346 79.4619 51.6534 79.5851 50.877C79.7144 50.0618 79.915 49.1135 80.1465 48.1418C80.6087 46.2015 81.1974 44.1538 81.5998 42.8567L84.5929 30.8843ZM79.9834 52.7904L79.99 52.843L79.1652 55.8668L79.1495 55.8951C78.7034 56.6979 78.0209 57.9158 77.4229 58.9601C77.124 59.4821 76.8455 59.9619 76.628 60.3251C76.5194 60.5065 76.4249 60.6605 76.3503 60.7768C76.3131 60.8348 76.2796 60.8852 76.251 60.9257C76.2479 60.9301 76.2447 60.9347 76.2414 60.9392C76.2417 60.9403 76.242 60.9414 76.2422 60.9426C76.2606 61.0156 76.2976 61.1266 76.3563 61.2747C76.4729 61.5686 76.6646 61.9824 76.9289 62.48C77.457 63.4744 78.2674 64.7894 79.3261 66.1293C81.4427 68.8081 84.514 71.5392 88.2691 72.0746C88.9264 71.9456 89.6312 71.583 90.3483 71.044C91.0783 70.4953 91.8068 69.7747 92.493 68.9654C93.8665 67.3458 95.0516 65.3942 95.7289 63.8158L95.8105 63.6255L96.0152 63.657C99.2914 64.1604 101.475 63.8074 102.851 63.0209C103.46 62.6734 103.665 61.905 103.613 60.9749C103.562 60.0626 103.265 59.106 103.009 58.5515L102.921 58.3614L104.288 57.2681L104.025 56.218L104.531 55.7124L104.046 54.7436L104.056 54.6642C104.143 53.9247 104.183 52.6084 104.147 51.2591C104.112 49.9061 104.001 48.5517 103.794 47.7264C103.386 46.0947 102.17 44.8118 101.471 44.1997L101.365 44.107L101.907 39.4955L99.0424 33.2445L95.7077 31.9619L85.0054 31.4399L82.115 43.0009L82.1128 43.008C81.713 44.2964 81.1264 46.3363 80.6668 48.2657C80.4369 49.2306 80.2397 50.1643 80.1133 50.9609C79.9856 51.7659 79.935 52.4036 79.9834 52.7904Z" fill="black"/>
<path d="M75.1724 29.825C66.0794 36.778 70.3583 51.4865 74.1025 54.9629C74.2273 55.4978 72.7652 55.4978 68.7538 60.044C64.7424 64.5902 68.2192 67.7994 69.5564 68.0668C70.8935 68.3343 77.9851 64.729 76.2417 62.9857C75.7068 62.4508 75.9743 61.916 75.9743 60.044C75.9743 57.6372 77.3114 57.1023 77.8461 56.8349C79.0941 57.1023 78.9697 55.7653 79.1837 55.7653C79.4511 55.7653 79.9859 53.091 79.9859 51.4865C79.9859 50.2028 81.4122 48.2774 82.1253 47.4751L84.2647 53.6259L86.4041 53.091L84.2647 46.4054L86.4041 42.9289C86.5824 41.3243 85.8689 36.1362 85.8689 35.7083C85.8689 35.1735 91.4848 30.8947 99.2401 32.7667C94.9613 26.081 83.2474 23.6504 75.1724 29.825Z" fill="#242424"/>
<path fill-rule="evenodd" clip-rule="evenodd" d="M88.5901 26.7375C84.18 26.0754 79.3079 26.9993 75.3348 30.0373C70.8875 33.438 69.693 38.7458 70.0901 43.676C70.2884 46.1386 70.8836 48.4944 71.6599 50.4473C72.4386 52.4063 73.3898 53.9361 74.2844 54.7668L74.3443 54.8224L74.3629 54.9019C74.3945 55.0373 74.3735 55.1666 74.3026 55.2853C74.2411 55.3883 74.1469 55.4745 74.0509 55.5515C73.9525 55.6305 73.826 55.7199 73.6794 55.8235L73.6729 55.8281C73.5236 55.9335 73.347 56.0583 73.1391 56.2134C72.3033 56.8369 70.9484 57.9607 68.9543 60.2208C67.001 62.4345 66.9064 64.2709 67.3993 65.5646C67.6497 66.2219 68.0578 66.7562 68.4824 67.1415C68.9127 67.5319 69.3383 67.7503 69.6088 67.8044C69.715 67.8257 69.9233 67.8117 70.2366 67.7365C70.539 67.664 70.9063 67.5429 71.3116 67.3821C72.1218 67.0606 73.0644 66.588 73.9116 66.0539C74.7639 65.5165 75.4964 64.9312 75.9078 64.3906C76.1137 64.12 76.2219 63.8828 76.244 63.6856C76.2644 63.5036 76.2145 63.3365 76.0526 63.1746C75.8927 63.0147 75.7845 62.8454 75.7199 62.646C75.657 62.4523 75.6399 62.2443 75.64 62.0161C75.64 61.832 75.6514 61.6192 75.6646 61.3765C75.6676 61.3206 75.6707 61.2632 75.6737 61.2041C75.6903 60.8845 75.7068 60.5052 75.7068 60.0438C75.7068 58.7869 76.0577 57.9867 76.5066 57.463C76.9076 56.9951 77.3728 56.7683 77.6475 56.6343C77.676 56.6205 77.7024 56.6076 77.7265 56.5955L77.8104 56.5536L77.9021 56.5732C78.1695 56.6305 78.3287 56.5953 78.4272 56.5436C78.5281 56.4907 78.6029 56.4007 78.6638 56.2798C78.7175 56.1732 78.7515 56.0627 78.786 55.9502C78.7922 55.9302 78.7984 55.9101 78.8047 55.8899C78.8228 55.8321 78.8471 55.7568 78.8808 55.6947C78.8997 55.6597 78.954 55.5677 79.058 55.5229C79.0581 55.5227 79.0582 55.5225 79.0584 55.5223C79.0876 55.4668 79.1248 55.3737 79.167 55.2411C79.2503 54.9794 79.3399 54.6063 79.4225 54.1769C79.5878 53.3172 79.7185 52.2656 79.7185 51.4863C79.7185 50.7658 80.1106 49.9089 80.5589 49.1624C81.0145 48.4038 81.5598 47.7086 81.9254 47.2972L82.2282 46.9566L84.437 53.307L86.0625 52.9006L83.9726 46.3697L86.1443 42.8407C86.2173 42.0493 86.0906 40.4271 85.9373 38.9039C85.865 38.1857 85.7879 37.499 85.7259 36.9467C85.7211 36.904 85.7164 36.8621 85.7118 36.821C85.6798 36.5355 85.6525 36.2902 85.6332 36.1029C85.6146 35.9228 85.6014 35.7787 85.6014 35.7082C85.6014 35.6374 85.6233 35.577 85.6421 35.536C85.6622 35.492 85.6884 35.4499 85.7162 35.411C85.7718 35.3332 85.8479 35.2484 85.9386 35.16C86.1211 34.982 86.3834 34.7689 86.7156 34.5396C87.3813 34.08 88.3447 33.5436 89.5512 33.0848C91.8283 32.2189 94.9812 31.6259 98.6379 32.3596C96.4749 29.3945 92.7516 27.3623 88.5901 26.7375ZM88.6695 26.2086C93.2004 26.8889 97.2754 29.2005 99.4654 32.6223L99.8239 33.1825L99.1774 33.0264C95.3615 32.1054 92.0741 32.6976 89.7413 33.5847C88.5743 34.0285 87.6491 34.545 87.0194 34.9797C86.704 35.1975 86.467 35.3918 86.312 35.5429C86.234 35.619 86.1819 35.6791 86.1515 35.7218C86.1456 35.73 86.141 35.7369 86.1376 35.7424C86.1407 35.7966 86.1497 35.8977 86.1652 36.048C86.1842 36.2326 86.2112 36.4754 86.2433 36.7614C86.2479 36.8026 86.2527 36.8447 86.2575 36.8876C86.3195 37.4397 86.3968 38.1291 86.4694 38.8504C86.6245 40.3909 86.7629 42.1214 86.6699 42.9582L86.6633 43.0178L84.5569 46.4407L86.7458 53.2811L84.0924 53.9444L82.0267 48.0053C81.714 48.391 81.3412 48.8987 81.0175 49.4378C80.5744 50.1755 80.2533 50.9231 80.2533 51.4863C80.2533 52.3115 80.1166 53.3993 79.9477 54.2779C79.8631 54.7176 79.7689 55.1134 79.6767 55.4032C79.6311 55.5464 79.5826 55.6747 79.5314 55.7718C79.5064 55.8193 79.4741 55.8722 79.4324 55.9169C79.4133 55.9375 79.38 55.9694 79.3332 55.9946C79.3282 56.0088 79.3222 56.0269 79.3151 56.0497C79.3104 56.0649 79.3053 56.0815 79.2998 56.0994C79.266 56.2104 79.2175 56.3696 79.1414 56.5206C79.0507 56.7005 78.9092 56.8947 78.6758 57.0172C78.461 57.1299 78.1986 57.1662 77.8842 57.1141C77.884 57.1142 77.8838 57.1144 77.8835 57.1145C77.6098 57.2488 77.2384 57.431 76.9127 57.811C76.5594 58.2233 76.2417 58.8939 76.2417 60.0438C76.2417 60.5184 76.2247 60.908 76.2079 61.2319C76.2046 61.2948 76.2014 61.3548 76.1983 61.4122C76.1853 61.6536 76.1748 61.8479 76.1748 62.0161C76.1748 62.2224 76.1911 62.3654 76.2286 62.481C76.2642 62.5907 76.3232 62.6889 76.4308 62.7964C76.7047 63.0703 76.8145 63.3973 76.7756 63.7451C76.7383 64.0776 76.5682 64.406 76.3334 64.7145C75.8637 65.3317 75.0667 65.9579 74.1968 66.5063C73.3219 67.058 72.3498 67.5455 71.5088 67.8793C71.0885 68.0461 70.696 68.1764 70.3614 68.2566C70.0377 68.3343 69.7319 68.3745 69.5039 68.3289C69.1059 68.2493 68.5954 67.9663 68.123 67.5376C67.6451 67.1039 67.1839 66.5016 66.8995 65.755C66.3225 64.2407 66.4952 62.1994 68.5533 59.8669C70.5705 57.5807 71.9524 56.4314 72.8193 55.7847C73.0328 55.6254 73.2142 55.4972 73.3634 55.3919L73.3684 55.3883C73.5209 55.2806 73.6329 55.2013 73.7161 55.1344C73.7599 55.0993 73.7894 55.0725 73.8091 55.0523C72.8684 54.1282 71.9253 52.563 71.1629 50.6449C70.3679 48.6449 69.7597 46.2372 69.5569 43.719C69.1517 38.6876 70.3643 33.1647 75.01 29.6124C79.1119 26.4758 84.1342 25.5277 88.6695 26.2086ZM79.3511 55.9493C79.3542 55.9436 79.3542 55.9448 79.3507 55.9501C79.3508 55.9499 79.351 55.9496 79.3511 55.9493ZM86.1284 35.7587C86.1283 35.7588 86.1284 35.7586 86.1284 35.7587V35.7587Z" fill="#242424"/>
<path d="M97.9031 41.8589L91.7523 44.5332C90.4152 45.8703 92.5546 46.4052 93.0894 46.6726C93.5173 46.8865 96.2985 47.2966 97.6357 47.4749C98.0814 46.2269 98.9728 43.624 98.9728 43.1961C98.9728 42.7682 98.2597 42.1264 97.9031 41.8589Z" fill="#E2C5A2"/>
<path d="M100.31 41.8589C100.31 41.2171 101.38 40.5218 101.914 40.2544C101.825 41.5024 101.594 43.9983 101.38 43.9983C101.112 43.9983 100.31 42.6612 100.31 41.8589Z" fill="#E2C5A2"/>
<path d="M104.321 51.2188L99.7751 52.4751L103.786 53.0099L104.321 51.2188Z" fill="#E2C5A2"/>
<path d="M151.388 115.936H144.435C137.506 124.996 139.341 129.277 140.148 131.159L140.156 131.179C140.959 133.051 145.237 133.051 146.574 133.051C147.912 133.051 150.586 131.981 152.993 131.981C155.399 131.981 157.806 130.377 159.143 130.109C160.213 129.895 160.659 128.237 160.748 127.435C158.43 126.098 153.528 123.103 152.458 121.819C151.121 120.214 153.26 118.075 154.33 118.075C155.186 118.075 157.539 117.362 158.609 117.005C158.876 116.292 158.983 114.812 157.271 114.598C155.56 114.385 152.636 115.401 151.388 115.936Z" fill="#FFE5C6"/>
<path fill-rule="evenodd" clip-rule="evenodd" d="M154.225 115.245C153.138 115.535 152.107 115.919 151.493 116.182L151.443 116.203H144.567C141.182 120.657 139.952 123.915 139.656 126.273C139.358 128.639 139.996 130.126 140.393 131.053L140.394 131.054L140.402 131.074C140.568 131.46 140.923 131.773 141.428 132.021C141.931 132.269 142.555 132.439 143.211 132.554C144.522 132.783 145.905 132.784 146.574 132.784C146.879 132.784 147.274 132.722 147.748 132.622C148.081 132.552 148.442 132.466 148.828 132.373C148.988 132.335 149.153 132.296 149.321 132.256C150.458 131.988 151.755 131.714 152.993 131.714C154.142 131.714 155.305 131.33 156.369 130.898C156.683 130.77 156.978 130.643 157.262 130.52C157.464 130.433 157.66 130.349 157.854 130.268C158.305 130.08 158.728 129.92 159.091 129.847C159.498 129.766 159.826 129.398 160.072 128.879C160.279 128.442 160.402 127.948 160.459 127.577C159.295 126.902 157.571 125.864 155.989 124.831C155.162 124.291 154.371 123.751 153.719 123.265C153.072 122.782 152.542 122.338 152.252 121.99C151.477 121.06 151.733 119.983 152.27 119.195C152.54 118.799 152.89 118.458 153.247 118.214C153.597 117.975 153.985 117.808 154.33 117.808C154.716 117.808 155.483 117.641 156.32 117.416C157.08 117.211 157.865 116.969 158.398 116.794C158.495 116.477 158.542 116.057 158.427 115.696C158.364 115.497 158.253 115.317 158.074 115.174C157.893 115.031 157.628 114.913 157.238 114.864C156.437 114.764 155.321 114.952 154.225 115.245ZM154.087 114.728C155.193 114.433 156.394 114.22 157.305 114.333C157.771 114.392 158.134 114.539 158.406 114.755C158.68 114.973 158.846 115.247 158.937 115.534C159.115 116.097 159.005 116.71 158.859 117.099L158.814 117.219L158.693 117.259C158.154 117.439 157.294 117.708 156.458 117.932C155.637 118.153 154.799 118.343 154.33 118.343C154.14 118.343 153.859 118.443 153.549 118.655C153.246 118.863 152.944 119.157 152.712 119.496C152.247 120.179 152.102 120.974 152.663 121.648C152.908 121.942 153.392 122.354 154.038 122.836C154.678 123.313 155.459 123.847 156.281 124.383C157.925 125.456 159.726 126.537 160.882 127.204L161.033 127.291L161.014 127.465C160.967 127.887 160.827 128.533 160.555 129.107C160.288 129.671 159.859 130.239 159.196 130.372C158.89 130.433 158.511 130.574 158.06 130.762C157.881 130.836 157.688 130.919 157.487 131.006C157.195 131.132 156.884 131.266 156.57 131.393C155.494 131.831 154.25 132.249 152.993 132.249C151.823 132.249 150.58 132.509 149.444 132.777C149.28 132.815 149.119 132.854 148.96 132.892C148.572 132.985 148.199 133.074 147.858 133.146C147.379 133.246 146.938 133.319 146.574 133.319H146.57C145.901 133.319 144.479 133.319 143.119 133.081C142.438 132.961 141.758 132.78 141.191 132.501C140.626 132.223 140.146 131.834 139.91 131.284L139.902 131.265C139.493 130.309 138.81 128.715 139.125 126.206C139.44 123.706 140.74 120.327 144.223 115.773L144.303 115.668H151.334C151.972 115.398 153.001 115.018 154.087 114.728Z" fill="black"/>
<path fill-rule="evenodd" clip-rule="evenodd" d="M104.65 56.0255L100.104 57.0952L99.9812 56.5746L104.527 55.5049L104.65 56.0255ZM101.845 59.1321C101.264 59.2144 100.677 59.2417 100.31 59.2417V58.7069C100.656 58.7069 101.218 58.6807 101.77 58.6026C102.336 58.5224 102.838 58.394 103.103 58.2169L103.4 58.662C103.024 58.9128 102.411 59.0518 101.845 59.1321Z" fill="#D4B590"/>
<path fill-rule="evenodd" clip-rule="evenodd" d="M102.953 64.4644L109.759 77.2599L102.246 81.6638L109.737 84.7633L97.3537 120.836L96.8478 120.662L109.068 85.0652L101.048 81.7465L109.046 77.058L102.481 64.7155L102.953 64.4644Z" fill="black"/>
<path fill-rule="evenodd" clip-rule="evenodd" d="M66.3469 82.8254V67.5317H65.8121V83.2594L75.8 85.3621L70.5559 93.2283L95.0293 120.66L95.4284 120.304L71.2304 93.1808L76.6833 85.0015L66.3469 82.8254Z" fill="black"/>
<path fill-rule="evenodd" clip-rule="evenodd" d="M88.2501 71.9653L97.813 80.4353L97.4584 80.8357L88.3015 72.7253L80.1883 82.1471L79.783 81.7981L88.2501 71.9653Z" fill="black"/>
<path fill-rule="evenodd" clip-rule="evenodd" d="M89.3457 104.448L88.0085 72.624L88.5429 72.6016L89.88 104.425L89.3457 104.448Z" fill="black"/>
<path d="M119.565 98.2857V88.9258L117.96 110.587L119.565 112.994V111.657L124.111 109.785L119.565 105.774H125.983L119.565 99.8902L129.994 101.762V98.2857H119.565Z" fill="black"/>
<path fill-rule="evenodd" clip-rule="evenodd" d="M61.0745 99.0073L50.11 87.7755L50.4928 87.4019L61.4572 98.6337L61.0745 99.0073Z" fill="black"/>
<path fill-rule="evenodd" clip-rule="evenodd" d="M57.3305 106.495L46.3661 95.2633L46.7488 94.8896L57.7132 106.122L57.3305 106.495Z" fill="black"/>
<path d="M60.4636 110.052V114.866H67.1492L58.5916 100.96L60.4636 110.052Z" fill="black"/>
<path d="M100.042 121.552L97.1008 120.749L105.658 95.8789L100.042 121.552Z" fill="black"/>
<path fill-rule="evenodd" clip-rule="evenodd" d="M87.9518 38.284C88.3478 36.2974 88.8382 33.8749 90.887 32.2651L91.5479 33.1063C89.8528 34.4382 89.4072 36.455 89.0009 38.4931C88.9925 38.535 88.9842 38.577 88.9758 38.619C88.7873 39.5663 88.5951 40.5328 88.2496 41.3421C87.8794 42.2091 87.31 42.9545 86.335 43.3445L85.9377 42.3513C86.5673 42.0994 86.9673 41.6213 87.2657 40.9222C87.5666 40.2175 87.7396 39.3491 87.9381 38.3527C87.9427 38.3299 87.9472 38.307 87.9518 38.284Z" fill="black"/>
</g>
<path d="M32.6514 167.281L27.3029 178.246L34.5233 190.547L56.7196 189.478L67.6841 184.664V203.116H79.7182L81.8576 179.315L93.8917 176.374V170.223L104.321 168.886L100.577 159.258L90.6826 129.842L81.8576 118.877L74.9045 117.273C74.1914 116.292 72.2303 114.278 70.0909 114.064C67.9515 113.85 64.0292 114.688 62.3356 115.133H55.9173C52.0664 115.133 46.4683 122.265 44.1506 125.83L32.6514 167.281Z" fill="#917976"/>
<path fill-rule="evenodd" clip-rule="evenodd" d="M66.0891 114.615C64.6388 114.852 63.2432 115.171 62.4036 115.392L62.3701 115.401H55.9173C55.0314 115.401 54.0124 115.814 52.9269 116.527C51.8465 117.237 50.7284 118.225 49.6506 119.332C47.5091 121.53 45.5522 124.17 44.3973 125.942L32.9024 167.377L27.6061 178.234L34.672 190.273L56.6573 189.213L67.9514 184.255V202.849H79.4737L81.6083 179.101L93.6243 176.164V169.988L103.948 168.664L100.326 159.35L90.4443 129.973L81.7072 119.117L74.747 117.511L74.6882 117.43C74.3455 116.959 73.6944 116.229 72.8692 115.593C72.0414 114.954 71.0635 114.43 70.0642 114.33C69.0319 114.227 67.5462 114.377 66.0891 114.615ZM66.0029 114.087C67.4653 113.849 69.0104 113.687 70.1174 113.798C71.2576 113.912 72.3299 114.502 73.1958 115.169C74.0194 115.804 74.6789 116.527 75.0607 117.035L82.0078 118.638L90.9208 129.712L100.829 159.168L104.694 169.108L94.1591 170.459V176.584L82.1068 179.53L79.9626 203.384H67.4166V185.074L56.7818 189.743L34.3746 190.822L26.9996 178.258L32.4002 167.186L43.9039 125.719L43.9264 125.685C45.0921 123.891 47.0816 121.203 49.2674 118.958C50.3601 117.837 51.5085 116.819 52.6332 116.08C53.7528 115.345 54.8778 114.866 55.9173 114.866H62.301C63.1582 114.642 64.5529 114.324 66.0029 114.087Z" fill="black"/>
<path fill-rule="evenodd" clip-rule="evenodd" d="M68.2983 118.07L74.9258 117.539L74.8831 117.006L68.1394 117.546L56.503 124.041L40.1225 168.348L42.2672 174.514L41.2675 178.513H36.8772L34.7843 169.095L34.2622 169.211L36.4481 179.048H41.6851L42.8248 174.489L40.6907 168.354L56.9361 124.411L68.2983 118.07Z" fill="black"/>
<path fill-rule="evenodd" clip-rule="evenodd" d="M72.1686 118.597L81.0553 119.986V124.226H80.5204V120.443L72.2919 119.158L67.6094 122.279L62.8456 129.425L56.9714 147.315L49.4809 166.576L48.9824 166.382L56.4677 147.134L62.3602 129.189L67.2237 121.894L72.1686 118.597Z" fill="black"/>
<path fill-rule="evenodd" clip-rule="evenodd" d="M67.4167 184.12L68.4864 151.762L69.021 151.779L67.9513 184.138L67.4167 184.12Z" fill="black"/>
<path fill-rule="evenodd" clip-rule="evenodd" d="M85.0654 148.855L82.1237 179.074L81.5914 179.022L84.533 148.803L85.0654 148.855Z" fill="black"/>
<path fill-rule="evenodd" clip-rule="evenodd" d="M92.5547 150.444L93.0513 150.296L97.8649 158.319L97.4063 158.594L93.1316 151.469L93.8914 170.212L93.357 170.234L92.5547 150.444Z" fill="black"/>
<path fill-rule="evenodd" clip-rule="evenodd" d="M67.1673 149.535L67.666 149.728L62.603 162.785V168.858L63.3783 172.476L67.5771 175.625L67.2562 176.053L62.8973 172.784L62.0681 168.914V162.685L67.1673 149.535Z" fill="black"/>
<path d="M96.2985 125.831L87.7409 132.249L93.8917 133.586V136.795L106.193 125.831H96.2985Z" fill="white"/>
<path fill-rule="evenodd" clip-rule="evenodd" d="M83.6504 129.164C82.3885 128.559 79.5166 127.712 76.578 128.496C75.6694 128.738 74.8811 129.475 74.2165 130.543C73.5543 131.607 73.0363 132.967 72.6558 134.39C72.2757 135.811 72.0358 137.283 71.9242 138.565C71.8121 139.852 71.8315 140.925 71.9576 141.556C72.1425 142.48 73.0008 143.102 74.1176 143.496C75.1453 143.858 76.3145 143.996 77.1374 144.013L83.6504 129.164ZM76.4402 127.979C79.7339 127.1 82.9247 128.158 84.1237 128.804L84.3409 128.921L77.4861 144.55H77.3113C76.4437 144.55 75.1149 144.414 73.9399 144C72.779 143.591 71.6762 142.876 71.4332 141.661C71.292 140.955 71.2779 139.821 71.3914 138.518C71.5054 137.209 71.7503 135.706 72.1391 134.252C72.5273 132.8 73.0623 131.386 73.7624 130.26C74.4599 129.139 75.3431 128.271 76.4402 127.979Z" fill="white"/>
<path d="M71.6955 141.609C72.1234 143.748 75.6177 144.283 77.3114 144.283L83.997 129.04C82.8382 128.416 79.7183 127.381 76.5092 128.237C72.4978 129.307 71.1607 138.934 71.6955 141.609Z" fill="white"/>
<path d="M77.3114 130.377C74.0776 133.023 73.924 137.419 73.8348 140.272C74.9045 143.748 79.7182 145.085 84.7993 145.888C89.8803 146.69 92.0197 141.341 93.8917 140.272C95.7637 139.202 93.8917 137.33 93.8917 136.795V133.586L88.2758 132.249L91.2175 130.109C87.117 129.575 80.253 127.97 77.3114 130.377Z" fill="#FFE5C6"/>
<path fill-rule="evenodd" clip-rule="evenodd" d="M96.2093 125.563H106.895L93.6242 137.391V133.801L87.1124 132.386L96.2093 125.563ZM96.3876 126.098L88.3693 132.112L94.1591 133.37V136.198L105.491 126.098H96.3876Z" fill="black"/>
<path fill-rule="evenodd" clip-rule="evenodd" d="M80.1908 129.508C79.0956 129.684 78.1662 130.023 77.4807 130.584C74.3715 133.128 74.1937 137.36 74.1035 140.235C74.616 141.843 75.9963 142.99 77.9206 143.838C79.8598 144.692 82.3052 145.223 84.8409 145.623C87.2636 146.006 88.9881 144.931 90.3621 143.59C90.9383 143.028 91.445 142.426 91.9158 141.867C92.0092 141.756 92.1011 141.647 92.192 141.54C92.7283 140.909 93.2428 140.334 93.759 140.039C94.1777 139.8 94.3567 139.536 94.4227 139.284C94.4914 139.023 94.4497 138.731 94.3412 138.421C94.2347 138.116 94.0744 137.823 93.9281 137.556L93.9203 137.542C93.8483 137.41 93.7774 137.28 93.725 137.165C93.6767 137.058 93.6242 136.924 93.6242 136.795V133.797L87.6484 132.374L90.5233 130.283C90.0483 130.215 89.5475 130.137 89.0283 130.056C87.392 129.802 85.5741 129.52 83.8126 129.407C82.5246 129.324 81.2847 129.333 80.1908 129.508ZM89.144 129.533C89.902 129.65 90.6142 129.761 91.252 129.844L91.9174 129.931L88.903 132.123L94.1591 133.375V136.795C94.1591 136.794 94.1591 136.795 94.1591 136.795C94.1592 136.795 94.1599 136.806 94.168 136.832C94.1766 136.86 94.1908 136.897 94.2119 136.943C94.2546 137.037 94.3153 137.149 94.3895 137.285L94.4041 137.312C94.5461 137.571 94.7247 137.898 94.8461 138.244C94.9716 138.603 95.0469 139.013 94.9401 139.42C94.8306 139.837 94.5416 140.208 94.0243 140.504C93.6045 140.744 93.1497 141.239 92.5996 141.886C92.5115 141.99 92.4215 142.097 92.3293 142.206C91.8585 142.765 91.3323 143.39 90.7357 143.973C89.3016 145.373 87.4159 146.571 84.7575 146.152C82.2121 145.75 79.7101 145.211 77.7049 144.327C75.7013 143.444 74.1471 142.196 73.5792 140.35L73.5661 140.308L73.5675 140.263C73.6559 137.433 73.7999 132.904 77.142 130.17C77.9273 129.527 78.959 129.164 80.1062 128.98C81.2548 128.796 82.5387 128.789 83.847 128.873C85.6321 128.988 87.4961 129.277 89.144 129.533Z" fill="black"/>
<defs>
<linearGradient id="paint0_linear_2134_25045" x1="180" y1="8.01351e-06" x2="-27.5068" y2="138.91" gradientUnits="userSpaceOnUse">
<stop stop-color="#A8F8A0"/>
<stop offset="1" stop-color="#83D9F5"/>
</linearGradient>
<linearGradient id="paint1_linear_2134_25045" x1="180" y1="8.01351e-06" x2="-27.5068" y2="138.91" gradientUnits="userSpaceOnUse">
<stop stop-color="#A8F8A0"/>
<stop offset="1" stop-color="#83D9F5"/>
</linearGradient>
</defs>
</svg>
