<svg width="32" height="32" viewBox="0 0 32 32" fill="none" xmlns="http://www.w3.org/2000/svg">
<path fill-rule="evenodd" clip-rule="evenodd" d="M0.64382 28.2551C-0.212903 29.112 -0.212771 30.5009 0.644084 31.3575C1.50094 32.2142 2.89004 32.2142 3.74674 31.3573L16.0003 19.1026L28.2548 31.3562C29.1116 32.2129 30.5007 32.2129 31.3575 31.3562C32.2142 30.4996 32.2142 29.1105 31.3575 28.2538L19.1027 16L31.3566 3.74484C32.2131 2.88805 32.2131 1.49905 31.3561 0.642413C30.4994 -0.214247 29.1102 -0.214116 28.2535 0.642675L15.9998 12.8976L3.74525 0.643729C2.88848 -0.212975 1.49936 -0.212975 0.642592 0.643729C-0.214197 1.50045 -0.214197 2.88945 0.642592 3.74617L12.8976 16.0002L0.64382 28.2551Z" fill="#B2B2B2"/>
</svg>
