<svg width="20" height="20" viewBox="0 0 24 24" fill="none" xmlns="http://www.w3.org/2000/svg">
<path fill-rule="evenodd" clip-rule="evenodd" d="M4.23793 11.2173C3.63208 11.2174 3.14109 11.7085 3.14116 12.3143C3.14123 12.9201 3.63235 13.4112 4.23819 13.4112L10.9032 13.4107L10.9035 20.0757C10.9035 20.6815 11.3947 21.1726 12.0004 21.1726C12.6062 21.1727 13.0973 20.6815 13.0973 20.0758L13.097 13.4107L19.7622 13.4102C20.368 13.4101 20.8591 12.919 20.8589 12.3132C20.8589 11.7074 20.3677 11.2163 19.7619 11.2163L13.0968 11.2168L13.0966 4.55174C13.0965 3.94593 12.6054 3.45481 11.9996 3.45478C11.3938 3.45476 10.9027 3.94584 10.9027 4.55166L10.9031 11.2169L4.23793 11.2173Z" fill="#1D1C1C"/>
</svg>
