<svg width="27" height="28" viewBox="0 0 27 28" fill="none" xmlns="http://www.w3.org/2000/svg">
<path d="M10.5699 16.6613C9.82798 16.6613 9.2312 16.0645 9.2312 15.3387C9.2312 14.5968 9.82798 14 10.5699 14C11.3011 14 11.8925 14.5968 11.8925 15.3387C11.8925 16.0699 11.2957 16.6613 10.5699 16.6613ZM26.8334 14C26.8334 21.3656 20.8656 27.3334 13.5 27.3334C6.13443 27.3334 0.166687 21.3656 0.166687 14C0.166687 6.63443 6.13443 0.666687 13.5 0.666687C20.8656 0.666687 26.8334 6.63443 26.8334 14ZM19.7205 11.785C19.2151 11.785 18.7688 11.9946 18.4409 12.3226C17.2366 11.4893 15.6129 10.9516 13.8118 10.8925L14.7473 6.68282L17.7258 7.35486C17.7258 8.08604 18.3226 8.67744 19.0484 8.67744C19.7903 8.67744 20.3871 8.06991 20.3871 7.33873C20.3871 6.60755 19.7903 6.00002 19.0484 6.00002C18.5269 6.00002 18.0807 6.31185 17.8602 6.74196L14.5699 6.01077C14.4086 5.96776 14.242 6.08604 14.1989 6.24733L13.1721 10.8925C11.3871 10.9678 9.77959 11.5 8.57529 12.3334C8.24733 11.9893 7.78497 11.785 7.27959 11.785C5.40325 11.785 4.79034 14.3065 6.5054 15.1613C6.44626 15.4301 6.414 15.7097 6.414 15.9946C6.414 18.8226 9.5968 21.1129 13.5108 21.1129C17.4409 21.1129 20.6237 18.8226 20.6237 15.9946C20.6237 15.7097 20.5914 15.414 20.5215 15.1452C22.2043 14.285 21.586 11.785 19.7205 11.785ZM16.0161 18.0323C15.0377 19.0108 11.9248 18.9946 10.9839 18.0323C10.8656 17.914 10.6559 17.914 10.5377 18.0323C10.4032 18.1667 10.4032 18.3764 10.5377 18.4946C11.7635 19.7205 15.2312 19.7205 16.4624 18.4946C16.5968 18.3764 16.5968 18.1667 16.4624 18.0323C16.3441 17.914 16.1344 17.914 16.0161 18.0323ZM16.4301 14C15.6989 14 15.1075 14.5968 15.1075 15.3387C15.1075 16.0699 15.7043 16.6613 16.4301 16.6613C17.1721 16.6613 17.7688 16.0645 17.7688 15.3387C17.7688 14.5968 17.1774 14 16.4301 14Z" fill="#242424"/>
</svg>
