<svg xmlns="http://www.w3.org/2000/svg" width="24" height="24" viewBox="0 0 24 24" fill="none">
<path d="M15.0769 5.09151C15.0798 4.57596 14.9529 4.06797 14.7079 3.61426C14.4628 3.16056 14.1075 2.77571 13.6746 2.49513C13.2417 2.21456 12.7451 2.04726 12.2306 2.00864C11.716 1.97002 11.2 2.06131 10.73 2.27411C10.26 2.48691 9.85114 2.81439 9.54099 3.22643C9.23084 3.63846 9.02938 4.1218 8.95515 4.632C8.88092 5.14219 8.9363 5.66284 9.1162 6.14605C9.2961 6.62925 9.59473 7.0595 9.98463 7.39719C9.65362 7.68387 9.38768 8.03785 9.20461 8.43548C9.02155 8.83311 8.92557 9.2652 8.9231 9.70288C8.9231 9.90671 9.00414 10.1022 9.1484 10.2463C9.29266 10.3905 9.48831 10.4714 9.69233 10.4714C9.89634 10.4714 10.092 10.3905 10.2363 10.2463C10.3805 10.1022 10.4616 9.90671 10.4616 9.70288C10.4616 9.29521 10.6236 8.90423 10.9122 8.61597C11.2007 8.3277 11.592 8.16575 12 8.16575C12.408 8.16575 12.7994 8.3277 13.0879 8.61597C13.3764 8.90423 13.5385 9.29521 13.5385 9.70288C13.5385 9.90671 13.6195 10.1022 13.7638 10.2463C13.908 10.3905 14.1037 10.4714 14.3077 10.4714C14.5117 10.4714 14.7074 10.3905 14.8516 10.2463C14.9959 10.1022 15.0769 9.90671 15.0769 9.70288C15.0745 9.2652 14.9785 8.83311 14.7954 8.43548C14.6123 8.03785 14.3464 7.68387 14.0154 7.39719C14.3464 7.11052 14.6123 6.75653 14.7954 6.35891C14.9785 5.96128 15.0745 5.52918 15.0769 5.09151ZM10.4616 5.09151C10.4616 4.78749 10.5518 4.49031 10.7208 4.23753C10.8899 3.98475 11.1302 3.78773 11.4113 3.67139C11.6924 3.55505 12.0017 3.52461 12.3002 3.58392C12.5986 3.64323 12.8727 3.78963 13.0879 4.0046C13.303 4.21957 13.4496 4.49346 13.5089 4.79163C13.5683 5.0898 13.5378 5.39887 13.4214 5.67974C13.3049 5.96061 13.1077 6.20068 12.8547 6.36958C12.6017 6.53848 12.3043 6.62863 12 6.62863C11.592 6.62863 11.2007 6.46668 10.9122 6.17842C10.6236 5.89015 10.4616 5.49918 10.4616 5.09151Z" />
<path d="M8.15384 16.6198C8.15674 16.1043 8.02982 15.5963 7.78477 15.1426C7.53971 14.6889 7.18439 14.304 6.7515 14.0235C6.3186 13.7429 5.82203 13.5756 5.30748 13.537C4.79293 13.4983 4.27692 13.5896 3.80692 13.8024C3.33693 14.0152 2.92804 14.3427 2.61789 14.7547C2.30774 15.1668 2.10628 15.6501 2.03205 16.1603C1.95782 16.6705 2.01321 17.1912 2.1931 17.6744C2.373 18.1576 2.67164 18.5878 3.06154 18.9255L2.9 19.0562C2.61436 19.3419 2.38785 19.681 2.23343 20.0542C2.079 20.4274 1.99968 20.8274 2 21.2312C2 21.435 2.08104 21.6305 2.2253 21.7747C2.36956 21.9188 2.56522 21.9998 2.76923 21.9998C2.97324 21.9998 3.1689 21.9188 3.31316 21.7747C3.45742 21.6305 3.53846 21.435 3.53846 21.2312C3.53846 20.8235 3.70055 20.4326 3.98907 20.1443C4.27758 19.856 4.6689 19.6941 5.07692 19.6941C5.48495 19.6941 5.87626 19.856 6.16478 20.1443C6.45329 20.4326 6.61538 20.8235 6.61538 21.2312C6.61538 21.435 6.69643 21.6305 6.84068 21.7747C6.98494 21.9188 7.1806 21.9998 7.38461 21.9998C7.58862 21.9998 7.78428 21.9188 7.92854 21.7747C8.0728 21.6305 8.15384 21.435 8.15384 21.2312C8.15137 20.7935 8.05539 20.3614 7.87232 19.9638C7.68926 19.5662 7.42332 19.2122 7.0923 18.9255C7.42332 18.6388 7.68926 18.2849 7.87232 17.8872C8.05539 17.4896 8.15137 17.0575 8.15384 16.6198ZM5.07692 15.0827C5.3812 15.0827 5.67865 15.1729 5.93164 15.3418C6.18464 15.5107 6.38183 15.7507 6.49827 16.0316C6.61472 16.3125 6.64518 16.6215 6.58582 16.9197C6.52646 17.2179 6.37993 17.4918 6.16478 17.7067C5.94962 17.9217 5.67549 18.0681 5.37706 18.1274C5.07863 18.1867 4.76929 18.1563 4.48818 18.0399C4.20706 17.9236 3.96679 17.7266 3.79774 17.4738C3.62869 17.221 3.53846 16.9238 3.53846 16.6198C3.53846 16.2122 3.70055 15.8212 3.98907 15.5329C4.27758 15.2447 4.6689 15.0827 5.07692 15.0827Z" />
<path d="M20.9385 18.9256C21.4124 18.5151 21.7495 17.9697 21.9046 17.3624C22.0596 16.7552 22.0252 16.1151 21.8059 15.528C21.5867 14.9408 21.1931 14.4346 20.6778 14.0772C20.1626 13.7198 19.5503 13.5283 18.9231 13.5283C18.2959 13.5283 17.6836 13.7198 17.1684 14.0772C16.6532 14.4346 16.2595 14.9408 16.0403 15.528C15.821 16.1151 15.7866 16.7552 15.9417 17.3624C16.0967 17.9697 16.4338 18.5151 16.9077 18.9256C16.5767 19.2122 16.3108 19.5662 16.1277 19.9638C15.9446 20.3615 15.8487 20.7936 15.8462 21.2312C15.8462 21.4351 15.9272 21.6306 16.0715 21.7747C16.2158 21.9188 16.4114 21.9998 16.6154 21.9998C16.8194 21.9998 17.0151 21.9188 17.1593 21.7747C17.3036 21.6306 17.3847 21.4351 17.3847 21.2312C17.3847 20.8236 17.5467 20.4326 17.8353 20.1443C18.1238 19.8561 18.5151 19.6941 18.9231 19.6941C19.3311 19.6941 19.7224 19.8561 20.011 20.1443C20.2995 20.4326 20.4616 20.8236 20.4616 21.2312C20.4616 21.4351 20.5426 21.6306 20.6869 21.7747C20.8311 21.9188 21.0268 21.9998 21.2308 21.9998C21.4348 21.9998 21.6305 21.9188 21.7747 21.7747C21.919 21.6306 22 21.4351 22 21.2312C21.9976 20.7936 21.9016 20.3615 21.7185 19.9638C21.5354 19.5662 21.2695 19.2122 20.9385 18.9256ZM17.3847 16.6199C17.3847 16.3159 17.4749 16.0187 17.6439 15.7659C17.813 15.5131 18.0533 15.3161 18.3344 15.1998C18.6155 15.0834 18.9248 15.053 19.2233 15.1123C19.5217 15.1716 19.7958 15.318 20.011 15.533C20.2261 15.7479 20.3726 16.0218 20.432 16.32C20.4914 16.6182 20.4609 16.9272 20.3445 17.2081C20.228 17.489 20.0308 17.729 19.7778 17.8979C19.5248 18.0668 19.2274 18.157 18.9231 18.157C18.5151 18.157 18.1238 17.995 17.8353 17.7068C17.5467 17.4185 17.3847 17.0275 17.3847 16.6199Z" />
<path d="M13.5385 15.8516H12.7693V12.0088C12.7693 11.805 12.6883 11.6095 12.544 11.4653C12.3997 11.3212 12.2041 11.2402 12.0001 11.2402C11.7961 11.2402 11.6004 11.3212 11.4561 11.4653C11.3119 11.6095 11.2308 11.805 11.2308 12.0088V15.8516H10.4616C10.2576 15.8516 10.0619 15.9326 9.91769 16.0767C9.77343 16.2208 9.69238 16.4163 9.69238 16.6202C9.69238 16.824 9.77343 17.0195 9.91769 17.1636C10.0619 17.3078 10.2576 17.3887 10.4616 17.3887H13.5385C13.7425 17.3887 13.9382 17.3078 14.0825 17.1636C14.2267 17.0195 14.3078 16.824 14.3078 16.6202C14.3078 16.4163 14.2267 16.2208 14.0825 16.0767C13.9382 15.9326 13.7425 15.8516 13.5385 15.8516Z" />
</svg>