<svg width="40" height="40" viewBox="0 0 40 40" fill="none" xmlns="http://www.w3.org/2000/svg">
<path d="M0 20C0 8.95431 8.95431 0 20 0C31.0457 0 40 8.95431 40 20C40 31.0457 31.0457 40 20 40C8.95431 40 0 31.0457 0 20Z" fill="#242424"/>
<path fill-rule="evenodd" clip-rule="evenodd" d="M11.3182 19.3388C11.3097 19.3468 11.3012 19.3549 11.2929 19.3633C11.0439 19.6123 10.9537 19.9599 11.0222 20.2804C11.0611 20.4628 11.1513 20.6365 11.293 20.7782C11.2998 20.7849 11.3065 20.7915 11.3134 20.798L18.364 27.8485C18.7545 28.2391 19.3877 28.2391 19.7782 27.8485C20.1687 27.458 20.1687 26.8248 19.7782 26.4343L14.4146 21.0707H28.5856C29.1379 21.0707 29.5856 20.623 29.5856 20.0707C29.5856 19.5184 29.1379 19.0707 28.5856 19.0707H14.4147L19.7783 13.7071C20.1688 13.3166 20.1688 12.6834 19.7783 12.2929C19.3878 11.9024 18.7546 11.9024 18.3641 12.2929L11.3182 19.3388Z" fill="#B2B2B2"/>
</svg>
