<svg width="18" height="20" viewBox="0 0 18 20" fill="none" xmlns="http://www.w3.org/2000/svg">
<path d="M14.4061 12.5115C13.9144 12.5146 13.4298 12.6305 12.9883 12.8507C12.5467 13.0709 12.1597 13.3897 11.8558 13.7832L6.43498 10.7136C6.60073 10.1489 6.60073 9.54715 6.43498 8.98241L11.8558 5.91282C12.3395 6.52664 13.0211 6.94615 13.7796 7.09691C14.5381 7.24767 15.3246 7.11995 15.9995 6.73638C16.6743 6.35282 17.1939 5.73823 17.466 5.00166C17.7382 4.26508 17.7453 3.45415 17.4861 2.71275C17.2269 1.97134 16.7182 1.3474 16.0502 0.951632C15.3822 0.555863 14.5981 0.413855 13.837 0.550803C13.0759 0.687752 12.3871 1.0948 11.8928 1.69973C11.3984 2.30466 11.1305 3.06836 11.1365 3.85532C11.1404 4.14816 11.1822 4.43921 11.2608 4.72093L5.83993 7.79053C5.41977 7.24625 4.84343 6.84889 4.19112 6.65375C3.53881 6.4586 2.84298 6.47538 2.20047 6.70174C1.55796 6.92811 1.00074 7.3528 0.606342 7.91672C0.211946 8.48063 0 9.15572 0 9.84803C0 10.5403 0.211946 11.2154 0.606342 11.7793C1.00074 12.3433 1.55796 12.7679 2.20047 12.9943C2.84298 13.2207 3.53881 13.2375 4.19112 13.0423C4.84343 12.8472 5.41977 12.4498 5.83993 11.9055L11.2608 14.9751C11.083 15.6475 11.1167 16.3597 11.3572 17.0115C11.5977 17.6634 12.0328 18.222 12.6014 18.6089C13.17 18.9958 13.8433 19.1913 14.5268 19.1682C15.2102 19.145 15.8693 18.9041 16.4113 18.4796C16.9533 18.055 17.351 17.4681 17.5483 16.8014C17.7456 16.1347 17.7327 15.4218 17.5113 14.763C17.29 14.1042 16.8713 13.5326 16.3143 13.1287C15.7572 12.7248 15.0899 12.5089 14.4061 12.5115ZM14.4061 1.85775C14.794 1.85775 15.1733 1.9749 15.4959 2.1944C15.8185 2.41389 16.07 2.72587 16.2184 3.09088C16.3669 3.45589 16.4058 3.85753 16.3301 4.24502C16.2544 4.63251 16.0675 4.98845 15.7932 5.26781C15.5188 5.54718 15.1693 5.73743 14.7888 5.81451C14.4082 5.89158 14.0138 5.85202 13.6553 5.70083C13.2969 5.54964 12.9905 5.29361 12.775 4.96511C12.5594 4.63661 12.4443 4.2504 12.4443 3.85532C12.4443 3.32553 12.651 2.81744 13.0189 2.44282C13.3868 2.0682 13.8858 1.85775 14.4061 1.85775ZM3.28971 11.8456C2.90172 11.8456 2.52245 11.7284 2.19985 11.5089C1.87724 11.2895 1.62581 10.9775 1.47733 10.6125C1.32885 10.2475 1.29001 9.84581 1.3657 9.45832C1.44139 9.07083 1.62823 8.7149 1.90258 8.43553C2.17692 8.15617 2.52647 7.96592 2.907 7.88884C3.28754 7.81176 3.68197 7.85132 4.04042 8.00251C4.39888 8.15371 4.70526 8.40974 4.92081 8.73824C5.13637 9.06674 5.25142 9.45295 5.25142 9.84803C5.25142 10.3778 5.04474 10.8859 4.67685 11.2605C4.30896 11.6351 3.80999 11.8456 3.28971 11.8456ZM14.4061 17.8383C14.0181 17.8383 13.6388 17.7212 13.3162 17.5017C12.9936 17.2822 12.7421 16.9702 12.5937 16.6052C12.4452 16.2402 12.4063 15.8385 12.482 15.451C12.5577 15.0635 12.7446 14.7076 13.0189 14.4282C13.2933 14.1489 13.6428 13.9586 14.0233 13.8816C14.4039 13.8045 14.7983 13.844 15.1568 13.9952C15.5152 14.1464 15.8216 14.4024 16.0372 14.7309C16.2527 15.0594 16.3678 15.4457 16.3678 15.8407C16.3678 16.3705 16.1611 16.8786 15.7932 17.2532C15.4253 17.6279 14.9263 17.8383 14.4061 17.8383Z"/>
</svg>
