<svg width="238" height="258" viewBox="0 0 238 258" fill="none" xmlns="http://www.w3.org/2000/svg">
<path d="M203.039 200.584C202.493 204.601 192.645 208.455 188.139 206.583C179.519 203.003 168.202 201.59 170.422 193.945" stroke="black" stroke-width="2"/>
<path d="M20.1227 92.0049C22.2977 86.1946 34.0226 73.8828 39.6132 68.4531C51.2329 63.5496 83.436 89.1264 98.0851 102.528L154.145 138.714C158.42 142.574 162.725 154.547 145.744 171.563C128.763 188.579 101.948 179.43 90.6633 172.729C79.0075 169.334 51.6507 157.572 35.4708 137.684C15.246 112.823 17.404 99.2676 20.1227 92.0049Z" fill="white" stroke="black"/>
<path d="M143.735 159.098C144.985 160.991 146.445 166.22 143.535 168.887" stroke="black"/>
<path d="M39.7017 79.3807L54.9524 99.1587L82.8082 115.93C105.155 126.732 151.116 149.658 156.188 154.943C162.529 161.549 152.342 161.816 145.749 166.9C139.157 171.984 128.212 172.62 124.447 171.95C123.638 172.344 113.406 169.82 108.391 168.508C93.1621 162.267 61.9288 149.349 58.8296 147.605C54.9556 145.426 42.9232 130.335 34.6078 120.312C26.2923 110.29 27.6717 98.9898 27.9448 96.9811C28.1633 95.3742 30.4495 90.1351 31.5652 87.7165C32.1208 86.7167 33.5149 84.1418 34.6461 81.8406C35.7773 79.5395 38.4879 79.2419 39.7017 79.3807Z" fill="#E5E5E5"/>
<path d="M43.4857 73.1341C41.0741 75.2454 36.0419 80.1949 35.2059 83.1028C34.1608 86.7375 30.7381 89.3408 29.939 93.4812C29.1399 97.6215 26.0522 104.126 31.2316 113.486C36.411 122.845 45.0683 136.14 59.1773 145.219C73.2863 154.298 113.064 173.084 125.267 172.461C129.53 173.513 134.695 172.563 140.755 170.24C146.815 167.916 155.806 161.978 156.912 152.687" stroke="black" stroke-width="3"/>
<path d="M100.014 77.5165C98.4291 75.2866 88.8598 78.1503 86.9308 78.2552C80.8935 78.4834 74.0405 82.0263 66.9626 85.4702C58.1153 89.775 54.4278 116.892 61.1103 126.771C67.7928 136.65 79.7294 148.974 99.1265 157.356C118.453 162.958 130.779 162.588 135.547 163.394C140.316 164.2 148.12 161.028 149.247 161.418C150.375 161.807 150.764 160.68 153.777 161.089C156.79 161.499 159.48 159.252 159.849 160.011C160.218 160.769 163.408 156.403 160.833 162.033C158.501 167.131 165.849 174.911 169.705 188.041C169.643 189.842 169.69 194.051 170.368 196.472C171.215 199.498 180.111 202.36 186.998 204.949C193.885 207.538 203.477 204.122 203.907 199.223C204.337 194.324 198.195 192.623 196.186 192.35C194.178 192.077 185.555 187.206 186.71 185.082C187.864 182.957 184.346 182.793 186.006 180.422C187.666 178.051 184.659 177.013 185.684 175.264C186.709 173.515 183.826 172.729 185.745 169.607C187.665 166.484 183.682 162.795 186.209 161.565C188.232 160.581 194.64 157.046 197.591 155.402C198.347 155.242 200.973 154.257 205.428 151.589C210.995 148.255 216.474 141.524 213.632 136.968C210.789 132.411 205.344 135.998 204.456 136.743C203.568 137.488 192.828 142.401 195.26 138.404C197.692 134.407 195.554 134.509 195.219 130.608C194.884 126.707 190.518 123.517 190.435 119.493C190.353 115.469 189.219 115.708 184.053 105.091C178.887 94.4741 172.314 86.1052 161.219 89.0028C150.124 91.9003 148.902 100.311 145.226 103.037C141.551 105.763 140.492 110.655 140.246 110.15C140 109.644 135.812 113.245 131.479 109.414C138.893 107.369 140.742 101.467 142.266 100.101C143.789 98.7341 141.788 97.8324 143.454 94.833C145.121 91.8336 144.406 87.4083 144.075 83.9015C143.624 79.119 139.107 71.8629 140.447 70.661C142.176 69.1096 142.845 67.0614 143.022 65.0312C144.286 64.4162 144.287 61.9144 142.181 61.376C144.593 59.2647 142.229 56.9761 141.218 57.4681C143.37 56.1084 142.121 52.9645 140.481 53.4497C141.408 52.9987 143.695 51.636 144.312 50.3351C145.084 48.709 142.807 47.2127 136.614 50.6419C131.96 53.2191 130.559 54.8385 128.354 58.7249C125.354 59.5598 124.828 61.6915 125.041 62.8381C125.456 65.0662 126.037 66.105 127.87 68.6521C127.098 70.2782 127.467 71.0365 128.082 72.3004C126.675 74.5483 127.167 75.5594 127.023 77.1923C125.247 78.6818 125.828 83.0885 125.186 84.3389C124.544 85.5892 125.665 86.6071 125.412 86.7301C125.159 86.8531 125.48 92.0113 124.619 90.2419C123.758 88.4724 123.356 90.8568 122.249 88.5818C121.142 86.3068 120.376 87.3043 119.509 86.1634C118.641 85.0225 117.65 83.6288 117.022 83.622C114.555 79.195 110.654 79.53 109.151 79.0109C107.415 76.7291 101.9 77.5368 100.014 77.5165Z" fill="white" stroke="black"/>
<path d="M84.572 52.2045C93.383 55.9206 94.9122 64.8888 94.5754 68.9084C97.7393 78.6236 88.25 84.1787 82.928 88.0187C77.6061 91.8587 62.5063 81.3861 59.5544 75.3193C56.6025 69.2526 63.4819 60.9032 65.6543 57.6578C67.8267 54.4124 73.5583 47.5594 84.572 52.2045Z" fill="#1D1C1C" stroke="black"/>
<path d="M135.107 111.087C131.937 113.567 113.833 125.19 115.571 162.172" stroke="#41AACC" stroke-width="4"/>
<path d="M61.8525 75.1123C63.2909 55.3692 77.2007 47.9758 84.4498 51.9516C54.6206 24.8862 14.717 68.6871 46.9947 95.1864C62.0921 108.161 95.4456 93.1829 91.2298 87.7311C94.1673 83.4882 94.7028 82.0813 95.8163 79.8721C99.1568 73.2447 93.6482 66.8685 94.3056 68.4147C97.3896 75.6677 85.0612 88.0084 67.7679 83.203C64.5818 82.1115 63.4114 78.3163 61.8525 75.1123Z" fill="white" stroke="black"/>
<path opacity="0.3" d="M57.9781 93.2811C54.7921 92.1896 44.1005 83.7009 42.4678 74.2546C39.2583 55.685 51.1702 48.449 64.0366 43.4391C40.4832 43.4436 21.8675 74.5575 46.9947 95.1864C51.891 98.1187 61.1642 94.3726 57.9781 93.2811Z" fill="#242424"/>
<path d="M64.1389 84.5676C56.3247 89.6901 50.8705 78.4802 58.422 75.466C56.3229 60.3229 71.3211 42.7049 80.9451 49.2452" stroke="black"/>
<path d="M72.1901 127.633C69.0202 130.113 98.8532 173.433 162.029 156.136C163.193 157.029 165.24 159.138 164.12 160.434C162.719 162.053 163.041 167.211 165.132 171.509C167.223 175.806 167.961 177.323 168.084 177.575C168.207 177.828 170.366 187.407 171.487 188.425" stroke="#41AACC" stroke-width="4"/>
<path d="M91.4565 87.6205C86.8019 91.8392 66.8347 99.6008 55.4785 89.495" stroke="black"/>
<path opacity="0.3" d="M176.918 197.661C181.302 201.531 188.404 205.203 199.226 204.314C198.078 205.811 192.244 207.692 189.388 207.225C182.501 204.637 171.098 201.119 170.011 196.958C169.372 194.51 170.229 188.411 169.607 187.776C168.985 187.14 164.462 175.273 161.626 170.088C158.79 164.902 160.826 162.661 161.093 161.281C161.359 159.901 161.741 159.402 161.366 159.273C160.99 159.143 157.458 160.236 156.194 160.851C154.93 161.466 150.414 160.537 148.139 161.644C146.319 162.53 139.487 163.353 136.299 163.654C135.632 163.353 130.752 162.663 116.574 162.309C102.396 161.955 85.4782 150.658 78.7914 145.054C77.0697 145.37 74.3228 139.725 72.3549 135.68C69.8949 130.625 70.5957 128.956 71.9579 125.869C73.8911 121.49 74.0277 120.486 73.9115 119.604C73.8185 118.899 76.6149 121.519 78.0247 122.918C82.5456 127.283 94.5868 137.681 106.585 144.348C118.582 151.015 143.973 151.583 155.168 151.033C155.749 151.584 157.058 152.99 157.649 154.203C158.239 155.417 159.106 151.202 159.466 148.942C159.58 150.033 160.237 152.069 161.953 151.484C163.073 150.188 163.362 149.026 163.367 148.607C163.611 149.322 163.994 151.053 163.579 152.256C163.06 153.759 165.451 153.533 166.599 152.037C167.517 150.84 172.298 171.46 174.574 181.92L174.882 188.336C174.49 189.672 172.535 193.792 176.918 197.661Z" fill="#242424"/>
<path fill-rule="evenodd" clip-rule="evenodd" d="M91.1815 65.5425C90.5878 65.7247 89.9588 65.3912 89.7765 64.7975C87.2942 56.7111 80.9928 55.6175 78.5635 56.013C77.9506 56.1127 77.3728 55.6967 77.273 55.0838C77.1732 54.4708 77.5892 53.893 78.2022 53.7932C81.5663 53.2456 89.065 54.8161 91.9264 64.1375C92.1087 64.7312 91.7751 65.3602 91.1815 65.5425Z" fill="white"/>
<path fill-rule="evenodd" clip-rule="evenodd" d="M90.0015 74.894C89.454 74.601 89.2476 73.9196 89.5406 73.3721C89.5853 73.2886 89.6316 73.2032 89.6789 73.1159C90.3261 71.9233 91.1659 70.3757 90.6105 68.4317C90.44 67.8345 90.7857 67.2122 91.3829 67.0416C91.98 66.871 92.6024 67.2168 92.773 67.8139C93.5929 70.684 92.3098 73.007 91.6686 74.1679C91.6152 74.2645 91.5664 74.353 91.5235 74.4331C91.2305 74.9806 90.5491 75.187 90.0015 74.894Z" fill="white"/>
<path d="M65.9519 100.031C87.0057 97.0395 91.5764 90.5846 91.23 87.7311C85.1361 93.1972 70.2764 95.4255 65.8833 94.7494C57.1338 97.7562 44.8982 103.022 65.9519 100.031Z" fill="#1D1C1C" stroke="black"/>
<path d="M45.1764 112.014C44.941 105.876 48.6077 100.862 50.4704 99.1218C53.2691 96.0927 60.8001 92.5951 68.5348 102.837C76.2695 113.08 73.9359 122.718 71.8023 126.258C72.0802 127.686 73.0322 128.785 73.128 131.553C74.1256 132.318 75.1164 133.711 74.7269 134.839C76.7152 136.998 76.9409 139.389 76.5379 141.773C80.1591 144.075 77.4947 146.31 79.1208 147.082C80.7469 147.854 80.221 149.985 81.3483 150.375C82.4757 150.764 82.0795 152.52 82.9541 153.032C83.8286 153.544 84.7101 153.428 84.9424 155.191C86.3293 154.829 86.8146 156.468 87.1768 157.855C89.9505 157.131 90.9344 159.153 91.1804 159.659L91.1804 159.659C91.4264 160.164 95.6694 163.102 98.1768 163.758C100.684 164.413 99.0039 168.67 101.279 167.563C103.554 166.456 104.019 169.981 104.524 169.735C105.03 169.489 109.806 169.667 114.903 175.002C120 180.338 117.855 181.069 115.703 182.429C116.55 185.455 113.018 186.549 111.768 185.906C111.098 189.671 107.341 188.373 106.972 187.615C106.938 190.758 102.661 190.963 101.916 190.075C101.171 189.187 101.438 187.806 100.583 185.408C98.3219 185.258 98.8342 184.384 98.2125 183.748C97.3311 183.865 96.7433 180.086 95.4794 180.701C94.2155 181.316 93.7507 177.791 91.9812 178.652C90.2117 179.513 89.7062 179.759 87.5881 177.976C85.0603 179.206 81.3093 177.279 78.6992 174.485C76.9297 175.346 74.0858 173.291 73.9643 170.537C72.1948 171.398 70.3688 168.222 70.3567 166.977C69.3455 167.469 68.6332 165.94 68.1156 164.942C65.873 165.407 65.3554 164.409 59.3837 158.561C53.412 152.713 48.8896 135.827 48.7034 134.683C48.2317 131.786 49.8646 131.93 48.5049 129.778C47.4171 128.056 47.4274 124.779 47.5685 123.356C46.8692 122.133 45.4119 118.152 45.1764 112.014Z" fill="white" stroke="black"/>
<ellipse cx="71.9566" cy="89.4808" rx="4.47221" ry="5.1111" transform="rotate(-42.0139 71.9566 89.4808)" fill="#242424"/>
<path d="M48.6394 94.073C42.6628 96.9811 44.0326 102.214 45.8801 105.107C47.7583 102.186 48.2919 101.926 49.3663 100.065C48.8541 96.2998 61.4303 101.473 67.0299 99.4179C72.6295 97.3624 75.3119 93.3808 74.5364 89.0743C74.0601 86.4289 69.9274 85.0273 68.9512 88.4464C66.5106 96.9941 56.1103 90.4379 48.6394 94.073Z" fill="white" stroke="black"/>
<path d="M68.5547 89.3848C70.6317 89.1557 72.3598 89.4091 73.3236 90.1906" stroke="black"/>
<path d="M67.2227 91.2836C69.2888 91.6627 70.1655 92.3743 70.7835 93.2221" stroke="black"/>
<path d="M65.5254 92.7351C67.4761 93.4471 68.0554 94.6188 67.3058 95.6896" stroke="black"/>
<path d="M63.791 92.9248C64.9482 93.2568 64.5995 95.0532 64.3675 95.6762" stroke="black"/>
<path d="M95.757 79.9011C94.398 81.3927 90.6651 84.7877 86.6055 86.4349" stroke="black"/>
<path d="M141.184 165.341C141.915 167.486 139.872 170.356 138.831 170.862" stroke="black"/>
<path d="M132.588 168.273C132.814 170.665 131.919 172.038 131.229 172.853" stroke="black"/>
<path d="M126.807 167.959C127.032 170.351 126.137 171.724 125.448 172.539" stroke="black"/>
<path d="M130.342 164.99C131.053 169.021 129.998 172.035 129.309 172.849" stroke="black"/>
<path d="M145.701 134.195C147.769 130.662 150.523 129.047 151.576 128.873" stroke="black"/>
<path d="M142.436 133.908C144.503 130.376 147.258 128.761 148.311 128.586" stroke="black"/>
<path d="M134.838 115.721C136.905 112.189 139.66 110.574 140.713 110.399" stroke="black"/>
<path d="M129.104 97.4785C126.082 94.7174 125.08 91.6857 125.129 90.6194" stroke="black"/>
<path d="M126.014 98.4037C124.47 94.6127 124.867 91.4443 125.369 90.5026" stroke="black"/>
<path d="M134.822 79.0197C130.743 79.351 127.84 78.0199 127.093 77.2572" stroke="black"/>
<path d="M143.982 81.8008C140.644 84.1685 137.468 84.5057 136.437 84.2312" stroke="black"/>
<path d="M132.104 63.1531C133.918 63.5206 135.527 66.0221 135.581 67.0882" stroke="black"/>
<path d="M160.824 116.394C163.455 117.302 165.935 120.472 166.038 122.611" stroke="black"/>
<path d="M175.178 114.412C173.627 118.292 172.329 122.05 170.553 123.54" stroke="black"/>
<path d="M163.631 112.527C167.348 117.596 168.578 120.124 168.175 122.508" stroke="black"/>
<path d="M128.846 173.846C128.607 175.838 126.332 176.945 125.321 177.437" stroke="black"/>
<path d="M112.703 179.285C114.647 179.779 115.45 182.179 115.807 183.245" stroke="black"/>
<path d="M108.645 182.51C110.589 183.004 111.392 185.404 111.748 186.47" stroke="black"/>
<path d="M103.848 184.218C105.792 184.713 106.595 187.112 106.951 188.178" stroke="black"/>
<path d="M138.861 170.848C139.101 171.982 138.106 173.716 137.065 174.223" stroke="black"/>
<path d="M31.1073 90.0991C32.3712 89.4842 35.145 88.7598 37.2631 90.5428" stroke="black"/>
<path d="M29.9388 93.481C30.4443 93.235 31.659 92.519 33.4573 93.6448" stroke="black"/>
<path d="M27.3662 108.756C26.9258 109.106 25.6744 110.242 23.6753 109.532" stroke="black"/>
<path d="M31.9664 118.213C31.6405 118.671 30.7542 120.11 28.6363 119.983" stroke="black"/>
<path d="M35.6778 114.275C35.4682 114.797 34.944 116.404 32.8554 116.777" stroke="black"/>
<path d="M26.0924 88.7877C27.2698 88.4232 29.3582 89.0744 30.226 90.2153" stroke="black"/>
<path d="M24.3501 93.1931C25.4658 92.6694 27.3908 93.1824 28.4079 94.1924" stroke="black"/>
<path d="M72.2043 126.375C70.0359 121.49 63.6836 112.076 55.6218 113.497C47.5599 114.919 46.8292 120.485 47.4716 123.09" stroke="black"/>
<path d="M103.184 168.199C100.014 170.68 96.1948 175.039 95.1293 180.559" stroke="#41AACC" stroke-width="4"/>
<path d="M127.709 72.1102C131.469 73.5457 137.782 72.8953 141.069 71.2964" stroke="#41AACC" stroke-width="4"/>
<path d="M51.7576 145.39L50.8898 144.249L48.977 146.743L52.8577 148.294L51.7576 145.39Z" fill="white"/>
<path d="M185.607 161.546C185.967 159.287 186.59 154.315 186.208 152.5C185.729 150.232 190.653 132.254 174.031 127.475C166.761 125.385 159.458 126.437 155.789 128.535C154.785 128.398 152.473 128.273 151.26 128.863C150.638 128.228 147.871 128.324 146.224 129.438C144.468 129.041 143.088 128.775 141.824 129.39C139.085 126.972 138.326 127.341 136.317 127.067C134.316 126.166 126.916 124.451 126.035 124.568" stroke="black"/>
<path d="M185.955 152.623C184.591 154.746 182.403 157.967 177.982 157.44C173.336 156.887 177.729 149.012 170.725 142.526C166.742 138.837 155.284 140.348 150.604 142.938C149.381 139.781 148.807 132.433 156.295 128.289" stroke="black"/>
<path d="M184.203 105.331C183.554 107.21 183.28 109.219 177.958 113.059C174.639 112.664 169.963 95.2268 153.663 104.247C152.44 101.091 151.865 93.7419 159.353 89.5984" stroke="black"/>
<path d="M170.798 124.045C170.083 125.144 170.815 126.434 171.27 126.942C169.865 126.625 165.911 126.423 164.11 126.362C163.522 126.439 162.651 126.447 163.864 125.856C165.381 125.118 163.126 124.34 164.513 123.977C165.9 123.615 165.415 121.975 166.412 122.741C167.41 123.506 168.188 121.251 168.551 122.638C168.913 124.025 171.693 122.672 170.798 124.045Z" fill="#1D1C1C"/>
<path d="M61.4987 139.712C63.2981 143.839 67.9656 153.26 72.2401 157.933C77.5832 163.774 68.5239 164.43 68.1413 164.929" stroke="black"/>
<path d="M127.223 107.733C134.274 106.803 135.216 101.03 138.694 104.965" stroke="black"/>
<path d="M60.1879 159.503C60.6637 158.125 65.0178 154.651 69.4245 154.07" stroke="black"/>
<path d="M76.4688 138.994C74.0775 139.219 57.3998 135.142 52.2425 147.03" stroke="#41AACC" stroke-width="4"/>
<path d="M56.0681 153.609C56.4807 152.101 61.2654 148.228 65.7585 147.824" stroke="black"/>
<path d="M185.482 138.16C184.833 140.038 182.408 143.407 172.96 145.191" stroke="black"/>
<path d="M163.455 140.436C163.644 138.457 166.017 131.689 174.782 127.734" stroke="black"/>
<path d="M179.516 96.9825C179.046 98.9145 177.705 101.615 170.628 105.059" stroke="black"/>
<path d="M162.49 101.828C162.679 99.849 163.239 93.9561 172.004 90.0016" stroke="black"/>
<path d="M141.954 129.014C142.674 128.352 143.99 126.773 143.498 125.762C142.883 124.498 140 123.713 137.622 122.681C137.106 122.457 129.485 119.45 128.474 119.942" stroke="black"/>
<path d="M186.749 183.812C185.007 186.014 178.711 190.036 169.485 187.523" stroke="black" stroke-width="2"/>
<path d="M135.605 111.47C132.18 110.427 126.193 107.546 125.602 106.333C124.864 104.816 124.147 101.414 118.77 98.7152C116.453 97.5528 119.576 93.9463 113.324 90.7356C111.977 90.044 103.785 77.5571 100.39 77.6461" stroke="black" stroke-width="2"/>
<path opacity="0.3" d="M187.826 142.334C187.821 142.837 189.633 153.543 190.54 158.833L185.607 161.546C186.069 157.57 186.905 148.409 186.555 143.577C186.118 137.538 183.521 133.486 178.786 129.538C174.998 126.379 166.837 126.182 163.229 126.478L155.789 128.535L151.259 128.863L146.224 129.438L142.077 129.267C142.546 128.518 143.611 126.895 144.12 126.397C144.755 125.776 150.309 123.698 152.195 123.719C154.081 123.739 159.669 118.519 160.441 116.893C161.213 115.267 163.823 118.061 165.436 120.09C167.048 122.119 164.369 114.043 163.631 112.527C162.893 111.01 166.487 115.827 167.963 118.86C169.439 121.893 168.011 114.46 167.908 112.322C167.806 110.183 170.122 116.872 170.963 120.527C171.803 124.182 174.16 115.532 175.178 114.412C176.196 113.291 176.818 125.493 177.324 125.247C177.829 125.001 182.475 125.554 182.571 128.321C182.667 131.088 185.892 135.146 186.903 134.654C187.914 134.162 187.833 141.705 187.826 142.334Z" fill="#242424"/>
<path opacity="0.3" d="M50.3196 115.452C48.0069 106.073 52.1974 100.678 54.6432 99.2799L50.8786 98.6106C50.6191 99.3622 47.9547 101.596 46.2811 105.224C44.3391 109.434 45.6375 118.251 47.2251 122.585C47.2525 123.926 47.3306 126.785 47.4236 127.49C47.5398 128.372 49.4051 130.278 48.5102 131.651C47.6152 133.024 50.4306 140.095 51.7632 144.762C53.0957 149.428 55.9382 153.985 60.154 159.437C64.3699 164.888 66.6313 165.038 68.1412 164.929C68.8792 166.446 69.5009 167.081 70.3823 166.965C70.4849 169.103 72.48 170.634 73.9899 170.524C74.3249 174.425 78.2193 174.719 78.7249 174.473C81.9567 177.902 85.2157 178.818 87.3609 178.086C88.4815 179.104 90.6131 179.63 92.2596 178.517C93.5167 178.53 94.4939 181.181 96.1336 180.696C96.6329 181.722 97.0759 182.825 97.8623 183.606C98.7805 184.519 99.3519 185.382 100.609 185.396C100.643 186.109 100.884 187.888 101.573 189.304C102.434 191.073 105.46 190.226 103.95 190.335C102.44 190.445 102.009 183.777 101.251 184.146C100.644 184.441 98.3518 180.971 97.2813 179.199C96.6118 179.108 95.5186 179.432 94.8968 178.796C94.5036 178.395 91.7745 176.877 90.7633 177.369C89.7522 177.861 88.3925 175.709 86.7528 176.194C85.1131 176.679 80.6445 171.35 79.0048 171.836C77.3651 172.321 77.9047 168.932 75.5202 168.529C73.1358 168.126 74.5702 163.364 71.5504 163.583C68.5306 163.802 65.6881 159.245 64.5947 155.713C63.4606 155.952 61.6157 152.16 61.3968 149.14C60.3857 149.632 58.288 145.964 56.2038 141.038C54.5365 137.097 55.044 132.015 56.326 129.724C53.067 128.809 51.2344 126.199 51.3654 123.384C51.4964 120.569 53.5921 115.11 62.146 114.7C57.6502 111.885 54.1113 113.607 50.3196 115.452Z" fill="#242424"/>
<path d="M128.38 58.7122C130.184 58.5641 133.838 58.6203 134.024 60.0304C134.256 61.7931 133.491 62.7906 130.717 63.515C128.498 64.0946 127.784 63.4834 127.704 63.1054" stroke="black"/>
<path d="M140.919 53.3437C135.712 55.1454 136.313 57.6665 137.188 58.1788C138.725 59.079 141.09 57.8434 141.854 56.8462" stroke="black"/>
<path d="M141.63 57.3747C136.423 59.1764 137.024 61.6975 137.899 62.2098C139.436 63.11 141.801 61.8744 142.565 60.8772" stroke="black"/>
<path d="M142.341 61.4057C137.134 63.2074 137.735 65.7285 138.61 66.2408C140.147 67.141 142.512 65.9054 143.276 64.9082" stroke="black"/>
<path opacity="0.3" d="M136.827 103.059C137.138 102.991 141.166 101.696 142.429 96.582C142.55 97.0443 143.63 97.1231 142.395 99.7248C141.16 102.327 136.145 108.081 131.478 109.414C131.184 109.452 130.296 109.426 129.094 109.011C127.591 108.491 124.981 105.697 124.249 103.552C123.518 101.407 120.519 99.7399 119.145 98.845C117.772 97.9501 117.41 96.5632 117.301 95.0533C117.213 93.8454 115.529 92.2682 114.697 91.6306L111.828 89.588C110.01 87.1376 106.401 82.1618 106.505 81.8612C106.635 81.4854 113.877 86.0898 115.114 87.989C116.351 89.8883 119.719 92.3134 120.976 92.327C122.233 92.3406 122.513 89.7034 122.971 93.8573C123.154 95.5189 124.939 97.9018 126.066 98.2911C125.581 96.6515 125.13 91.869 125.253 92.1218C125.376 92.3746 127.68 96.1047 128.97 97.191C132.67 100.306 127.91 105.028 136.827 103.059Z" fill="#242424"/>
</svg>
