<svg width="24" height="25" viewBox="0 0 24 25" fill="none" xmlns="http://www.w3.org/2000/svg">
<g clip-path="url(#clip0_1481_15316)">
<path d="M16.4325 7.35L17.8725 8.79L12.9925 13.67L9.7025 10.38C9.3125 9.99 8.6825 9.99 8.2925 10.38L2.2925 16.39C1.9025 16.78 1.9025 17.41 2.2925 17.8C2.6825 18.19 3.3125 18.19 3.7025 17.8L8.9925 12.5L12.2825 15.79C12.6725 16.18 13.3025 16.18 13.6925 15.79L19.2825 10.21L20.7225 11.65C21.0325 11.96 21.5725 11.74 21.5725 11.3V7C21.5825 6.72 21.3625 6.5 21.0825 6.5H16.7925C16.3425 6.5 16.1225 7.04 16.4325 7.35Z" fill="#78BD4D"/>
</g>
<defs>
<clipPath id="clip0_1481_15316">
<rect width="24" height="24" fill="white" transform="translate(0 0.5)"/>
</clipPath>
</defs>
</svg>
