<svg width="24" height="25" viewBox="0 0 24 25" fill="none" xmlns="http://www.w3.org/2000/svg">
<g clip-path="url(#clip0_1481_15306)">
<path d="M16.85 17.6502L18.29 16.2102L13.41 11.3302L10.12 14.6202C9.72998 15.0102 9.09998 15.0102 8.70998 14.6202L2.70998 8.61021C2.31998 8.22021 2.31998 7.59021 2.70998 7.20021C3.09998 6.81021 3.72998 6.81021 4.11998 7.20021L9.40998 12.5002L12.7 9.21022C13.09 8.82022 13.72 8.82022 14.11 9.21022L19.7 14.7902L21.14 13.3502C21.45 13.0402 21.99 13.2602 21.99 13.7002V17.9902C21.99 18.2702 21.77 18.4902 21.49 18.4902H17.2C16.76 18.5002 16.54 17.9602 16.85 17.6502Z" fill="#FF8484"/>
</g>
<defs>
<clipPath id="clip0_1481_15306">
<rect width="24" height="24" fill="white" transform="translate(0 0.5)"/>
</clipPath>
</defs>
</svg>
