<svg width="27" height="22" viewBox="0 0 27 22" fill="none" xmlns="http://www.w3.org/2000/svg">
<path d="M24.0923 5.5684C24.1092 5.80528 24.1092 6.0422 24.1092 6.27908C24.1092 13.5041 18.6101 21.829 8.55927 21.829C5.4628 21.829 2.58633 20.9322 0.166687 19.3756C0.606637 19.4263 1.02961 19.4432 1.48648 19.4432C4.04144 19.4432 6.39343 18.5803 8.27162 17.1082C5.8689 17.0575 3.85535 15.4839 3.16159 13.318C3.50003 13.3687 3.83842 13.4026 4.19379 13.4026C4.68447 13.4026 5.1752 13.3349 5.63202 13.2165C3.12779 12.7088 1.24956 10.5092 1.24956 7.85268V7.78502C1.97711 8.19112 2.82321 8.44492 3.71993 8.47872C2.24784 7.49731 1.28341 5.8222 1.28341 3.92709C1.28341 2.91188 1.55409 1.98125 2.02789 1.16906C4.71827 4.48548 8.76229 6.65127 13.2969 6.8882C13.2124 6.4821 13.1616 6.05913 13.1616 5.63611C13.1616 2.62422 15.5982 0.170776 18.6269 0.170776C20.2005 0.170776 21.6218 0.830675 22.6202 1.89667C23.8553 1.65979 25.0398 1.20292 26.0889 0.576872C25.6827 1.84594 24.8198 2.91193 23.6862 3.58871C24.786 3.47032 25.852 3.16568 26.8334 2.74271C26.089 3.82558 25.1583 4.79001 24.0923 5.5684Z" fill="#242424"/>
</svg>
