<svg width="27" height="20" viewBox="0 0 27 20" fill="none" xmlns="http://www.w3.org/2000/svg">
<path d="M26.2761 3.55874C25.9694 2.40395 25.0658 1.49448 23.9185 1.18584C21.8389 0.625 13.5 0.625 13.5 0.625C13.5 0.625 5.16116 0.625 3.08153 1.18584C1.93421 1.49453 1.0306 2.40395 0.723913 3.55874C0.166687 5.65185 0.166687 10.0189 0.166687 10.0189C0.166687 10.0189 0.166687 14.386 0.723913 16.4791C1.0306 17.6339 1.93421 18.5055 3.08153 18.8141C5.16116 19.375 13.5 19.375 13.5 19.375C13.5 19.375 21.8389 19.375 23.9185 18.8141C25.0658 18.5055 25.9694 17.6339 26.2761 16.4791C26.8334 14.386 26.8334 10.0189 26.8334 10.0189C26.8334 10.0189 26.8334 5.65185 26.2761 3.55874ZM10.7727 13.9839V6.05395L17.7424 10.019L10.7727 13.9839Z" fill="#242424"/>
</svg>
